<svg xmlns="http://www.w3.org/2000/svg" viewBox="0 0 55.76754 57.02196"><defs><style>.a{fill:#4c2b31;}</style></defs><title>Adults-FilterPage03</title><path class="a" d="M40.42578,43.98751q2.63671,1.46484,2.63672,2.63672V50.5793a2.51462,2.51462,0,0,1-.78125,1.87989,2.57808,2.57808,0,0,1-1.85547.75683H6.63672a2.57555,2.57555,0,0,1-1.85547-.75683A2.51178,2.51178,0,0,1,4,50.5793V46.62423q0-1.07346,2.63672-2.63672l10.10742-5.46875a11.29153,11.29153,0,0,1-3.85742-5.85938,21.98354,21.98354,0,0,1-1.07422-5.81054V20.257a6.15592,6.15592,0,0,1,1.02539-3.2959,11.74317,11.74317,0,0,1,2.68555-2.9541,14.56782,14.56782,0,0,1,3.78418-2.14844,11.47314,11.47314,0,0,1,8.56933,0A14.29237,14.29237,0,0,1,31.6123,14.007a11.53883,11.53883,0,0,1,2.63672,2.9541A6.26736,6.26736,0,0,1,35.25,20.257v6.5918a23.90151,23.90151,0,0,1-.95215,5.957,10.731,10.731,0,0,1-3.68652,5.76172ZM39.9375,50.091v-2.7832a1.32374,1.32374,0,0,0-.3418-.24414q-.19569-.09728-.39062-.19531a.23435.23435,0,0,1-.12207-.04883,1.77017,1.77017,0,0,0-.1709-.09766L29.09766,41.302a3.2944,3.2944,0,0,1-1.12305-1.0498,2.87239,2.87239,0,0,1-.48828-1.44043,2.84323,2.84323,0,0,1,.21972-1.51368,3.04025,3.04025,0,0,1,.95215-1.2207,7.89814,7.89814,0,0,0,2.73438-4.46777,20.331,20.331,0,0,0,.73242-4.76074V20.257q0-1.70861-2.56348-3.90625a8.90872,8.90872,0,0,0-5.98144-2.19727,9.1504,9.1504,0,0,0-5.98145,2.19727Q14.93675,18.548,14.9375,20.257v6.5918a17.21087,17.21087,0,0,0,.87891,4.76074,8.63792,8.63792,0,0,0,2.88086,4.46777,3.2453,3.2453,0,0,1,.90332,1.2207A3.06843,3.06843,0,0,1,18.209,41.25313L8.10156,46.77071a.21758.21758,0,0,0-.09765.02441.3934.3934,0,0,0-.09766.07325,1.35575,1.35575,0,0,0-.415.19531q-.21972.14649-.36621.24414V50.091ZM51.36328,36.22384Q54,37.68868,54,38.86055V42.7668a2.51226,2.51226,0,0,1-.78125,1.87989,2.575,2.575,0,0,1-1.85547.75683H46.1875a17.9922,17.9922,0,0,0-.61035-1.80664,3.18618,3.18618,0,0,0-1.001-1.31836H50.875v-2.7832c-.09766-.06485-.2121-.13809-.3418-.21973a1.39235,1.39235,0,0,0-.39062-.1709.32056.32056,0,0,0-.12207-.07324,1.25563,1.25563,0,0,1-.1709-.07324l-9.96094-5.41992a3.29433,3.29433,0,0,1-1.123-1.04981,2.87252,2.87252,0,0,1-.48828-1.44043,2.8431,2.8431,0,0,1,.21973-1.51367,3.0401,3.0401,0,0,1,.95215-1.2207,8.52041,8.52041,0,0,0,2.80762-4.5166,18.53046,18.53046,0,0,0,.80566-4.71192V12.49337q0-1.75782-2.63672-3.95508A9.18772,9.18772,0,0,0,34.37109,6.341a9.6366,9.6366,0,0,0-3.19824.53711A9.95735,9.95735,0,0,0,28.41406,8.343a7.683,7.683,0,0,0-1.95312-.3418q-1.0254-.04806-2.002-.09766a14.08614,14.08614,0,0,1,4.39454-3.36914,12.031,12.031,0,0,1,5.51757-1.36719,11.49591,11.49591,0,0,1,4.32129.8545,15.11986,15.11986,0,0,1,3.78418,2.17285,11.58307,11.58307,0,0,1,2.68555,2.97851,6.27613,6.27613,0,0,1,1.02539,3.32032v6.59179a22.49661,22.49661,0,0,1-1.02539,5.93262,10.87655,10.87655,0,0,1-3.75977,5.73731Z"/></svg>