<svg xmlns="http://www.w3.org/2000/svg" xmlns:xlink="http://www.w3.org/1999/xlink" width="70" height="59" viewBox="0 0 70 59">
    <defs>
        <path id="a" d="M0 .494h69.974v57.872H0z"/>
    </defs>
    <g fill="none" fill-rule="evenodd">
        <path fill="#E7A06A" d="M41.955 30.004c-1.093-.062-1.827.685-1.94 1.891-.121 1.26.52 1.892 1.675 2.1 1.163.062 2.093-.488 2.276-1.601.225-1.413-.694-2.317-2.01-2.39"/>
        <path stroke="#010000" stroke-width=".25" d="M41.955 30.004c-1.093-.062-1.827.685-1.94 1.891-.121 1.26.52 1.892 1.675 2.1 1.163.062 2.093-.488 2.276-1.601.225-1.413-.694-2.317-2.01-2.39z"/>
        <path fill="#050505" d="M47 31.403c-.316-3.319-1.987-5.42-5.576-5.403-3.311.021-5.277 2.043-5.415 5.164-.16 3.378 1.857 5.701 5.297 5.83 3.46.13 5.308-2.023 5.694-5.59"/>
        <path fill="#FFF" d="M43.966 32.394c-.182 1.113-1.113 1.664-2.275 1.601-1.155-.208-1.799-.841-1.676-2.099.112-1.206.848-1.954 1.94-1.892 1.317.073 2.236.977 2.011 2.39"/>
        <path stroke="#010000" stroke-width=".25" d="M43.966 32.394c-.182 1.113-1.113 1.664-2.275 1.601-1.155-.208-1.799-.841-1.676-2.099.112-1.206.848-1.954 1.94-1.892 1.317.073 2.236.977 2.011 2.39z"/>
        <path fill="#E86A7C" d="M52.225 45.079c-1.853 1.519-3.86 2.06-5.981.406-1.174-.908-2.543-2.417-3.809-.705-1.287 1.75.556 2.968 1.955 3.82.632.383 1.325.675 2 .928 1.295.482 2.721.612 4.078.31 1.479-.332 2.753-.834 3.827-1.75.946-.803 2.388-1.722 1.338-3.192-1.081-1.5-2.276-.755-3.408.183"/>
        <path fill="#F4A33E" d="M16.68 26.951c-.988.859-2.365 1.793-1.287 3.208 1.12 1.445 2.344.617 3.467-.278 1.87-1.513 3.856-2.082 5.984-.395 1.12.885 2.312 2.553 3.691.616 1.357-1.888-.557-2.996-1.912-3.796-.891-.525-1.595-.838-2.358-1.045-1.417-.384-2.931-.324-4.35.048-1.182.31-2.28.812-3.236 1.642"/>
        <path stroke="#010000" stroke-width=".25" d="M64.087 23.004c-4.696.1-9.402.031-14.11.031-4.694 0-9.402.09-14.098-.031-2.154-.06-3.007.602-2.864 2.838.445 7.192 1.236 14.317 4.595 20.836 2.601 5.07 6.437 8.422 12.641 8.32 5.952-.11 9.605-3.38 12.156-8.27 3.41-6.53 4.048-13.673 4.575-20.848.161-2.242-.75-2.916-2.895-2.876z"/>
        <path stroke="#010000" stroke-width=".25" d="M58.776 36.994c-3.48.129-5.683-1.99-5.773-5.368-.09-3.388 2.004-5.358 5.573-5.626 3.47.268 5.474 2.11 5.423 5.626-.04 3.268-2.032 5.24-5.223 5.368zM38 5.684c-.052-.31-1.474-.624-2.255-.624-9.699-.038-19.4.011-29.09-.06-1.917-.01-2.768.462-2.643 2.515.43 7.706 1.28 15.341 5.274 22.194 3.658 6.268 10.163 8.723 16.513 6.47 2.57-.917 4.262-2.194 3.781-5.484-.467-3.134-1.072-8.19.626-9.696"/>
        <path fill="#E7A06A" d="M57.844 30.01c-1.38.145-2.032 1.097-1.797 2.505.203 1.25 1.143 1.633 2.246 1.436 1.103-.197 1.727-.94 1.707-2.368-.461-.713-.981-1.696-2.156-1.572"/>
        <path stroke="#010000" stroke-width=".25" d="M57.844 30.01c-1.38.145-2.032 1.097-1.797 2.505.203 1.251 1.143 1.633 2.246 1.436 1.103-.197 1.727-.94 1.707-2.368-.461-.713-.981-1.696-2.156-1.572z"/>
        <g>
            <mask id="b" fill="#fff">
                <use xlink:href="#a"/>
            </mask>
            <path fill="#00C9A8" d="M49.342 54.615c-6.194.103-10.023-3.282-12.62-8.401-3.355-6.584-4.143-13.78-4.587-21.042-.141-2.258.708-2.927 2.859-2.867 4.688.122 9.388.032 14.076.032 4.698 0 9.397.07 14.085-.032 2.143-.04 3.051.64 2.89 2.905-.525 7.246-1.162 14.46-4.567 21.054-2.547 4.937-6.194 8.24-12.136 8.35m-19.496-34.56c-1.084.549-1.268 1.12-1.44 2.328-.376 2.645.281 5.313.657 7.9.475 3.321-1.192 4.612-3.73 5.537-6.263 2.277-12.68-.205-16.286-6.533-3.94-6.919-4.78-14.632-5.204-22.414-.121-2.073.718-2.55 2.607-2.54 9.559.072 19.127.02 28.696.062.768 0 2.173.313 2.223.628.587 4.196.222 8.433-.94 12.437-.778 2.652-1.067 2.113-3.402 2.081-.592-.008-2.406.122-3.18.514M66.063 46.05c1.003-2.253 2.035-5.054 2.555-7.184.816-3.337 1.227-6.645 1.289-10.105.06-3.417.55-9.63-2.388-9.88l-7.002-.07c-6.197.05-12.385-.01-18.786-.02-.834 0-1.465-.758-1.342-1.588.625-4.198.858-8.085 1-11.997.121-3.415-.778-4.836-4.486-4.704-7.74.273-15.49.081-23.24.081C-.976.583-1.137.613.972 15.437c1.204 8.443 3.245 16.765 10.803 22.078 5.317 3.73 11.003 3.342 16.735 1.006.75-.305 1.593.09 1.815.872 1.244 4.37 2.622 8.378 5.185 11.85 5.819 7.863 16.199 9.475 23.462 3.535 3.364-2.753 5.594-5.363 7.092-8.728" mask="url(#b)"/>
        </g>
        <path fill="#050505" d="M58.576 26c-3.569.268-5.663 2.238-5.573 5.626.09 3.377 2.294 5.497 5.773 5.368 3.19-.128 5.184-2.1 5.223-5.368.05-3.516-1.954-5.358-5.423-5.626"/>
        <path fill="#FFF" d="M58.293 33.952c-1.103.195-2.043-.187-2.246-1.438-.235-1.408.417-2.359 1.797-2.503 1.175-.126 1.695.86 2.156 1.57.02 1.428-.604 2.174-1.707 2.37"/>
        <path stroke="#050607" stroke-width=".25" d="M58.293 33.952c-1.103.195-2.043-.185-2.246-1.438-.235-1.408.417-2.359 1.797-2.503 1.175-.126 1.695.859 2.156 1.57.02 1.428-.604 2.174-1.707 2.37z"/>
        <path fill="#E7A06A" d="M12.955 11.004c-1.092-.063-1.828.685-1.94 1.89-.123 1.259.52 1.893 1.674 2.101 1.164.062 2.093-.49 2.277-1.601.225-1.415-.694-2.317-2.01-2.39"/>
        <path stroke="#010000" stroke-width=".25" d="M12.955 11.004c-1.092-.063-1.828.685-1.94 1.89-.123 1.259.52 1.893 1.674 2.101 1.164.062 2.093-.49 2.277-1.601.225-1.415-.694-2.317-2.01-2.39z"/>
        <path fill="#050505" d="M19 13.402c-.316-3.318-1.987-5.421-5.574-5.402-3.313.02-5.28 2.044-5.417 5.163-.16 3.38 1.857 5.702 5.298 5.831 3.46.131 5.309-2.022 5.693-5.592"/>
        <path fill="#FFF" d="M14.966 13.394c-.184 1.111-1.113 1.664-2.277 1.601-1.153-.208-1.797-.843-1.674-2.1.112-1.205.848-1.954 1.94-1.891 1.317.073 2.236.976 2.011 2.39"/>
        <path stroke="#010000" stroke-width=".25" d="M14.966 13.394c-.184 1.111-1.113 1.664-2.277 1.601-1.153-.208-1.797-.843-1.674-2.1.112-1.205.848-1.954 1.94-1.891 1.317.073 2.236.976 2.011 2.39z"/>
        <path fill="#E7A06A" d="M29.844 11.01c-1.378.146-2.032 1.097-1.797 2.504.204 1.25 1.143 1.634 2.246 1.437 1.103-.197 1.727-.94 1.707-2.367-.46-.715-.981-1.696-2.156-1.574"/>
        <path stroke="#010000" stroke-width=".25" d="M29.844 11.01c-1.378.146-2.032 1.097-1.797 2.504.204 1.25 1.143 1.634 2.246 1.437 1.103-.197 1.727-.94 1.707-2.367-.46-.715-.981-1.696-2.156-1.574z"/>
        <path fill="#050505" d="M29.576 8c-3.57.268-5.663 2.239-5.573 5.626.09 3.377 2.292 5.498 5.773 5.368 3.19-.128 5.184-2.098 5.223-5.368.05-3.516-1.954-5.358-5.423-5.626"/>
        <path fill="#FFF" d="M30.293 14.952c-1.103.195-2.042-.187-2.246-1.44-.235-1.405.419-2.355 1.797-2.501 1.175-.124 1.696.859 2.156 1.571.02 1.428-.604 2.173-1.707 2.37"/>
        <path stroke="#050607" stroke-width=".25" d="M30.293 14.952c-1.103.195-2.042-.187-2.246-1.44-.235-1.405.419-2.355 1.797-2.501 1.175-.124 1.696.859 2.156 1.571.02 1.428-.604 2.173-1.707 2.37z"/>
    </g>
</svg>
