<?xml version="1.0" encoding="UTF-8"?>
<svg enable-background="new 0 0 284.929 284.929" version="1.1" viewBox="0 0 284.93 284.93" xml:space="preserve" xmlns="http://www.w3.org/2000/svg">
<g transform="rotate(-89.712 141.87 142.47)">
	<path d="m282.08 195.28-133.05-133.04c-1.901-1.903-4.088-2.856-6.562-2.856s-4.665 0.953-6.567 2.856l-133.04 133.04c-1.906 1.906-2.856 4.093-2.856 6.568 0 2.474 0.953 4.664 2.856 6.566l14.272 14.271c1.903 1.903 4.093 2.854 6.567 2.854s4.664-0.951 6.567-2.854l112.2-112.2 112.21 112.21c1.902 1.903 4.093 2.848 6.563 2.848 2.478 0 4.668-0.951 6.57-2.848l14.274-14.277c1.902-1.902 2.847-4.093 2.847-6.566 1e-3 -2.476-0.944-4.666-2.846-6.569z"/>
</g>
</svg>
