<svg xmlns="http://www.w3.org/2000/svg" viewBox="0 0 45.79258 43.63967"><title>date</title><path d="M32.89457,5.158V1.8214H31.23382V5.158H14.56675V1.8214H12.90618V5.158H2.89683V41.81344h39.992V5.158Zm0,1.66038v3.33658H31.23382V6.81836Zm-18.32782,0v3.33658H12.90618V6.81836ZM41.22811,40.15287H4.57247V15.15208H41.22811Z"/><polygon points="41.228 6.818 41.228 13.492 4.572 13.492 4.572 6.818 12.906 6.818 12.906 10.155 14.567 10.155 14.567 6.818 31.234 6.818 31.234 10.155 32.895 10.155 32.895 6.818 41.228 6.818"/><polygon points="41.228 6.818 41.228 13.492 4.572 13.492 4.572 6.818 12.906 6.818 12.906 10.155 14.567 10.155 14.567 6.818 31.234 6.818 31.234 10.155 32.895 10.155 32.895 6.818 41.228 6.818"/></svg>