<svg xmlns="http://www.w3.org/2000/svg" viewBox="0 0 45.79258 43.63967"><title>time</title><path d="M22.89629,1.82623a19.60664,19.60664,0,0,1,7.79047,1.562A19.90133,19.90133,0,0,1,41.32789,14.02936a19.60652,19.60652,0,0,1,1.562,7.79048,19.60221,19.60221,0,0,1-1.562,7.79047A19.90133,19.90133,0,0,1,30.68676,40.25144a19.60664,19.60664,0,0,1-7.79047,1.562,19.60243,19.60243,0,0,1-7.79048-1.562A19.90127,19.90127,0,0,1,4.46469,29.61031a19.59164,19.59164,0,0,1-1.562-7.79047,19.59594,19.59594,0,0,1,1.562-7.79048A19.90127,19.90127,0,0,1,15.10581,3.38823a19.60243,19.60243,0,0,1,7.79048-1.562Zm0,37.52706A16.87425,16.87425,0,0,0,29.71051,37.967a17.65219,17.65219,0,0,0,5.5451-3.76832,18.06125,18.06125,0,0,0,3.7488-5.56463,16.88237,16.88237,0,0,0,1.38628-6.81422,16.88453,16.88453,0,0,0-1.38628-6.81423,17.636,17.636,0,0,0-9.2939-9.2939,17.44072,17.44072,0,0,0-13.62845,0,17.636,17.636,0,0,0-9.2939,9.2939,16.87446,16.87446,0,0,0-1.38627,6.81423,16.87231,16.87231,0,0,0,1.38627,6.81422,18.04023,18.04023,0,0,0,3.7488,5.56463,17.63852,17.63852,0,0,0,5.5451,3.76832,16.87223,16.87223,0,0,0,6.81423,1.38628Zm1.2496-18.0411,5.89655,5.89655a1.274,1.274,0,0,1,0,1.75725,1.1837,1.1837,0,0,1-1.75725,0l-6.209-6.1699a.11532.11532,0,0,0-.039-.0781.95911.95911,0,0,1-.29288-.3905,1.30238,1.30238,0,0,1-.09762-.50765V9.32383a1.24964,1.24964,0,0,1,2.4992,0Z"/></svg>