<svg xmlns="http://www.w3.org/2000/svg" width="62" height="65" viewBox="0 0 62 65">
    <g fill="none" fill-rule="evenodd">
        <path fill="#00C9A8" d="M26.94 9.72c-.65-.132-1.032-.575-.915-1.238.118-.739.59-1.21 1.401-1.032.604.132.988.575.944 1.313-.207.662-.634 1.12-1.43.957m-1.712 1.726a50.053 50.053 0 0 0-2.918 5.984c-.103.296-.65.415-.93.577-.972-.28-1.312-.885-1.12-1.74.501-2.122 1.46-4.026 2.787-5.75.354-.457.885-.782 1.519-.457.546.279 1.002.78.662 1.386m20.186 3.818C42.759 4.295 30.684.151 22.884 7.524c-6.899 6.517-6.634 18.696.56 24.904 4.704 4.084 11.06 4.364 16.027.648 4.364-3.272 6.252-7.799 6.487-13.108.163-1.623-.177-3.17-.544-4.704"/>
        <path fill="#E86A7C" d="M49.019 18.813c-.64 8.094-3.782 14.466-11.622 17.616-.292.104-.509.385-.772.594 1.5 1.455.393 3.921 2.11 5.362 2.342 1.961 4.946 2.91 7.957 2.629 6.095-.594 11.01-6.195 11.46-13.07.453-6.626-3.577-12.42-9.133-13.131"/>
        <path fill="#F4A33E" d="M10.353 26.523c-.754 0-1.212-.45-1.168-1.242.044-.807.547-1.167 1.316-1.092.68.076.887.599.917 1.226-.06.659-.429 1.092-1.065 1.108m-1.124 2.6c-.383 1.362-.783 2.737-.843 4.186-.029.959-.192 2.065-1.404 1.915-1.124-.133-1.228-1.212-1.08-2.347.015-1.466.429-3.02.961-4.516.238-.672.725-1.226 1.494-1.046.916.224 1.094 1.017.872 1.809m17.418 7.834c-6.238-2.855-9.343-8.134-10.32-14.787-.561-3.707-.887-3.992-4.509-2.556-.844.344-1.672.763-2.426 1.27C4.63 24.19 2.619 30.977 4.527 37.184c1.907 6.28 7.26 10.735 12.836 10.69 5.13-.045 8.738-2.976 10.498-7.955.62-1.749.43-2.212-1.214-2.96"/>
        <path stroke="#114B47" stroke-width=".5" d="M58.439 32.522C57.98 39.34 52.996 44.89 46.817 45.48c-3.053.28-5.692-.663-8.067-2.607-1.74-1.428-.619-3.871-2.138-5.315.266-.204.487-.485.782-.589 7.948-3.12 11.134-9.437 11.784-17.462 5.633.708 9.717 6.45 9.26 13.016zM43.293 50.794c-1.003-.854-2.86.014-3.275-1.281-.309-.971.871-1.648 1.947-1.751 1.46-.148 1.608 1.089 1.947 1.81.133.795-.28 1.503-.62 1.222zm-19.29-18.713c-7.196-6.2-7.463-18.36-.56-24.868 7.8-7.362 19.88-3.224 22.533 7.73.37 1.53.709 3.076.547 4.696-.236 5.3-2.124 9.822-6.49 13.09-4.97 3.71-11.325 3.429-16.03-.648zm10.132 9.643c-1.255-1.619-3.836 1.663-4.292-1.118-.222-1.369 1.077-2.49 2.67-2.769 1.385.353 2.36 1.105 2.596 2.592.102.751-.709 1.648-.974 1.295zm-6.577-2.369c-1.756 4.902-5.354 7.789-10.472 7.833-5.559.044-10.898-4.344-12.8-10.528-1.903-6.111.103-12.796 4.852-16.05.752-.5 1.578-.911 2.418-1.25 3.614-1.414 3.939-1.134 4.498 2.517.973 6.552 4.07 11.75 10.293 14.562 1.639.736 1.83 1.192 1.21 2.916zm-5.826 12.647c-.605.103-1.135.587-1.593.839-.722-.06-1.106-.412-1.017-.957.163-1.046.339-2.253 1.578-2.533 1.372-.31 2.625.34 2.86 1.68.296 1.574-1.062.824-1.828.97zm29.052-34.866c-1.562-.456-2.05-1.133-2.359-2.592-2.508-11.321-14.334-16.96-23.817-11.35-4.13 2.443-6.725 6.153-7.904 10.732-.414 1.59-1.048 2.077-2.596 2.224-3.142.31-5.943 1.561-8.155 3.858C1.174 24.94-.064 30.8 1.883 37.235c2.005 6.625 6.296 11.012 13.345 12.219 1.283.221 1.873.398 1.446 1.974-.472 1.723.442 3.549 2.124 3.636 2.653.147 2.492 1.767 2.653 3.445.103.913.163 1.827.296 2.723.132.841.31 1.782 1.444 1.65 1.108-.103 1.122-1.031 1.049-1.898-.134-1.4-.222-2.813-.474-4.197-.22-1.223-.235-2.09 1.078-2.887 1.667-.985 2.08-2.856.914-4.313-1.4-1.722-1.002-2.561.694-3.49.487-.265.87-.781 1.194-1.25.678-1.002 1.4-.987 2.521-.634 1.534.485.826 1.501.709 2.193-.502 3.122-.959 6.229-1.106 9.91.294 2.017-.015 4.638 1.223 7.022.399.751.752 1.678 1.785 1.34 1.017-.339.958-1.295.635-2.105-2.243-5.757-.428-11.47.116-17.198.119-1.28 1.15-1.044 1.83-1.28 1.666-.59 2.079 1.28 3.185 1.869.752.413-.222.928-.486 1.34-.811 1.296-1.358 3.034-.148 3.858 2.212 1.532 1.533 3.3 1.268 5.228-.206 1.486-.015 2.973.237 4.446.147.825.426 1.545 1.356 1.458 1.062-.09 1.299-.959 1.135-1.857-.295-1.736-.25-3.444-.014-5.182.178-1.25.457-1.855 1.888-1.958 1.858-.118 2.934-1.516 2.64-3.254-.31-1.825.441-1.987 1.902-2.237 6.724-1.12 12.151-7.687 12.638-15.091.487-7.318-3.524-13.62-10.176-15.58z"/>
    </g>
</svg>
