<svg xmlns="http://www.w3.org/2000/svg" width="71" height="34" viewBox="0 0 71 34">
    <g fill="none" fill-rule="nonzero">
        <path fill="#EB6D7F" d="M70.04 28.589c-.661-.868-1.843-1.008-2.33-1.651a11.113 11.113 0 0 1-.73-2.8C64.93 17.506 58.603 9.502 50.121 7.01c-1.042-.308-5.492-.616-6.117-1.232-1.043-1.063 1.39-3.946 0-5.15-1.39-1.203-5.597-.308-7.3-.308-2.364 0-9.107-1.12-10.776 1.008-.834 1.036.626 2.939-.278 4.03-.904 1.092-3.198 1.288-4.136 1.652a35.84 35.84 0 0 0-7.821 3.526c-3.248 2.346-5.862 5.204-7.683 8.397-.932 1.474-1.499 3.08-1.668 4.73a8.674 8.674 0 0 1-.8 3.387c-.764.98-1.494-.336-2.537 1.147a3.933 3.933 0 0 0 0 3.135c1.773 2.463 10.706 1.931 13.904 2.183 12.722 1.091 26.036 0 38.827 0h11.298c1.355 0 3.928.504 5.005-.308.854-1.463.854-3.155 0-4.618zM38.51 4.77h-8.133c-1.704 0-1.773-.336-.591-1.764a23.978 23.978 0 0 1 9.976.252c-.035.728.278 1.68-1.286 1.512h.034z"/>
        <path fill="#03C8A8" d="M14.284 17.435c-2.467 2.248-4.165 4.972-4.924 7.905-.199.706-.784 1.303-1.592 1.625a3.668 3.668 0 0 1-2.575.033c-.758-.22-.482-.58-.38-.967.834-5.503 4.429-10.494 9.953-13.82 9.402-5.749 26.724-5.058 35.368-1.244 6.692 2.705 11.52 7.675 13.156 13.544.275.94.826 2.515-.241 2.764-1.068.248-1.033-1.438-1.275-2.322-.118-2-.982-3.926-2.48-5.528l-.24-.69s-.345.137-.345.22c-.043.257.167.498.483.553a30.968 30.968 0 0 1 1.412 6.578c0 1.3-.345 1.99-2.239 1.907-14.946-.69-29.892-.359-44.77-.58-2.996 0-3.03-.277-2.513-2.764a38.293 38.293 0 0 1 3.443-7.159c.68-.082 1.18-.554 1.171-1.105.572-.164 1.017-.532 1.206-.995.577-.177 1.038-.537 1.274-.995a33.502 33.502 0 0 0 5.682-2.903c.205.03.415.03.62 0l1.55-.718c-.792-.442-1.343 0-1.929.332a1.874 1.874 0 0 0-.275.414c-2.308.47-4.96.498-5.683 2.958a1.39 1.39 0 0 0-.897.263c-.24.183-.377.438-.377.704-.335 0-.655.108-.889.301-.233.193-.36.453-.35.722-.698-.017-1.289.409-1.344.967zm21.869 8.098h-8.059a4.12 4.12 0 0 0-.86.194c.257.11.536.185.826.221h15.497c.298-.025.59-.09.86-.193a4.36 4.36 0 0 0-.826-.166l-7.438-.056z"/>
        <path fill="#CC4462" d="M37.022 25.89h7.792c.296.02.586.061.865.12-.284.074-.589.122-.902.14H28.545a4.36 4.36 0 0 1-.866-.16c.289-.068.592-.115.902-.14h8.44v.04z"/>
    </g>
</svg>
