<svg width="288" height="1387" viewBox="0 0 288 1387" fill="none" xmlns="http://www.w3.org/2000/svg">
<path opacity="0.3" d="M238.81 144.509C238.81 144.509 77.5 135.009 56.5 46.509C35.5 -41.991 -66.5 23.009 -66.5 23.009L-11.5 1386.51C-11.5 1386.51 78.1318 1384.74 88.5 1343.51C109.5 1260.01 196.5 1304.51 161 1228.51C125.5 1152.51 258.437 1110.32 254.317 1004.7C248.594 857.988 187.688 898.139 187.786 751.109C187.868 629.413 273.827 644.112 287.333 514.367C291.375 447.722 220.463 357.11 254.318 262.459C289.158 165.052 238.81 144.509 238.81 144.509Z" fill="#E8F6F5"/>
</svg>
