<svg xmlns="http://www.w3.org/2000/svg" viewBox="0 0 55.76754 57.02196"><defs><style>.a{fill:#4c2b31;}</style></defs><title>kids-FilterPage03</title><path class="a" d="M28.26884,3.838A24.516,24.516,0,0,1,38.01005,5.7911,24.88455,24.88455,0,0,1,51.31572,19.09676,24.51615,24.51615,0,0,1,53.26884,28.838a24.51074,24.51074,0,0,1-1.95312,9.74121A24.88453,24.88453,0,0,1,38.01005,51.88485,24.51615,24.51615,0,0,1,28.26884,53.838a24.51081,24.51081,0,0,1-9.74121-1.95312A24.88455,24.88455,0,0,1,5.222,38.57918,24.4974,24.4974,0,0,1,3.26884,28.838,24.50281,24.50281,0,0,1,5.222,19.09676,24.88458,24.88458,0,0,1,18.52763,5.7911,24.51064,24.51064,0,0,1,28.26884,3.838Zm0,46.875a21.09961,21.09961,0,0,0,8.52051-1.7334A22.05207,22.05207,0,0,0,48.41044,37.35848a21.80794,21.80794,0,0,0,0-17.041A22.05207,22.05207,0,0,0,36.78935,8.69637,21.11252,21.11252,0,0,0,28.26884,6.963a21.10986,21.10986,0,0,0-8.52051,1.7334A22.05207,22.05207,0,0,0,8.12724,20.31746,21.09978,21.09978,0,0,0,6.39384,28.838a21.09709,21.09709,0,0,0,1.7334,8.52051A22.05207,22.05207,0,0,0,19.74833,48.97957a21.097,21.097,0,0,0,8.52051,1.7334ZM41.40361,33.47664a1.68321,1.68321,0,0,1,.83007.87891,1.34958,1.34958,0,0,1-.04882,1.17188q-.04921.14647-.83008,1.5625A13.57566,13.57566,0,0,1,38.889,40.14168a18.12742,18.12742,0,0,1-4.32129,3.00293,13.75352,13.75352,0,0,1-6.39649,1.36719.21758.21758,0,0,0-.09765.02441.21251.21251,0,0,1-.09766.02442,12.85153,12.85153,0,0,1-6.12793-1.36719,18.08616,18.08616,0,0,1-4.22363-3.00293,14.21173,14.21173,0,0,1-2.46582-3.07617q-.80567-1.43967-.85449-1.53809a1.53154,1.53154,0,0,1-.07325-1.2207,1.55781,1.55781,0,0,1,.8545-.87891,1.54038,1.54038,0,0,1,1.17187-.02441,1.57725,1.57725,0,0,1,.87891.80566q.04806.09843.708,1.24512a11.70106,11.70106,0,0,0,1.97753,2.44141A14.82662,14.82662,0,0,0,23.1663,40.337a10.05561,10.05561,0,0,0,4.8584,1.09863.381.381,0,0,1,.14648-.04883,10.78107,10.78107,0,0,0,5.10254-1.123,14.7719,14.7719,0,0,0,3.4668-2.4414,11.87955,11.87955,0,0,0,1.97754-2.417q.634-1.09863.63476-1.14746a1.39491,1.39491,0,0,1,.8545-.80566,1.60117,1.60117,0,0,1,1.19629.02441ZM20.45634,27.27547a2.97817,2.97817,0,0,1-2.22168-.92773,3.124,3.124,0,0,1,0-4.39453,2.981,2.981,0,0,1,2.22168-.92774,2.927,2.927,0,0,1,2.17285.92774,3.124,3.124,0,0,1,0,4.39453,2.92413,2.92413,0,0,1-2.17285.92773Zm15.625,0a2.97817,2.97817,0,0,1-2.22168-.92773,3.124,3.124,0,0,1,0-4.39453,2.981,2.981,0,0,1,2.22168-.92774,2.927,2.927,0,0,1,2.17285.92774,3.124,3.124,0,0,1,0,4.39453,2.92413,2.92413,0,0,1-2.17285.92773Z"/></svg>