<svg width="12" height="15" viewBox="0 0 12 15" fill="none" xmlns="http://www.w3.org/2000/svg">
<path d="M5.21259 10.3803L5.0023 12.153C4.9919 12.2412 5.02215 12.3297 5.0853 12.396C5.14846 12.4622 5.23896 12.5 5.33368 12.5H6.66702C6.76174 12.5 6.85224 12.4622 6.9154 12.396C6.97855 12.3297 7.00884 12.2412 6.9984 12.153L6.78812 10.3803C7.12959 10.1474 7.33368 9.77907 7.33368 9.37501C7.33368 8.68562 6.73571 8.125 6.00034 8.125C5.26496 8.125 4.66699 8.68562 4.66699 9.37501C4.66699 9.77907 4.87112 10.1474 5.21259 10.3803ZM6.00034 8.75002C6.36784 8.75002 6.66699 9.03048 6.66699 9.37501C6.66699 9.61457 6.5218 9.82911 6.28809 9.93531C6.1608 9.99329 6.08627 10.1196 6.1019 10.2512L6.29462 11.875H5.70609L5.8988 10.2512C5.91443 10.1196 5.8399 9.99329 5.71262 9.93531C5.4789 9.82911 5.33371 9.61457 5.33371 9.37501C5.33368 9.03048 5.63284 8.75002 6.00034 8.75002Z" fill="#979797"/>
<path d="M11.6667 5.625H10.6667V4.37499C10.6667 1.9626 8.57325 0 6 0C3.42675 0 1.33334 1.9626 1.33334 4.37499V5.625H0.333344C0.149094 5.625 0 5.76478 0 5.93751V13.75C0 14.4394 0.597969 15 1.33334 15H10.6667C11.402 15 12 14.4394 12 13.75V5.93751C12 5.76478 11.8509 5.625 11.6667 5.625ZM2 4.37499C2 2.30713 3.79428 0.62499 6 0.62499C8.20572 0.62499 10 2.30713 10 4.37499V5.625H9.33334V4.37499C9.33334 2.65195 7.83791 1.24998 6 1.24998C4.16209 1.24998 2.66666 2.65198 2.66666 4.37499V5.625H2V4.37499ZM8.66666 4.37499V5.625H3.33334V4.37499C3.33334 2.99651 4.52962 1.875 6 1.875C7.47038 1.875 8.66666 2.99651 8.66666 4.37499ZM11.3333 13.75C11.3333 14.0945 11.0342 14.375 10.6667 14.375H1.33334C0.965844 14.375 0.666687 14.0945 0.666687 13.75V6.24999H11.3333V13.75Z" fill="#979797"/>
</svg>