<svg xmlns="http://www.w3.org/2000/svg" xmlns:xlink="http://www.w3.org/1999/xlink" width="63" height="60" viewBox="0 0 63 60">
    <defs>
        <path id="a" d="M0 .46h27.715V41.46H0z"/>
    </defs>
    <g fill="none" fill-rule="evenodd">
        <path fill="#03C8A8" d="M59.162 54.44c-5.446-.602-21.167-.091-26.618-.258-4.203-.131-3.752.922-4.011-4.608-.01-.211-.004-.424-.03-.633-.235-2.01.033-2.769 2.136-2.068 3.4 1.133 6.934 1.738 10.425 2.488 1.418.303 2.868.398 4.59.216-3.916-3.736-8.007-7.231-10.677-12.681 2.304-.18 4.368.664 6.93-.379-4.311-3.312-7.585-7.11-9.667-12.526 1.876.218 3.517.41 5.16.6l.375-.66c-3.451-3.017-6.217-6.612-7.737-11.398 1.55-.608 2.684 1.38 4.725.499C30.672 9.722 28.625 5.098 26.947 0c-1.903 5.002-3.733 9.75-7.93 13.004 1.95.884 3.092-.8 4.806-.631-1.639 4.779-4.077 8.616-8.031 11.437 2 1.492 3.73-.091 5.743.31-2.031 5.25-5.318 9.064-9.645 12.39 2.49 1.064 4.55.217 6.903.438-2.376 4.576-5.45 7.896-8.977 10.736-.595.48-1.89.638-1.374 1.904.37.908 1.319.151 1.982.06 4.964-.677 9.881-1.692 14.712-3.327.721 7.841.708 7.772-5.615 7.885-6.08.108-12.17-.493-18.24.342-.83 1.598-.402 3.4-.602 5.1.44.095.878.273 1.317.273 15.135.014 40.53.02 55.666-.016.824-.003 2.248.66 1.985-1.478-.958-1.2-.35-2.654-.485-3.987"/>
        <g transform="matrix(-1 0 0 1 62.68 11)">
            <mask id="b" fill="#fff">
                <use xlink:href="#a"/>
            </mask>
            <path fill="#FFA840" d="M12.446 41.461c0-3.031.072-1.258.264-5.247.009-.151.004-.305.023-.456.175-1.45-.024-1.996-1.585-1.491C8.623 35.083 6 35.52 3.41 36.06c-1.054.218-2.131.288-3.41.157 2.908-2.696 5.945-5.216 7.928-9.147-1.711-.13-3.244.479-5.147-.275 3.202-2.387 5.632-5.127 7.179-9.032-1.392.156-2.61.294-3.831.43l-.279-.475c2.563-2.176 4.615-4.768 5.744-8.222-1.153-.438-1.992.996-3.508.362 3.037-2.39 4.557-5.722 5.803-9.4C15.3 4.065 16.66 7.49 19.776 9.84c-1.449.637-2.296-.577-3.57-.457 1.217 3.448 3.028 6.216 5.964 8.25-1.485 1.076-2.77-.064-4.264.224 1.507 3.786 3.948 6.536 7.162 8.937-1.85.767-3.381.155-5.127.315 1.765 3.3 4.046 5.695 6.665 7.745.442.344 1.404.458 1.02 1.372-.274.654-.98.109-1.47.044-3.687-.49-7.337-1.222-10.923-2.401-.058.615-.441-2.178-.441 7.593" mask="url(#b)"/>
        </g>
    </g>
</svg>
