<svg xmlns="http://www.w3.org/2000/svg" xmlns:xlink="http://www.w3.org/1999/xlink" width="80" height="44" viewBox="0 0 80 44">
    <defs>
        <path id="a" d="M.246.238h7.95v8.134H.247z"/>
    </defs>
    <g fill="none" fill-rule="evenodd">
        <path fill="#F4A33E" d="M63.308 31.529c-1.754-7.209-3.721-14.231-7.801-20.003-.328-.47-.671-.93-1.022-1.383l-.862-.906-.312-.336c-.214-.297-.504-.469-.191-.867.198-.25.435-.164.648 0 .244.173.648.453.892.625.13.078.244.164.374.242a26.05 26.05 0 0 1 4.21 3.211c4.53 4.248 7.236 9.817 9.112 16.074-1.456 1.484-3.05 2.39-5.048 3.343m-12.392.718c-3.012.08-6.024.016-8.83.016 0-3.913.038-7.256-.016-10.591-.038-2.757-.518-5.413-2.143-7.733-4.003-5.702-11.293-5.373-14.717.711-2.257 4.022-2.814 8.561-3.432 13.052-.122.882-.152 1.78-.244 2.85-3.31.313-6.299-.859-9.768-1.14 2.623-9.161 6.68-16.745 14.473-21.644 9.44-5.936 18.111-4.905 24.593 2.726a30.24 30.24 0 0 1 2.738 3.82c3.294 5.444 5.323 11.42 6.81 17.84-3.241.835-6.368.008-9.464.093m19.987-5.49c-.907-3.523-2.425-6.812-4.27-9.952a31.697 31.697 0 0 0-2.623-3.78 32.142 32.142 0 0 0-4.294-4.405 33.34 33.34 0 0 0-1.86-1.452 32.557 32.557 0 0 0-5.293-3.156C39.447-2.19 22.563.63 13.207 17.704c-2.349 4.273-4.004 8.818-4.835 13.669.198.257.282.375.48.632.954.055 1.922.04 2.853.227 16.738 3.335 33.698 2.85 50.62 3.187l1.852-.258.168-.055c1.258-.422 2.31-1.28 3.15-2.327 1.342-1.664 3.355-2.336 5.887-1.93.038-.359.076-.718.106-1.078-1.319-.585-2.173-1.429-2.585-3.014"/>
        <path stroke="#050607" stroke-width=".5" d="M63.308 31.529c-1.754-7.209-3.721-14.231-7.801-20.003-.328-.47-.671-.93-1.022-1.383l-.862-.906-.312-.336c-.214-.297-.504-.469-.191-.867.198-.25.435-.164.648 0 .244.173.648.453.892.625.13.078.244.164.374.242a26.05 26.05 0 0 1 4.21 3.211c4.53 4.248 7.236 9.817 9.112 16.074-1.456 1.484-3.05 2.39-5.048 3.343zm-12.392.718c-3.012.08-6.024.016-8.83.016 0-3.913.038-7.256-.016-10.591-.038-2.757-.518-5.413-2.143-7.733-4.003-5.702-11.293-5.373-14.717.711-2.257 4.022-2.814 8.561-3.432 13.052-.122.882-.152 1.78-.244 2.85-3.31.313-6.299-.859-9.768-1.14 2.623-9.161 6.68-16.745 14.473-21.644 9.44-5.936 18.111-4.905 24.593 2.726a30.24 30.24 0 0 1 2.738 3.82c3.294 5.444 5.323 11.42 6.81 17.84-3.241.835-6.368.008-9.464.093zm19.987-5.49c-.907-3.523-2.425-6.812-4.27-9.952a31.697 31.697 0 0 0-2.623-3.78 32.142 32.142 0 0 0-4.294-4.405 33.34 33.34 0 0 0-1.86-1.452 32.557 32.557 0 0 0-5.293-3.156C39.447-2.19 22.563.63 13.207 17.704c-2.349 4.273-4.004 8.818-4.835 13.669.198.257.282.375.48.632.954.055 1.922.04 2.853.227 16.738 3.335 33.698 2.85 50.62 3.187l1.852-.258.168-.055c1.258-.422 2.31-1.28 3.15-2.327 1.342-1.664 3.355-2.336 5.887-1.93.038-.359.076-.718.106-1.078-1.319-.585-2.173-1.429-2.585-3.014z"/>
        <path fill="#00C9A8" d="M39.305 32.628l-14.173-.84c-.146-4.901.705-9.463 2.43-13.842 1.375-3.49 3.691-5.128 6.325-4.815 2.888.342 5.628 3.331 5.92 6.931.328 4.051.285 8.126-.502 12.566"/>
        <path stroke="#050607" stroke-width=".5" d="M39.305 32.628l-14.173-.84c-.146-4.901.705-9.463 2.43-13.842 1.375-3.49 3.691-5.128 6.325-4.815 2.888.342 5.628 3.331 5.92 6.931.328 4.051.285 8.126-.502 12.566z"/>
        <path fill="#00C9A8" d="M9.091 31.773l.211 1.206-4.543 2.498c-.694 1.17 1.157 3.76-2.204 3.66C1.123 37.08.994 34.397 0 32.092c.568-.97 1.418-1.233 2.394-1.325 1.14.664.74 2.186 1.738 3.036 1.814-.17 3.197-1.58 4.96-2.03"/>
        <path fill="#42423F" d="M9.062 30.968c-.848.236-1.595.695-2.353 1.123-.752.432-1.562.846-2.471.939l-.047.004-.04-.032c-.495-.398-.686-1.014-.848-1.548-.086-.272-.174-.536-.307-.768a1.46 1.46 0 0 0-.547-.546l.099.022c-.453.043-.899.127-1.284.323a2.205 2.205 0 0 0-.913.876l.009-.156c.498 1.128.776 2.314 1.102 3.466.316 1.152.69 2.297 1.371 3.267l-.139-.074c.405-.006.828 0 1.185-.14.361-.125.617-.396.67-.777.064-.373.02-.784-.005-1.199-.019-.41-.053-.867.182-1.29l.017-.029.032-.016c1.485-.785 2.98-1.554 4.48-2.314l-.016.03-.177-1.161zm0 0l.236 1.151.004.02-.019.01a295.99 295.99 0 0 1-4.382 2.486l.049-.048c-.171.323-.146.738-.111 1.14.032.407.1.829.032 1.275-.043.459-.428.891-.87 1.031-.437.171-.883.164-1.318.174l-.085.002-.054-.075c-.729-1.02-1.123-2.204-1.453-3.364-.324-1.165-.585-2.338-1.056-3.428L0 31.262l.045-.075a2.554 2.554 0 0 1 1.064-.998c.447-.222.936-.306 1.408-.346l.053-.006.045.027c.279.16.505.406.65.679.147.272.23.558.309.834.149.55.308 1.095.729 1.453l-.087-.026c.853-.066 1.655-.437 2.43-.825.776-.39 1.557-.818 2.416-1.011z"/>
        <path fill="#00C9A8" d="M67.015 35.419c.786 1.029 1.837-.682 2.752.953-.414 2.3-1.219 4.9-2.303 7.419l-1.977-.566c1.337-3.55-1.198-5.253-3.161-7.229l1.869-.259c.583.65.984 1.533 2.15 1.739"/>
        <g transform="translate(62.326 35.419)">
            <mask id="b" fill="#fff">
                <use xlink:href="#a"/>
            </mask>
            <path fill="#42423F" d="M5.292.238a.838.838 0 0 0 .695.31c.264-.009.519-.096.788-.14.265-.05.57-.046.823.099.252.142.424.365.58.586l.019.025-.007.038C7.757 3.6 6.954 5.97 5.916 8.234l-.063.138-.152-.04-2.02-.524-.206-.053.077-.199c.239-.617.398-1.267.361-1.915-.03-.649-.266-1.276-.631-1.832C2.538 2.695 1.422 1.836.425.87L.245.694l.25-.027 1.91-.209.045-.005.027.03c.32.354.57.745.905 1.064.329.324.76.548 1.227.638a2.434 2.434 0 0 1-1.283-.578c-.364-.308-.644-.692-.97-1.012l.07.024L.527.9.596.7c1.012.925 2.18 1.742 2.98 2.928.397.587.667 1.278.709 1.992.047.715-.115 1.421-.369 2.076l-.13-.252 2.013.546-.217.098c.527-1.115.988-2.26 1.399-3.42.416-1.16.765-2.342 1.025-3.544l.011.062c-.133-.212-.279-.426-.49-.56-.21-.137-.478-.16-.738-.127-.262.028-.526.101-.802.096a.863.863 0 0 1-.694-.356" mask="url(#b)"/>
        </g>
        <path fill="#00C9A8" d="M73.488 31.24l.105-1.147c1.981-.613 1.677-2.805 2.306-4.314.849-2.033 1.773-1.903 3.17-.364l-2.687 6.954c-1.395.68-2.194-.077-2.894-1.13"/>
        <path fill="#42423F" d="M74.419 31.195c.337.47.726.935 1.225 1.14.498.212 1.04.086 1.516-.156l-.054.062c.81-2.268 1.668-4.513 2.517-6.762l.04.223a5.852 5.852 0 0 0-.79-.752c-.28-.206-.592-.371-.883-.312-.295.036-.542.315-.739.614-.194.308-.36.665-.487 1.019-.25.723-.336 1.542-.624 2.305-.142.38-.347.745-.634 1.011-.284.27-.628.436-.977.538l.025-.035-.135 1.105zm0 0l.065-1.113.002-.025.024-.01a2.29 2.29 0 0 0 .896-.583c.246-.27.422-.61.544-.974.248-.734.302-1.542.54-2.333.124-.399.297-.757.508-1.11.214-.332.506-.699.939-.773.429-.084.811.133 1.122.354.315.23.59.506.852.788l.089.095-.05.128c-.874 2.236-1.738 4.479-2.651 6.696l-.018.045-.037.017c-.508.242-1.125.341-1.645.061-.518-.265-.873-.767-1.18-1.263z"/>
    </g>
</svg>
