<svg width="497" height="468" viewBox="0 0 497 468" fill="none" xmlns="http://www.w3.org/2000/svg">
<path opacity="0.3" d="M127.243 142.223C127.243 142.223 279.853 18.9 344.374 70.952C408.896 123.004 351.353 172.768 380.41 175.17C409.468 177.573 470.443 127.237 493.323 185.81C516.203 244.382 407.523 308.332 426.17 312.107C444.817 315.997 476.849 307.188 475.82 328.695C474.79 350.202 380.982 431.198 320.693 422.389C260.405 413.58 350.666 359.469 314.973 363.13C279.281 366.79 214.759 445.726 169.228 393.56C123.697 341.394 218.42 253.763 177.808 264.86C111.113 282.706 36.1805 222.189 127.243 142.223Z" fill="#ACF4E9"/>
<path opacity="0.3" d="M349.408 384.98C349.408 384.98 174.262 473.525 122.21 409.004C70.1577 344.482 136.739 307.988 108.825 299.523C80.9113 291.057 10.6697 327.436 0.60252 265.432C-9.46468 203.427 110.198 163.73 92.8089 156.065C75.4201 148.4 42.1297 150.231 47.7353 129.41C53.3409 108.589 162.021 49.1012 218.992 70.494C275.963 91.8868 176.435 125.635 212.014 129.639C247.592 133.643 327.329 69.922 360.848 130.554C394.367 191.186 283.285 256.852 325.384 254.678C394.711 251.017 455.228 325.835 349.408 384.98Z" fill="#ACF4E9"/>
<path opacity="0.5" d="M367.026 304.671C367.026 304.671 298.5 391.844 256.401 371.252C214.302 350.66 239.699 316.111 223.454 318.399C207.209 320.687 179.867 356.151 159.847 326.75C139.827 297.35 191.65 248.501 180.897 248.73C170.143 248.958 153.555 257.882 151.382 245.87C149.208 233.858 190.735 177.458 225.055 174.713C259.375 171.967 216.475 213.151 235.695 206.63C254.914 200.224 280.539 148.515 312.228 171.51C343.917 194.504 302.733 254.678 323.783 243.582C358.217 225.163 407.066 249.073 367.026 304.671Z" fill="#ACF4E9"/>
<path d="M61.5773 82.1628C61.5773 82.1628 174.833 81.1332 177.579 80.218C180.21 79.3028 157.101 77.358 149.436 72.0956C141.772 66.8332 144.288 50.0164 131.704 50.1308C119.12 50.2452 117.404 64.0876 112.828 58.9396C108.138 53.6772 103.448 42.9236 89.8341 47.9572C76.2205 52.8764 81.3685 78.2732 72.5597 77.0148C63.5221 75.5276 28.5157 82.506 61.5773 82.1628Z" fill="#FAE3C7"/>
<path d="M362.45 83.8793C362.45 83.8793 460.376 83.0785 462.779 82.2777C465.067 81.4769 445.047 79.7609 438.412 75.1849C431.776 70.6089 433.95 56.0801 423.082 56.1945C412.214 56.3089 406.494 73.6977 402.49 69.1217C398.486 64.6601 398.6 49.9025 386.817 54.1353C375.034 58.3681 379.496 80.3329 371.831 79.1889C364.166 78.1593 333.85 84.1081 362.45 83.8793Z" fill="#FAE3C7"/>
<path d="M225.971 30.5688C225.971 30.5688 326.528 29.8824 322.524 24.62C321.037 22.7896 305.365 23.0184 298.729 18.9C292.094 14.7816 293.581 0.71041 283.171 1.28241C272.76 1.85441 267.956 18.9 263.952 14.6672C259.948 10.4344 259.376 -3.75119 248.164 0.93921C236.953 5.62961 242.216 26.5648 234.78 25.764C227.344 24.9632 198.515 32.056 225.971 30.5688Z" fill="#FAE3C7"/>
<path d="M238.097 318.399C238.097 318.399 204.349 401.339 220.136 404.771C231.462 407.173 246.677 413.351 265.438 403.169C273.904 398.479 243.359 298.951 238.097 318.399Z" fill="#124C47"/>
<path d="M241.529 341.05C241.529 341.05 241.529 418.842 241.529 420.444C241.529 421.931 239.813 421.588 239.813 421.588C239.813 421.588 239.584 328.81 241.529 341.05Z" fill="#3D284C"/>
<path d="M230.889 371.48L240.613 384.522C242.101 383.95 252.282 371.023 252.168 372.396C252.168 373.196 242.673 386.581 240.27 386.581C239.241 386.696 227.343 367.934 230.889 371.48Z" fill="#3D284C"/>
<path d="M230.89 388.755L240.614 401.796C242.101 401.224 252.282 388.297 252.168 389.67C252.168 390.471 242.673 403.856 240.27 403.856C239.126 403.97 227.343 385.208 230.89 388.755Z" fill="#3D284C"/>
<path d="M230.89 353.52L240.614 366.561C242.101 365.989 252.282 353.062 252.168 354.435C252.168 355.236 242.673 368.62 240.27 368.62C239.012 368.62 227.343 349.859 230.89 353.52Z" fill="#3D284C"/>
<path d="M269.672 342.194C269.672 342.194 241.529 411.406 254.685 414.152C264.18 416.211 276.879 421.245 292.437 412.779C299.53 409.004 274.019 325.95 269.672 342.194Z" fill="#03C8A8"/>
<path d="M272.532 360.956C272.532 360.956 272.532 425.821 272.532 427.079C272.532 428.337 271.159 427.994 271.159 427.994C271.159 427.994 270.93 350.774 272.532 360.956Z" fill="#3D284C"/>
<path d="M263.609 386.467L271.731 397.335C272.99 396.878 281.455 386.01 281.341 387.268C281.341 387.955 273.447 399.051 271.388 399.051C270.702 399.166 260.634 383.493 263.609 386.467Z" fill="#3D284C"/>
<path d="M263.609 400.882L271.731 411.75C272.99 411.292 281.455 400.424 281.341 401.683C281.341 402.369 273.447 413.466 271.388 413.466C270.587 413.466 260.634 397.793 263.609 400.882Z" fill="#3D284C"/>
<path d="M263.608 371.481L271.73 382.349C272.989 381.891 281.454 371.023 281.34 372.282C281.34 372.968 273.446 384.065 271.387 384.065C270.472 384.065 260.634 368.392 263.608 371.481Z" fill="#3D284C"/>
<path d="M418.62 302.04C418.62 302.04 384.987 385.095 400.774 388.412C412.099 390.815 427.315 396.878 446.076 386.696C454.656 382.235 423.883 282.707 418.62 302.04Z" fill="#124C47"/>
<path d="M422.053 324.691C422.053 324.691 422.167 402.483 422.167 404.085C422.167 405.572 420.451 405.229 420.451 405.229C420.451 405.229 420.108 312.451 422.053 324.691Z" fill="#3D284C"/>
<path d="M411.527 355.236L421.251 368.278C422.738 367.706 432.92 354.779 432.805 356.151C432.805 356.952 423.31 370.337 420.908 370.337C419.993 370.451 407.981 351.69 411.527 355.236Z" fill="#3D284C"/>
<path d="M411.527 372.511L421.251 385.552C422.738 384.98 432.92 372.053 432.805 373.426C432.805 374.227 423.31 387.612 420.908 387.612C419.878 387.612 407.981 368.85 411.527 372.511Z" fill="#3D284C"/>
<path d="M411.527 337.161L421.251 350.203C422.739 349.631 432.92 336.703 432.806 338.076C432.806 338.877 423.311 352.262 420.908 352.262C419.65 352.376 407.867 333.615 411.527 337.161Z" fill="#3D284C"/>
<path d="M388.19 349.631C388.19 349.631 360.048 418.843 373.204 421.588C382.699 423.647 395.397 428.681 410.956 420.215C418.163 416.555 392.652 333.5 388.19 349.631Z" fill="#03C8A8"/>
<path d="M391.05 368.507C391.05 368.507 391.05 433.371 391.05 434.63C391.05 435.888 389.677 435.545 389.677 435.545C389.677 435.545 389.448 358.325 391.05 368.507Z" fill="#3D284C"/>
<path d="M382.242 394.018L390.364 404.886C391.622 404.428 400.088 393.56 399.974 394.818C399.974 395.505 392.08 406.602 390.021 406.602C389.22 406.602 379.267 391.043 382.242 394.018Z" fill="#3D284C"/>
<path d="M382.242 408.318L390.364 419.186C391.623 418.728 400.088 407.86 399.974 409.119C399.974 409.805 392.08 420.902 390.021 420.902C389.106 421.016 379.267 405.344 382.242 408.318Z" fill="#3D284C"/>
<path d="M382.241 378.917L390.363 389.785C391.622 389.327 400.087 378.459 399.973 379.718C399.973 380.404 392.079 391.501 390.02 391.501C388.991 391.615 379.267 375.943 382.241 378.917Z" fill="#3D284C"/>
<path d="M464.609 331.555C464.609 331.555 430.861 414.495 446.649 417.927C457.974 420.329 473.189 426.507 491.951 416.325C500.417 411.749 469.872 312.221 464.609 331.555Z" fill="#FFA840"/>
<path d="M468.042 354.206C468.042 354.206 468.042 431.998 468.042 433.6C468.042 435.201 466.326 434.744 466.326 434.744C466.326 434.744 466.097 341.965 468.042 354.206Z" fill="#3D284C"/>
<path d="M457.402 384.751L467.126 397.793C468.613 397.221 478.795 384.293 478.68 385.666C478.68 386.467 469.185 399.852 466.783 399.852C465.868 399.852 453.856 381.09 457.402 384.751Z" fill="#3D284C"/>
<path d="M457.402 401.911L467.126 414.953C468.613 414.381 478.795 401.453 478.681 402.826C478.681 403.627 469.185 417.012 466.783 417.012C465.639 417.126 453.856 398.365 457.402 401.911Z" fill="#3D284C"/>
<path d="M457.402 366.676L467.126 379.717C468.614 379.145 478.795 366.218 478.681 367.591C478.681 368.392 469.186 381.776 466.783 381.776C465.525 381.891 453.856 363.129 457.402 366.676Z" fill="#3D284C"/>
<path d="M96.0117 328.466C96.0117 328.466 62.3781 411.521 78.1653 414.838C89.4909 417.241 104.706 423.304 123.468 413.122C132.048 408.546 101.274 309.018 96.0117 328.466Z" fill="#124C47"/>
<path d="M99.4433 351.003C99.4433 351.003 99.5577 428.795 99.5577 430.397C99.5577 431.884 97.8417 431.541 97.8417 431.541C97.8417 431.541 97.4985 338.763 99.4433 351.003Z" fill="#3D284C"/>
<path d="M88.9186 381.548L98.6426 394.589C100.13 394.017 110.311 381.09 110.197 382.463C110.197 383.264 100.702 396.649 98.2994 396.649C97.3842 396.763 85.3722 378.001 88.9186 381.548Z" fill="#3D284C"/>
<path d="M88.9187 398.822L98.6427 411.864C100.13 411.292 110.311 398.365 110.197 399.737C110.197 400.538 100.702 413.923 98.2995 413.923C97.2699 413.923 85.3723 395.161 88.9187 398.822Z" fill="#3D284C"/>
<path d="M88.919 363.473L98.643 376.514C100.13 375.942 110.312 363.015 110.197 364.388C110.197 365.189 100.702 378.573 98.2998 378.573C97.0414 378.688 85.2582 359.926 88.919 363.473Z" fill="#3D284C"/>
<path d="M51.9685 317.941C51.9685 317.941 23.8261 387.153 36.9821 389.899C46.4773 391.958 59.1757 396.992 74.7341 388.526C81.8269 384.751 56.4301 301.697 51.9685 317.941Z" fill="#03C8A8"/>
<path d="M54.8284 336.703C54.8284 336.703 54.8284 401.568 54.8284 402.827C54.8284 404.085 53.4556 403.742 53.4556 403.742C53.4556 403.742 53.2268 326.522 54.8284 336.703Z" fill="#3D284C"/>
<path d="M46.0199 362.214L54.1423 373.082C55.4007 372.625 63.8663 361.757 63.7519 363.015C63.7519 363.702 55.8583 374.798 53.7991 374.798C52.9983 374.798 43.0455 359.24 46.0199 362.214Z" fill="#3D284C"/>
<path d="M46.0201 376.514L54.1425 387.382C55.4009 386.925 63.8665 376.057 63.7521 377.315C63.7521 378.001 55.8585 389.098 53.7993 389.098C52.8841 389.213 43.0457 373.54 46.0201 376.514Z" fill="#3D284C"/>
<path d="M46.0194 347.114L54.1418 357.982C55.4002 357.524 63.8657 346.656 63.7513 347.915C63.7513 348.601 55.8578 359.698 53.7986 359.698C52.769 359.812 43.045 344.139 46.0194 347.114Z" fill="#3D284C"/>
<path d="M25.3126 341.394C25.3126 341.394 -8.43541 424.334 7.35179 427.766C18.6774 430.168 33.8926 436.346 52.6542 426.164C61.1198 421.474 30.575 321.946 25.3126 341.394Z" fill="#FFA840"/>
<path d="M28.7448 363.93C28.7448 363.93 28.7448 441.722 28.7448 443.324C28.7448 444.811 27.0288 444.468 27.0288 444.468C27.0288 444.468 26.8 351.689 28.7448 363.93Z" fill="#3D284C"/>
<path d="M18.1052 394.476L27.8292 407.517C29.3164 406.945 39.498 394.018 39.3836 395.391C39.3836 396.192 29.8884 409.576 27.486 409.576C26.4564 409.691 14.5588 390.929 18.1052 394.476Z" fill="#3D284C"/>
<path d="M18.1053 411.75L27.8293 424.791C29.3165 424.219 39.4981 411.292 39.3837 412.665C39.3837 413.466 29.8885 426.85 27.4861 426.85C26.3421 426.85 14.5589 408.089 18.1053 411.75Z" fill="#3D284C"/>
<path d="M18.1055 376.4L27.8295 389.442C29.3167 388.87 39.4983 375.943 39.3839 377.315C39.3839 378.116 29.8887 391.501 27.4863 391.501C26.2279 391.615 14.5591 372.854 18.1055 376.4Z" fill="#3D284C"/>
<path d="M330.418 226.879C330.418 226.879 387.046 220.13 391.393 212.922C395.741 205.715 391.393 97.4929 375.149 95.6625C358.904 93.8321 329.045 93.0313 317.834 102.526C306.623 112.022 317.033 228.71 330.418 226.879Z" fill="#D2373A"/>
<path d="M388.533 134.558C388.533 134.558 316.576 143.138 310.97 152.29C305.364 161.442 310.741 300.324 331.333 302.726C351.925 305.129 390.02 306.158 404.32 293.917C418.62 281.791 405.579 132.27 388.533 134.558Z" fill="#F05757"/>
<path d="M415.302 173.226C415.302 173.226 415.989 167.048 390.363 168.993C388.647 169.107 396.998 242.209 396.998 242.209C396.998 242.209 417.819 243.811 419.535 239.921C421.137 236.031 415.302 173.226 415.302 173.226Z" fill="#D2373A"/>
<path d="M294.153 311.421C294.153 311.421 290.607 382.006 305.479 460.713C305.479 460.713 298.843 464.946 296.784 464.946C294.725 464.946 313.83 462.772 313.83 462.772C313.83 462.772 316.347 433.714 315.546 386.01C315.431 377.086 330.189 323.318 330.189 323.318C330.189 323.318 333.278 370.337 334.765 379.718C336.824 392.187 351.811 459.683 351.811 459.683C351.811 459.683 335.223 465.06 338.998 465.06C342.773 465.06 359.59 465.06 359.59 465.06C359.59 465.06 362.679 425.592 357.874 388.87C356.387 377.544 367.598 307.417 367.598 307.417C367.598 307.417 310.627 301.926 294.153 311.421Z" fill="#E68684"/>
<path d="M360.62 439.435C360.62 439.435 348.493 439.549 346.32 439.778L350.553 459.111C350.553 459.111 341.858 462.086 340.257 462.429C338.655 462.772 335.566 464.259 334.994 465.175C334.422 466.09 361.649 465.175 361.649 465.175L360.62 439.435Z" fill="#F05757"/>
<path d="M361.535 464.145C361.535 464.145 349.981 463.916 344.375 464.145C338.769 464.373 336.024 464.373 336.024 464.373C336.024 464.373 334.193 464.717 334.193 466.776C334.193 466.776 360.963 467.805 361.535 467.348C362.107 466.776 361.535 464.145 361.535 464.145Z" fill="#3D284C"/>
<path d="M351.01 446.756C351.01 446.756 345.976 446.985 347.12 447.785C348.15 448.701 352.383 447.785 351.01 446.756Z" fill="#3D284C"/>
<path d="M351.582 449.272C351.582 449.272 346.663 449.959 347.807 450.76C348.951 451.561 353.07 450.188 351.582 449.272Z" fill="#3D284C"/>
<path d="M352.154 452.591C352.154 452.591 347.235 453.163 348.379 453.964C349.408 454.764 353.641 453.392 352.154 452.591Z" fill="#3D284C"/>
<path d="M352.726 455.679C352.726 455.679 347.692 455.908 348.836 456.823C349.866 457.624 354.099 456.709 352.726 455.679Z" fill="#3D284C"/>
<path d="M352.269 458.997C352.269 458.997 347.35 458.082 348.265 459.111C349.066 460.255 353.413 460.255 352.269 458.997Z" fill="#3D284C"/>
<path d="M360.848 443.896H347.235L346.319 439.778C346.319 439.778 360.734 439.091 360.619 439.434C360.505 439.778 360.848 443.896 360.848 443.896Z" fill="#3D284C"/>
<path d="M315.203 439.435C315.203 439.435 303.076 439.549 300.903 439.778L305.136 459.111C305.136 459.111 296.441 462.086 294.84 462.429C293.238 462.772 290.149 464.259 289.577 465.175C289.005 466.09 316.232 465.175 316.232 465.175L315.203 439.435Z" fill="#F05757"/>
<path d="M316.118 464.145C316.118 464.145 304.564 463.916 298.958 464.145C293.352 464.373 290.607 464.373 290.607 464.373C290.607 464.373 288.776 464.717 288.776 466.776C288.776 466.776 315.546 467.805 316.118 467.348C316.69 466.89 316.118 464.145 316.118 464.145Z" fill="#3D284C"/>
<path d="M305.593 446.756C305.593 446.756 300.559 446.985 301.703 447.785C302.733 448.701 306.966 447.785 305.593 446.756Z" fill="#3D284C"/>
<path d="M306.166 449.272C306.166 449.272 301.246 449.959 302.39 450.76C303.534 451.561 307.653 450.188 306.166 449.272Z" fill="#3D284C"/>
<path d="M306.737 452.591C306.737 452.591 301.818 453.163 302.962 453.964C303.991 454.764 308.224 453.392 306.737 452.591Z" fill="#3D284C"/>
<path d="M307.309 455.679C307.309 455.679 302.275 455.908 303.419 456.823C304.449 457.624 308.682 456.709 307.309 455.679Z" fill="#3D284C"/>
<path d="M306.852 458.997C306.852 458.997 301.933 458.082 302.848 459.111C303.649 460.255 307.996 460.255 306.852 458.997Z" fill="#3D284C"/>
<path d="M315.431 443.896H301.818L300.902 439.778C300.902 439.778 315.317 439.091 315.202 439.434C315.088 439.778 315.431 443.896 315.431 443.896Z" fill="#3D284C"/>
<path d="M293.695 343.339C293.695 343.339 310.741 346.427 324.469 343.911L326.757 335.331C326.757 335.331 299.415 332.013 293.81 333.729L293.695 343.339Z" fill="#3D284C"/>
<path d="M331.447 342.767C331.447 342.767 351.353 344.368 362.335 342.767C362.335 342.767 364.051 335.559 364.395 334.072H330.875C330.761 334.187 331.219 340.593 331.447 342.767Z" fill="#3D284C"/>
<path d="M307.767 384.637C307.767 384.637 307.538 393.903 302.962 394.017C298.386 394.132 296.899 382.921 298.386 383.836C299.873 384.751 300.216 393.217 302.39 392.187C304.564 391.272 306.165 387.268 306.737 384.408C307.195 381.548 307.767 384.637 307.767 384.637Z" fill="#F05757"/>
<path d="M349.294 385.895C349.294 385.895 349.065 395.162 344.489 395.276C339.913 395.391 338.426 384.179 339.913 385.095C341.401 386.01 341.744 394.475 343.917 393.446C346.091 392.53 347.693 388.527 348.265 385.667C348.722 382.692 349.294 385.895 349.294 385.895Z" fill="#F05757"/>
<path d="M366.225 187.297C366.225 187.297 439.441 246.785 422.167 249.53C401.231 252.848 410.955 253.992 410.955 253.992C410.955 253.992 350.781 204.571 349.751 192.216C348.493 179.746 366.225 187.297 366.225 187.297Z" fill="#E68684"/>
<path d="M349.065 143.711C349.065 143.711 347.921 177.344 350.896 182.607C353.87 187.983 325.27 212.351 328.245 186.153C328.931 179.518 331.333 162.243 332.249 147.715C332.249 147.829 349.637 137.991 349.065 143.711Z" fill="#E68684"/>
<path d="M310.741 131.127C310.741 131.127 312.228 166.019 325.728 165.561C339.227 165.218 355.357 122.547 337.854 119.229C320.351 116.026 309.597 118.314 310.741 131.127Z" fill="#E68684"/>
<path d="M349.065 181.119C349.065 181.119 345.633 198.622 332.706 195.419C327.901 194.275 328.702 182.606 328.702 182.606C328.702 182.606 309.597 180.433 301.703 205.486C294.725 227.794 285.916 333.271 285.916 333.271C285.916 333.271 364.394 338.762 377.322 333.271C377.322 333.271 377.894 212.922 374.004 196.22C371.83 187.297 349.065 181.119 349.065 181.119Z" fill="#70CACD"/>
<path d="M379.839 226.879C379.839 226.879 397.8 219.214 396.77 212.35C395.74 205.486 375.377 187.411 358.217 181.119C358.217 181.119 357.416 200.453 358.217 203.77C358.904 206.974 368.17 222.532 379.839 226.879Z" fill="#70CACD"/>
<path d="M299.988 226.879C299.988 226.879 282.027 219.214 283.056 212.35C284.086 205.486 303.877 189.813 321.037 183.636C321.037 183.636 322.41 200.453 321.609 203.77C320.923 206.973 311.656 222.532 299.988 226.879Z" fill="#70CACD"/>
<path d="M326.414 155.15C326.414 155.15 326.871 158.125 325.041 157.896C323.325 157.782 322.867 155.379 322.41 155.379C321.723 155.265 323.21 159.155 325.727 158.697C327.786 158.239 326.642 153.434 326.414 155.15Z" fill="#F4EFD7"/>
<path d="M323.21 139.936C323.21 139.936 327.786 151.948 323.668 153.778C319.664 155.723 322.982 150.918 323.21 139.936Z" fill="#F05757"/>
<path d="M314.402 142.566C314.402 142.566 315.089 139.821 317.834 140.05C320.008 140.278 320.694 142.223 320.008 142.452C319.322 142.681 318.063 141.651 316.69 142.223C315.775 142.566 314.402 144.054 314.402 142.566Z" fill="#F4EFD7"/>
<path d="M328.473 140.393C328.473 140.393 329.617 137.762 332.363 138.448C334.422 139.02 334.88 141.079 334.079 141.194C333.392 141.308 332.248 140.05 330.876 140.393C329.846 140.622 328.244 141.995 328.473 140.393Z" fill="#F4EFD7"/>
<path d="M319.664 148.057C320.485 148.057 321.151 147.392 321.151 146.57C321.151 145.749 320.485 145.083 319.664 145.083C318.843 145.083 318.177 145.749 318.177 146.57C318.177 147.392 318.843 148.057 319.664 148.057Z" fill="#3D284C"/>
<path d="M330.646 148.057C331.468 148.057 332.134 147.392 332.134 146.57C332.134 145.749 331.468 145.083 330.646 145.083C329.825 145.083 329.159 145.749 329.159 146.57C329.159 147.392 329.825 148.057 330.646 148.057Z" fill="#3D284C"/>
<path d="M316.69 153.892C317.954 153.892 318.978 152.868 318.978 151.604C318.978 150.341 317.954 149.316 316.69 149.316C315.427 149.316 314.402 150.341 314.402 151.604C314.402 152.868 315.427 153.892 316.69 153.892Z" fill="#E57373"/>
<path d="M334.422 153.892C335.685 153.892 336.71 152.868 336.71 151.604C336.71 150.341 335.685 149.316 334.422 149.316C333.158 149.316 332.134 150.341 332.134 151.604C332.134 152.868 333.158 153.892 334.422 153.892Z" fill="#E57373"/>
<path d="M330.647 163.845C330.647 163.845 339.685 159.383 340.485 156.752C341.286 154.121 344.146 161.9 343.689 164.646C341.629 175.171 329.16 176.887 329.503 175.857C329.617 175.399 330.647 166.133 330.647 163.845Z" fill="#3D284C"/>
<path d="M377.093 284.651C377.093 284.651 357.188 287.283 353.069 287.855C348.951 288.427 334.765 282.935 328.016 285.109C309.597 291.058 299.301 286.939 291.064 283.736L291.751 272.868H377.208V284.651H377.093Z" fill="#3D284C"/>
<path d="M356.845 173.684C356.845 173.684 345.977 229.282 356.73 249.188C366.454 267.034 377.322 277.902 377.322 277.902L380.411 266.462C380.411 266.462 362.107 249.645 361.993 233.172C361.993 212.236 364.853 175.4 364.853 175.4L356.845 173.684Z" fill="#D2373A"/>
<path d="M313.029 187.526C313.029 187.526 314.63 210.749 307.309 234.658C302.504 250.446 293.123 259.254 293.123 259.254L291.407 272.067C291.407 272.067 302.275 260.398 312.914 243.124C323.554 225.85 323.439 182.721 323.439 182.721C323.439 182.721 317.834 182.721 313.029 187.526Z" fill="#D2373A"/>
<path d="M271.959 203.084L295.869 213.838L324.011 209.147L346.777 213.838L381.097 208.461L384.071 275.614L355.929 279.846L328.015 275.614L304.678 281.448L284.772 268.292L268.527 267.148L271.959 203.084Z" fill="#F4EFD7"/>
<path d="M269.443 231.798C269.443 231.798 271.616 225.277 279.281 222.646C282.256 221.617 278.137 230.769 270.587 238.09C266.697 241.98 269.443 231.798 269.443 231.798Z" fill="#E68684"/>
<path d="M376.064 235.23C376.064 235.23 369.772 223.333 365.424 225.277C362.564 226.536 369.772 238.205 372.86 241.408C383.042 252.276 422.739 267.834 424.455 248.043C425.599 234.773 383.042 244.725 376.064 235.23Z" fill="#E68684"/>
<path d="M310.055 139.935C314.974 134.444 324.698 113.28 325.384 120.144C326.757 134.558 341.629 139.02 340.828 145.083C337.854 166.59 347.349 169.222 347.578 175.971C348.15 193.474 363.937 196.22 382.127 195.534C400.316 194.733 393.795 166.476 383.728 164.417C371.487 161.786 376.864 155.837 374.462 149.888C370.915 141.079 358.903 142.566 357.645 136.274C355.243 123.805 353.984 116.598 343.688 110.42C339.341 107.789 328.016 102.526 316.576 110.306C304.22 118.657 306.737 143.71 310.055 139.935Z" fill="#F4EFD7"/>
<path d="M347.349 146.228C347.349 146.228 347.12 141.537 344.489 141.766C341.858 142.109 339.913 150.804 343.574 152.291C347.235 153.778 347.349 146.228 347.349 146.228Z" fill="#E68684"/>
<path d="M311.313 118.542C311.313 118.542 322.296 115.911 322.525 120.258C322.753 124.606 318.406 130.326 313.487 128.724C308.682 127.123 308.225 119.114 311.313 118.542Z" fill="#3D284C"/>
<path d="M325.957 118.542C325.957 118.542 336.939 115.911 337.168 120.258C337.397 124.606 333.05 130.326 328.13 128.724C323.44 127.123 322.868 119.114 325.957 118.542Z" fill="#3D284C"/>
<path d="M317.376 117.742C317.376 117.742 333.278 117.628 333.392 117.971C333.506 118.428 330.189 119.115 329.502 119.115C328.816 119.115 319.778 119 319.778 119L317.376 117.742Z" fill="#3D284C"/>
<path d="M325.613 121.517C325.27 121.402 323.439 119.572 321.723 121.517C320.007 123.462 321.495 123.347 321.723 123.347C321.952 123.347 323.554 120.602 324.126 122.89C324.698 125.292 328.816 122.775 325.613 121.517Z" fill="#3D284C"/>
<path d="M333.736 119.114C333.736 119.114 335.909 118.886 336.138 120.144C336.253 121.402 334.651 120.716 334.079 120.144C333.393 119.686 332.935 119.114 333.736 119.114Z" fill="#F4EFD7"/>
<path d="M318.635 119.114C318.635 119.114 320.808 118.886 321.037 120.144C321.151 121.402 319.55 120.716 318.978 120.144C318.406 119.686 317.948 119.114 318.635 119.114Z" fill="#F4EFD7"/>
<path d="M206.866 311.65C206.866 311.65 210.412 382.235 195.54 460.942C195.54 460.942 202.175 465.175 204.234 465.175C206.294 465.175 187.189 463.001 187.189 463.001C187.189 463.001 183.185 431.198 186.502 383.379C187.074 374.455 170.944 323.433 170.944 323.433C170.944 323.433 167.855 370.451 166.368 379.832C164.309 392.302 149.322 459.798 149.322 459.798C149.322 459.798 165.91 465.175 162.135 465.175C158.36 465.175 141.543 465.175 141.543 465.175C141.543 465.175 136.624 422.16 146.234 388.412C149.322 377.43 131.133 311.65 131.133 311.65C131.133 311.65 190.278 302.155 206.866 311.65Z" fill="#E68684"/>
<path d="M185.701 439.435C185.701 439.435 197.828 439.549 200.001 439.778L195.769 459.111C195.769 459.111 204.463 462.086 206.065 462.429C207.666 462.772 210.755 464.259 211.327 465.175C211.899 466.09 184.672 465.175 184.672 465.175L185.701 439.435Z" fill="#70CACD"/>
<path d="M184.786 464.145C184.786 464.145 196.341 463.916 201.946 464.145C207.552 464.373 210.298 464.373 210.298 464.373C210.298 464.373 212.128 464.717 212.128 466.776C212.128 466.776 185.358 467.806 184.786 467.348C184.214 466.89 184.786 464.145 184.786 464.145Z" fill="#3D284C"/>
<path d="M195.426 446.756C195.426 446.756 200.459 446.985 199.315 447.785C198.286 448.701 194.053 447.785 195.426 446.756Z" fill="#3D284C"/>
<path d="M194.854 449.272C194.854 449.272 199.773 449.959 198.629 450.76C197.485 451.56 193.367 450.188 194.854 449.272Z" fill="#3D284C"/>
<path d="M194.282 452.59C194.282 452.59 199.201 453.162 198.057 453.963C196.913 454.764 192.795 453.391 194.282 452.59Z" fill="#3D284C"/>
<path d="M193.71 455.679C193.71 455.679 198.743 455.908 197.599 456.823C196.57 457.624 192.337 456.709 193.71 455.679Z" fill="#3D284C"/>
<path d="M194.167 458.997C194.167 458.997 199.086 458.082 198.171 459.111C197.37 460.255 193.023 460.255 194.167 458.997Z" fill="#3D284C"/>
<path d="M185.587 443.896H199.201L200.116 439.778C200.116 439.778 185.701 439.091 185.816 439.434C185.816 439.778 185.587 443.896 185.587 443.896Z" fill="#3D284C"/>
<path d="M206.637 362.329C205.15 362.672 196.57 364.045 182.385 362.329L179.41 351.575C179.41 351.575 204.006 353.291 206.752 351.575L206.637 362.329Z" fill="#3D284C"/>
<path d="M192.452 387.725C192.452 387.725 192.681 396.992 197.257 397.106C201.833 397.221 203.32 386.009 201.833 386.925C200.346 387.84 200.003 396.305 197.829 395.276C195.655 394.361 194.054 390.357 193.482 387.497C193.139 384.522 192.452 387.725 192.452 387.725Z" fill="#F05757"/>
<path d="M219.107 90.972V122.661C219.107 122.661 234.094 122.775 235.81 122.661C237.526 122.546 237.183 93.1456 237.068 90.972C236.954 88.7984 223.34 89.828 219.107 90.972Z" fill="#F4EFD7"/>
<path d="M93.6105 113.394C93.6105 113.394 176.551 100.582 179.182 107.102C181.813 113.623 180.097 235.116 180.097 235.116C180.097 235.116 104.707 247.357 97.2713 239.921C89.9497 232.485 93.6105 113.394 93.6105 113.394Z" fill="#124C47"/>
<path d="M128.388 311.65C128.388 311.65 135.366 347.228 136.624 355.007C136.624 355.007 162.708 356.838 169.114 354.207L170.83 323.547L176.092 353.52C176.092 353.52 200.117 355.122 208.468 353.063C208.468 353.063 207.209 317.599 207.095 307.417C207.209 307.417 145.776 306.044 128.388 311.65Z" fill="#03C8A8"/>
<path d="M85.1445 169.45C85.1445 169.45 79.7678 157.095 185.473 160.642C192.795 160.87 190.049 293.003 190.049 293.003C190.049 293.003 100.245 304.328 91.3221 296.663C82.3989 288.998 85.1445 169.45 85.1445 169.45Z" fill="#03C8A8"/>
<path d="M76.5645 197.478C76.5645 197.478 75.1917 191.987 100.932 191.415C102.648 191.415 102.533 257.653 102.533 257.653C102.533 257.653 82.0557 260.97 79.8821 257.653C77.7085 254.335 76.5645 197.478 76.5645 197.478Z" fill="#124C47"/>
<path d="M179.41 116.597C179.295 116.369 177.007 87.7685 164.309 89.9421C144.174 93.4885 155.958 104.585 147.606 104.814C139.141 105.043 133.993 110.191 133.535 116.597C132.963 123.919 139.484 127.008 133.993 132.041C129.074 136.503 140.056 152.748 151.153 144.969C162.25 137.189 184.901 131.355 179.41 116.597Z" fill="#3D284C"/>
<path d="M147.607 142.909C147.607 142.909 150.238 168.306 147.378 173.683C144.403 179.06 166.712 206.287 169.228 194.161C170.601 187.64 165.453 161.557 164.538 147.028C164.424 147.028 147.149 137.304 147.607 142.909Z" fill="#E68684"/>
<path d="M180.325 119.344C180.325 119.344 189.821 152.977 176.779 156.752C163.852 160.642 135.137 125.178 150.81 116.598C166.483 108.018 177.351 106.76 180.325 119.344Z" fill="#E68684"/>
<path d="M147.15 118.199C147.15 118.199 155.615 149.316 162.136 147.371C168.657 145.541 171.288 129.639 177.809 133.758C187.304 139.706 185.474 157.438 171.746 158.239C158.018 159.04 138.57 132.614 142.802 121.174C147.035 109.962 147.15 118.199 147.15 118.199Z" fill="#3D284C"/>
<path d="M168.199 124.148C168.199 124.148 170.03 136.961 174.491 136.618C178.953 136.16 173.69 133.529 168.199 124.148Z" fill="#F05757"/>
<path d="M164.081 122.546C164.195 121.86 161.907 120.487 159.619 121.745C157.331 123.004 156.302 126.093 157.331 125.864C158.361 125.635 159.734 123.118 161.221 123.004C162.594 122.889 163.852 123.805 164.081 122.546Z" fill="#3D284C"/>
<path d="M149.781 114.31C149.781 114.31 157.445 127.008 148.751 129.296C140.057 131.47 144.289 109.391 149.781 114.31Z" fill="#3D284C"/>
<path d="M171.631 120.945C171.631 120.945 172.317 118.199 175.063 118.428C177.236 118.657 177.923 120.602 177.236 120.83C176.55 121.059 175.292 120.03 173.919 120.602C172.889 121.059 171.631 122.546 171.631 120.945Z" fill="#3D284C"/>
<path d="M163.623 129.067C164.444 129.067 165.11 128.401 165.11 127.58C165.11 126.759 164.444 126.093 163.623 126.093C162.802 126.093 162.136 126.759 162.136 127.58C162.136 128.401 162.802 129.067 163.623 129.067Z" fill="#3D284C"/>
<path d="M175.749 127.237C176.57 127.237 177.236 126.571 177.236 125.75C177.236 124.929 176.57 124.263 175.749 124.263C174.928 124.263 174.262 124.929 174.262 125.75C174.262 126.571 174.928 127.237 175.749 127.237Z" fill="#3D284C"/>
<path d="M177.008 132.843C178.271 132.843 179.296 131.818 179.296 130.555C179.296 129.291 178.271 128.267 177.008 128.267C175.744 128.267 174.72 129.291 174.72 130.555C174.72 131.818 175.744 132.843 177.008 132.843Z" fill="#E57373"/>
<path d="M147.378 173.798C147.378 173.798 155.615 195.534 165.224 190.157C169.572 187.754 167.741 173.798 167.741 173.798C167.741 173.798 188.676 173.111 199.201 193.932C209.726 214.753 210.641 310.506 210.641 310.506C210.641 310.506 141.315 317.255 128.388 311.764C128.388 311.764 123.125 217.842 123.354 200.682C123.583 183.407 147.378 173.798 147.378 173.798Z" fill="#3D284C"/>
<path d="M128.388 187.297C128.388 187.297 81.1405 210.52 85.7165 259.026C85.7165 259.026 98.0717 266.69 102.076 252.162C105.736 239.006 118.32 221.045 139.828 210.634C139.942 210.634 128.96 199.652 128.388 187.297Z" fill="#E68684"/>
<path d="M102.19 207.545C102.19 207.545 113.058 223.676 118.435 227.222C118.435 227.222 146.463 213.38 148.179 204.685C149.895 195.991 144.633 174.941 144.633 174.941C144.633 174.941 123.354 182.377 102.19 207.545Z" fill="#3D284C"/>
<path opacity="0.5" d="M141.773 178.145C141.773 178.145 156.759 228.481 150.124 247.128C143.489 265.775 127.13 286.138 127.13 286.138L125.643 270.694C125.643 270.694 141.315 248.386 142.917 236.374C144.519 224.248 133.422 180.89 133.422 180.89C133.422 180.89 140.743 174.484 141.773 178.145Z" fill="#03C8A8"/>
<path d="M85.7167 259.025C85.7167 259.025 82.1703 274.813 101.046 263.716C119.922 252.733 126.786 236.031 138.455 230.883C148.179 226.536 151.954 229.739 154.471 229.625C156.988 229.51 152.755 214.638 136.625 224.019C120.723 233.285 92.5807 240.607 85.7167 259.025Z" fill="#E68684"/>
<path d="M140.285 439.435C140.285 439.435 152.412 439.549 154.585 439.778L150.353 459.111C150.353 459.111 159.047 462.086 160.649 462.429C162.25 462.772 165.339 464.259 165.911 465.175C166.483 466.09 139.256 465.175 139.256 465.175L140.285 439.435Z" fill="#70CACD"/>
<path d="M139.37 464.145C139.37 464.145 150.925 463.916 156.53 464.145C162.136 464.373 164.882 464.373 164.882 464.373C164.882 464.373 166.712 464.717 166.712 466.776C166.712 466.776 139.942 467.806 139.37 467.348C138.913 466.776 139.37 464.145 139.37 464.145Z" fill="#3D284C"/>
<path d="M150.009 446.756C150.009 446.756 155.043 446.985 153.899 447.785C152.755 448.586 148.637 447.785 150.009 446.756Z" fill="#3D284C"/>
<path d="M149.438 449.272C149.438 449.272 154.357 449.959 153.213 450.76C152.069 451.56 147.951 450.188 149.438 449.272Z" fill="#3D284C"/>
<path d="M148.866 452.59C148.866 452.59 153.785 453.162 152.641 453.963C151.497 454.764 147.379 453.391 148.866 452.59Z" fill="#3D284C"/>
<path d="M148.294 455.679C148.294 455.679 153.327 455.908 152.183 456.823C151.154 457.624 146.921 456.709 148.294 455.679Z" fill="#3D284C"/>
<path d="M148.751 458.997C148.751 458.997 153.67 458.082 152.755 459.111C151.954 460.255 147.607 460.255 148.751 458.997Z" fill="#3D284C"/>
<path d="M140.171 443.896H153.785L154.7 439.778C154.7 439.778 140.285 439.091 140.4 439.434C140.4 439.778 140.171 443.896 140.171 443.896Z" fill="#3D284C"/>
<path d="M190.164 182.264C190.164 182.264 212.243 185.924 236.382 169.908C260.52 153.892 247.936 116.14 235.238 113.509C231.119 112.708 219.908 112.48 220.48 111.221C223.569 104.128 232.835 105.044 237.068 106.416C246.334 109.276 277.909 135.474 261.893 171.853C245.762 208.232 201.032 206.86 201.032 206.86C201.032 206.86 191.994 192.674 190.164 182.264Z" fill="#E68684"/>
<path d="M217.505 177.001C217.505 177.001 230.432 202.398 230.432 205.601C230.432 208.804 198.286 213.266 195.769 210.52C193.252 207.775 180.439 177.687 183.643 177.916C186.96 178.145 208.353 178.603 217.505 177.001Z" fill="#3D284C"/>
<path opacity="0.5" d="M186.961 178.145C186.961 178.145 192.452 211.778 197.714 230.883C202.519 248.043 209.612 258.453 209.612 258.453V274.927C209.612 274.927 191.422 247.585 189.477 235.573C186.389 217.155 176.207 175.056 176.207 175.056C176.207 175.056 185.931 174.484 186.961 178.145Z" fill="#03C8A8"/>
<path d="M176.779 138.562C176.779 138.562 177.465 141.422 175.749 141.422C174.033 141.422 173.347 139.134 172.889 139.134C172.203 139.134 174.033 142.91 176.435 142.109C178.495 141.537 176.893 136.961 176.779 138.562Z" fill="#F4EFD7"/>
<path d="M161.449 136.274C162.713 136.274 163.737 135.25 163.737 133.986C163.737 132.723 162.713 131.698 161.449 131.698C160.186 131.698 159.161 132.723 159.161 133.986C159.161 135.25 160.186 136.274 161.449 136.274Z" fill="#E57373"/>
<path d="M148.866 131.012C148.866 131.012 146.806 126.779 144.518 127.923C142.23 129.182 143.603 137.99 147.607 137.99C151.611 137.99 148.866 131.012 148.866 131.012Z" fill="#E68684"/>
<path d="M147.607 138.104C147.607 138.104 152.527 157.896 157.675 162.357C162.823 166.819 166.712 165.675 166.712 165.675L164.996 154.006C164.882 154.006 154.7 147.943 147.607 138.104Z" fill="#3D284C"/>
<path d="M168.084 362.557C166.597 362.9 158.246 366.904 144.06 365.188L142.001 355.35C142.001 355.35 166.483 356.036 169.228 354.206L168.084 362.557Z" fill="#3D284C"/>
<path d="M233.521 94.7469C234.343 94.7469 235.009 94.081 235.009 93.2597C235.009 92.4383 234.343 91.7725 233.521 91.7725C232.7 91.7725 232.034 92.4383 232.034 93.2597C232.034 94.081 232.7 94.7469 233.521 94.7469Z" fill="#3D284C"/>
<path d="M154.242 385.323C154.242 385.323 154.471 394.589 159.047 394.704C163.623 394.818 165.11 383.607 163.623 384.522C162.136 385.437 161.793 393.903 159.619 392.873C157.445 391.958 155.844 387.954 155.272 385.094C154.929 382.12 154.242 385.323 154.242 385.323Z" fill="#F05757"/>
<path d="M163.966 322.289C163.966 322.289 168.313 323.547 170.944 323.662C173.461 323.662 180.096 320.344 180.325 321.259C180.439 322.174 176.664 325.492 170.83 326.064C164.995 326.636 159.161 321.145 163.966 322.289Z" fill="#3D284C"/>
<path d="M173.233 102.069C173.233 102.069 172.203 93.9467 166.826 92.5739C161.45 91.2011 165.911 94.9763 166.14 96.6923C166.369 98.4083 161.678 92.5739 159.734 94.8619C157.789 97.1499 164.538 98.8659 162.708 100.468C160.878 102.069 156.416 96.5779 156.416 98.7515C156.416 100.925 158.704 105.959 160.42 105.501C162.136 105.158 158.704 102.298 160.878 102.641C163.051 102.984 165.797 105.043 165.911 103.442C166.14 101.726 163.966 99.3235 166.026 99.4379C170.144 99.5523 172.89 108.704 173.233 102.069Z" fill="#F4EFD7"/>
<path d="M285.802 148.172C278.252 148.172 272.188 154.235 272.188 161.785C272.188 169.336 285.802 191.873 285.802 191.873C285.802 191.873 299.416 169.336 299.416 161.785C299.53 154.235 293.352 148.172 285.802 148.172ZM285.802 169.221C281.798 169.221 278.595 166.018 278.595 162.014C278.595 158.01 281.798 154.807 285.802 154.807C289.806 154.807 293.009 158.01 293.009 162.014C293.009 166.018 289.806 169.221 285.802 169.221Z" fill="#F05757"/>
<path d="M212.586 92.9167C212.472 92.9167 212.357 92.9167 212.243 92.8023C212.243 92.8023 211.671 92.4591 210.87 91.6583C210.641 91.4295 210.641 91.0863 210.756 90.8575C210.985 90.6287 211.328 90.6287 211.557 90.7431C212.357 91.4295 212.815 91.7727 212.815 91.7727C213.044 92.0015 213.158 92.3447 212.929 92.5735C212.929 92.8023 212.701 92.9167 212.586 92.9167Z" fill="#F4EFD7"/>
<path d="M282.256 137.304C281.913 137.304 281.684 137.075 281.684 136.846C281.569 135.702 281.455 134.558 281.455 133.414C281.455 133.071 281.684 132.842 282.027 132.842C282.37 132.842 282.599 133.071 282.599 133.414C282.599 134.558 282.713 135.588 282.828 136.732C282.828 136.961 282.599 137.304 282.256 137.304ZM282.027 130.554C281.684 130.554 281.455 130.326 281.455 129.982C281.569 128.838 281.684 127.694 281.798 126.55C281.798 126.207 282.141 125.978 282.484 126.093C282.828 126.093 283.056 126.436 282.942 126.779C282.828 127.809 282.713 128.953 282.599 130.097C282.599 130.326 282.37 130.554 282.027 130.554ZM283.056 123.805H282.942C282.599 123.69 282.484 123.462 282.484 123.118C282.828 121.974 283.171 120.83 283.628 119.801C283.743 119.458 284.086 119.343 284.429 119.458C284.773 119.572 284.887 119.915 284.772 120.258C284.315 121.288 283.972 122.318 283.743 123.347C283.628 123.576 283.4 123.805 283.056 123.805ZM285.688 117.513C285.573 117.513 285.459 117.513 285.344 117.398C285.116 117.284 285.001 116.826 285.116 116.598C285.688 115.568 286.488 114.653 287.175 113.852C287.404 113.623 287.747 113.623 287.976 113.852C288.205 114.081 288.205 114.424 287.976 114.653C287.289 115.454 286.603 116.369 286.031 117.284C286.145 117.513 285.917 117.513 285.688 117.513ZM290.264 112.594C290.035 112.594 289.92 112.479 289.806 112.365C289.577 112.136 289.692 111.793 289.92 111.564C290.836 110.878 291.865 110.306 292.895 109.734C293.124 109.619 293.467 109.734 293.696 109.962C293.81 110.191 293.696 110.534 293.467 110.763C292.437 111.221 291.522 111.793 290.607 112.479C290.493 112.594 290.378 112.594 290.264 112.594ZM296.212 109.276C295.984 109.276 295.869 109.162 295.755 109.047C295.64 108.818 295.641 108.475 295.984 108.246C296.899 107.674 297.814 107.102 298.729 106.416C298.958 106.187 299.301 106.302 299.53 106.53C299.759 106.759 299.645 107.102 299.416 107.331C298.501 108.018 297.471 108.704 296.556 109.276C296.441 109.276 296.327 109.276 296.212 109.276ZM301.704 105.272C301.589 105.272 301.36 105.158 301.246 105.043C301.017 104.814 301.017 104.471 301.246 104.242C302.047 103.556 302.848 102.755 303.648 101.954C303.877 101.726 304.221 101.726 304.449 101.954C304.678 102.183 304.678 102.526 304.449 102.755C303.649 103.556 302.848 104.357 301.932 105.158C302.047 105.272 301.818 105.272 301.704 105.272ZM306.394 100.353C306.28 100.353 306.165 100.353 306.051 100.238C305.822 100.01 305.708 99.6664 305.936 99.4376C306.623 98.5224 307.309 97.6072 307.881 96.692C308.11 96.4632 308.453 96.3488 308.682 96.5776C308.911 96.8064 309.025 97.1496 308.796 97.3784C308.224 98.2936 307.538 99.3232 306.737 100.124C306.737 100.238 306.508 100.353 306.394 100.353ZM310.055 94.6328C309.94 94.6328 309.826 94.6328 309.826 94.5184C309.597 94.404 309.483 94.0608 309.597 93.7176C310.169 92.688 310.627 91.6584 310.97 90.7432C311.084 90.4 311.428 90.2856 311.771 90.4C312.114 90.5144 312.228 90.8576 312.114 91.0864C311.656 92.116 311.199 93.1456 310.627 94.1752C310.512 94.5184 310.284 94.6328 310.055 94.6328ZM280.311 91.7728C279.167 91.7728 278.023 91.544 276.764 91.0864C276.421 90.972 276.307 90.6288 276.421 90.4C276.536 90.0568 276.879 89.9424 277.108 90.0568C278.137 90.4 279.281 90.6288 280.311 90.6288C280.654 90.6288 280.883 90.8576 280.883 91.2008C280.883 91.544 280.654 91.7728 280.311 91.7728ZM283.628 91.2008C283.4 91.2008 283.171 91.0864 283.056 90.8576C282.942 90.5144 283.171 90.2856 283.4 90.1712C284.429 89.828 285.345 89.3704 286.145 88.684C286.374 88.4552 286.717 88.5696 286.946 88.7984C287.175 89.0272 287.061 89.3704 286.832 89.5992C285.917 90.4 284.772 90.972 283.743 91.3152C283.743 91.2008 283.743 91.2008 283.628 91.2008ZM273.904 89.5992C273.79 89.5992 273.676 89.5992 273.561 89.4848C272.989 89.1416 272.417 88.684 271.845 88.3408C271.502 88.112 271.159 87.7688 270.816 87.4256C270.587 87.1968 270.587 86.8536 270.816 86.6248C271.045 86.396 271.388 86.396 271.616 86.6248C271.96 86.8536 272.303 87.1968 272.646 87.4256C273.218 87.8832 273.79 88.2264 274.362 88.5696C274.591 88.684 274.705 89.1416 274.591 89.3704C274.362 89.5992 274.133 89.5992 273.904 89.5992ZM208.811 89.4848C208.696 89.4848 208.468 89.3704 208.353 89.256C207.552 88.4552 206.752 87.54 206.065 86.6248C205.836 86.396 205.951 86.0528 206.18 85.824C206.408 85.5952 206.752 85.7096 206.98 85.9384C207.667 86.7392 208.353 87.6544 209.154 88.4552C209.383 88.684 209.383 89.0272 209.154 89.256C209.04 89.3704 208.925 89.4848 208.811 89.4848ZM312.572 88.3408H312.457C312.114 88.2264 312 87.9976 312 87.6544C312.343 86.5104 312.572 85.4808 312.686 84.4512C312.686 84.108 313.029 83.8792 313.372 83.9936C313.716 83.9936 313.944 84.3368 313.83 84.68C313.716 85.824 313.487 86.968 313.144 88.112C313.029 88.2264 312.801 88.3408 312.572 88.3408ZM288.891 87.1968C288.776 87.1968 288.662 87.1968 288.548 87.0824C288.319 86.8536 288.205 86.5104 288.433 86.2816C289.005 85.3664 289.577 84.4512 289.92 83.4216C290.035 83.0784 290.378 82.964 290.721 83.0784C291.065 83.1928 291.179 83.536 291.064 83.7648C290.607 84.9088 290.035 85.9384 289.348 86.8536C289.348 87.0824 289.12 87.1968 288.891 87.1968ZM268.985 85.1376C268.757 85.1376 268.642 85.0232 268.528 84.9088C267.841 83.8792 267.384 82.7352 267.155 81.5912C267.04 81.248 267.269 81.0192 267.612 80.9048C267.956 80.7904 268.184 81.0192 268.299 81.3624C268.528 82.392 268.985 83.4216 269.557 84.3368C269.672 84.5656 269.672 84.9088 269.328 85.1376C269.214 85.0232 269.1 85.1376 268.985 85.1376ZM204.578 84.108C204.349 84.108 204.235 83.9936 204.12 83.8792C203.434 82.8496 202.976 81.82 202.519 80.7904C202.404 80.4472 202.519 80.2184 202.862 79.9896C203.205 79.8752 203.434 79.9896 203.663 80.3328C204.12 81.248 204.578 82.2776 205.264 83.3072C205.379 83.536 205.379 83.8792 205.036 84.108C204.807 84.108 204.692 84.108 204.578 84.108ZM313.487 81.7056C313.144 81.7056 312.915 81.4768 312.915 81.1336C312.915 79.9896 312.801 78.96 312.572 77.816C312.457 77.4728 312.686 77.244 313.029 77.1296C313.373 77.0152 313.601 77.244 313.716 77.5872C313.945 78.7312 314.059 79.8752 314.059 81.0192C314.059 81.3624 313.83 81.5912 313.487 81.7056ZM291.522 80.9048C291.408 80.9048 291.408 80.9048 291.522 80.9048C291.064 80.7904 290.95 80.5616 290.95 80.2184C291.179 79.1888 291.293 78.0448 291.293 76.9008C291.293 76.5576 291.522 76.3288 291.865 76.3288C292.209 76.3288 292.437 76.5576 292.437 76.9008C292.437 78.0448 292.323 79.3032 292.094 80.3328C291.98 80.676 291.751 80.9048 291.522 80.9048ZM267.384 78.6168C267.041 78.6168 266.812 78.2736 266.812 78.0448C266.926 76.9008 267.155 75.7568 267.612 74.6128C267.727 74.2696 268.07 74.1552 268.299 74.2696C268.642 74.384 268.756 74.7272 268.642 74.956C268.184 75.9856 267.956 77.0152 267.841 78.0448C267.956 78.388 267.727 78.6168 267.384 78.6168ZM201.832 77.9304C201.604 77.9304 201.375 77.816 201.26 77.4728C200.917 76.3288 200.803 75.1848 200.688 74.0408C200.688 73.6976 200.917 73.4688 201.26 73.4688C201.604 73.4688 201.832 73.6976 201.832 74.0408C201.832 75.0704 202.061 76.2144 202.29 77.244C202.404 77.5872 202.176 77.816 201.832 77.9304C201.832 77.9304 201.947 77.9304 201.832 77.9304ZM312.114 75.0704C311.885 75.0704 311.656 74.956 311.542 74.7272C311.084 73.6976 310.627 72.7824 310.055 71.8672C309.826 71.6384 309.941 71.2952 310.169 71.0664C310.398 70.8376 310.741 70.952 310.97 71.1808C311.656 72.2104 312.114 73.24 312.572 74.2696C312.686 74.6128 312.572 74.8416 312.228 75.0704C312.343 75.0704 312.228 75.0704 312.114 75.0704ZM291.636 74.1552C291.408 74.1552 291.064 73.9264 291.064 73.6976C290.95 72.668 290.721 71.524 290.492 70.38C290.378 70.0368 290.607 69.808 290.95 69.6936C291.293 69.5792 291.522 69.808 291.636 70.1512C291.98 71.2952 292.094 72.4392 292.323 73.5832C292.323 73.812 292.094 74.1552 291.636 74.1552C291.751 74.1552 291.751 74.1552 291.636 74.1552ZM269.786 72.3248C269.672 72.3248 269.557 72.3248 269.443 72.2104C269.214 71.9816 269.1 71.6384 269.328 71.4096C269.9 70.4944 270.701 69.5792 271.502 68.664C271.731 68.4352 272.074 68.4352 272.303 68.664C272.532 68.8928 272.532 69.236 272.303 69.4648C271.502 70.2656 270.816 71.1808 270.244 72.096C270.129 72.2104 269.9 72.3248 269.786 72.3248ZM201.489 71.1808C201.032 71.0664 200.917 70.8376 200.917 70.4944C201.146 69.3504 201.489 68.2064 201.832 67.0624C201.947 66.7192 202.29 66.6048 202.519 66.7192C202.862 66.8336 202.976 67.1768 202.862 67.4056C202.404 68.4352 202.176 69.4648 201.947 70.6088C202.061 71.0664 201.718 71.1808 201.489 71.1808ZM308.453 69.3504C308.339 69.3504 308.11 69.236 307.996 69.1216C307.309 68.3208 306.394 67.6344 305.479 66.948C305.25 66.7192 305.136 66.376 305.364 66.1472C305.593 65.9184 305.937 65.804 306.165 66.0328C307.081 66.7192 307.996 67.52 308.796 68.3208C309.025 68.5496 309.025 68.8928 308.796 69.1216C308.796 69.3504 308.568 69.3504 308.453 69.3504ZM290.035 67.52C289.806 67.52 289.577 67.4056 289.463 67.1768C289.12 66.1472 288.548 65.1176 288.09 64.2024C287.976 63.9736 288.09 63.6304 288.319 63.4016C288.548 63.2872 288.891 63.4016 289.12 63.6304C289.692 64.66 290.149 65.6896 290.607 66.7192C290.721 67.0624 290.607 67.2912 290.264 67.4056C290.149 67.52 290.035 67.52 290.035 67.52ZM274.362 67.4056C274.248 67.4056 274.019 67.2912 273.904 67.1768C273.676 66.948 273.79 66.6048 274.019 66.376C274.934 65.6896 275.849 65.0032 276.879 64.4312C277.108 64.3168 277.451 64.3168 277.68 64.66C277.794 64.8888 277.794 65.232 277.451 65.4608C276.536 66.0328 275.62 66.6048 274.705 67.2912C274.591 67.2912 274.476 67.4056 274.362 67.4056ZM303.076 65.232C302.962 65.232 302.848 65.232 302.848 65.1176C302.619 65.0032 302.505 64.8888 302.276 64.7744C301.475 64.3168 300.674 63.9736 299.873 63.6304C299.53 63.516 299.416 63.1728 299.53 62.8296C299.644 62.4864 299.988 62.372 300.331 62.4864C301.132 62.8296 302.047 63.2872 302.848 63.7448C303.077 63.8592 303.191 63.9736 303.42 64.088C303.649 64.2024 303.763 64.5456 303.648 64.8888C303.534 65.1176 303.305 65.232 303.076 65.232ZM204.006 65.0032C203.892 65.0032 203.777 65.0032 203.663 64.8888C203.434 64.7744 203.32 64.3168 203.434 64.088C204.006 63.1728 204.692 62.2576 205.493 61.3424C205.722 61.1136 206.065 61.1136 206.294 61.228C206.523 61.4568 206.523 61.8 206.408 62.0288C205.722 62.944 205.036 63.7448 204.464 64.66C204.349 64.8888 204.12 65.0032 204.006 65.0032ZM280.196 63.8592C279.968 63.8592 279.739 63.7448 279.624 63.516C279.51 63.1728 279.625 62.944 279.968 62.7152C280.997 62.2576 282.141 61.9144 283.285 61.5712C283.629 61.4568 283.857 61.6856 283.972 61.9144C284.086 62.2576 283.857 62.4864 283.628 62.6008C282.599 62.944 281.569 63.2872 280.54 63.7448C280.425 63.8592 280.311 63.8592 280.196 63.8592ZM296.899 62.6008H296.784C295.755 62.372 294.611 62.1432 293.581 61.9144C293.238 61.9144 293.009 61.5712 293.124 61.228C293.124 60.8848 293.467 60.656 293.81 60.7704C294.954 60.8848 296.098 61.1136 297.242 61.4568C297.585 61.5712 297.7 61.8 297.7 62.1432C297.357 62.4864 297.128 62.6008 296.899 62.6008ZM286.717 62.0288C286.489 62.0288 286.145 61.8 286.145 61.5712C286.145 61.4568 286.145 61.3424 286.26 61.228C286.031 60.7704 285.688 60.4272 285.344 60.084C285.001 59.6264 284.658 59.1688 284.315 58.8256C284.086 58.5968 284.086 58.2536 284.315 58.0248C284.544 57.796 284.887 57.796 285.116 58.0248C285.459 58.4824 285.917 58.94 286.26 59.3976C286.603 59.8552 286.946 60.3128 287.289 60.7704C287.289 60.7704 287.289 60.8848 287.404 60.8848C288.319 60.7704 289.234 60.656 290.149 60.656C290.493 60.656 290.721 60.8848 290.721 61.228C290.721 61.5712 290.493 61.8 290.149 61.8C289.005 61.8 287.976 61.9144 286.717 62.0288C286.832 62.0288 286.717 62.0288 286.717 62.0288ZM208.353 59.7408C208.239 59.7408 208.01 59.6264 207.896 59.512C207.667 59.2832 207.667 58.94 207.896 58.7112C208.696 58.0248 209.612 57.224 210.641 56.5376C210.87 56.3088 211.213 56.4232 211.442 56.652C211.671 56.8808 211.556 57.224 211.328 57.4528C210.412 58.1392 209.497 58.8256 208.696 59.512C208.582 59.7408 208.468 59.7408 208.353 59.7408ZM282.256 56.5376C282.141 56.5376 282.027 56.5376 281.912 56.4232C281.112 55.7368 280.196 55.0504 279.167 54.4784C278.938 54.364 278.824 53.9064 278.938 53.6776C279.052 53.4488 279.51 53.3344 279.739 53.4488C280.768 54.0208 281.684 54.7072 282.599 55.3936C282.828 55.6224 282.828 55.9656 282.713 56.1944C282.599 56.5376 282.485 56.5376 282.256 56.5376ZM213.959 55.8512C213.73 55.8512 213.616 55.7368 213.501 55.508C213.387 55.2792 213.387 54.936 213.73 54.7072C214.645 54.1352 215.675 53.6776 216.819 53.1056C217.162 52.9912 217.391 53.1056 217.62 53.3344C217.734 53.5632 217.62 53.9064 217.391 54.1352C216.361 54.5928 215.332 55.1648 214.416 55.6224C214.073 55.8512 213.959 55.8512 213.959 55.8512ZM220.022 52.9912C219.793 52.9912 219.564 52.8768 219.45 52.648C219.336 52.3048 219.45 52.076 219.793 51.9616C220.823 51.504 221.967 51.1608 222.996 50.8176C223.34 50.7032 223.568 50.932 223.683 51.1608C223.797 51.504 223.568 51.7328 223.34 51.8472C222.196 52.1904 221.166 52.648 220.136 52.9912C220.251 52.9912 220.136 52.9912 220.022 52.9912ZM276.536 52.9912C276.421 52.9912 276.421 52.9912 276.307 52.9912C275.392 52.5336 274.248 52.076 273.218 51.6184C272.875 51.504 272.76 51.1608 272.875 50.932C272.989 50.7032 273.333 50.4744 273.561 50.5888C274.705 51.0464 275.735 51.504 276.764 51.9616C276.993 52.076 277.222 52.4192 276.993 52.7624C276.993 52.8768 276.765 52.9912 276.536 52.9912ZM226.543 50.8176C226.314 50.8176 226.085 50.7032 225.971 50.36C225.856 50.0168 226.085 49.788 226.314 49.6736C227.344 49.3304 228.488 49.1016 229.632 48.8728C229.975 48.7584 230.204 48.9872 230.318 49.3304C230.432 49.6736 230.204 49.9024 229.86 50.0168C228.716 50.2456 227.687 50.5888 226.543 50.8176C226.657 50.8176 226.543 50.8176 226.543 50.8176ZM270.244 50.5888H270.129C269.1 50.2456 267.956 50.0168 266.926 49.6736C266.583 49.5592 266.468 49.3304 266.468 48.9872C266.583 48.644 266.812 48.5296 267.155 48.5296C268.299 48.7584 269.443 49.1016 270.472 49.4448C270.816 49.5592 270.93 49.9024 270.816 50.1312C270.701 50.36 270.473 50.5888 270.244 50.5888ZM233.178 49.3304C232.949 49.3304 232.72 49.1016 232.606 48.8728C232.492 48.5296 232.72 48.3008 233.064 48.1864C234.208 47.9576 235.352 47.8432 236.496 47.6144C236.839 47.6144 237.068 47.7288 237.182 48.072C237.182 48.4152 237.068 48.644 236.724 48.7584C235.466 48.8728 234.322 49.1016 233.178 49.3304ZM263.608 48.9872C263.494 48.9872 263.494 48.9872 263.608 48.9872C262.464 48.7584 261.32 48.644 260.176 48.4152C259.833 48.4152 259.604 48.072 259.719 47.7288C259.719 47.3856 260.062 47.1568 260.405 47.2712C261.549 47.3856 262.693 47.6144 263.837 47.8432C264.181 47.8432 264.409 48.1864 264.295 48.5296C264.066 48.7584 263.837 48.9872 263.608 48.9872ZM239.813 48.3008C239.47 48.3008 239.241 48.072 239.241 47.8432C239.241 47.5 239.47 47.2712 239.699 47.1568C240.843 47.0424 241.987 46.928 243.131 46.8136C243.474 46.8136 243.703 47.0424 243.703 47.3856C243.703 47.7288 243.474 47.9576 243.131 47.9576C242.216 48.072 241.072 48.1864 239.813 48.3008C239.928 48.3008 239.928 48.3008 239.813 48.3008ZM256.859 48.072C255.715 47.9576 254.571 47.9576 253.427 47.8432C253.084 47.8432 252.855 47.6144 252.855 47.2712C252.855 46.928 253.084 46.6992 253.427 46.6992C254.571 46.6992 255.715 46.8136 256.859 46.928C257.202 46.928 257.431 47.2712 257.431 47.5C257.431 47.8432 257.088 48.072 256.859 48.072ZM246.677 47.8432C246.334 47.8432 246.105 47.6144 246.105 47.2712C246.105 46.928 246.334 46.6992 246.677 46.6992C247.707 46.6992 248.736 46.6992 249.766 46.6992H250.109C250.452 46.6992 250.681 46.928 250.681 47.2712C250.681 47.6144 250.452 47.8432 250.109 47.8432H249.766C248.736 47.8432 247.707 47.8432 246.677 47.8432Z" fill="#F4EFD7"/>
<path d="M283.057 142.452C282.828 142.452 282.599 142.223 282.485 141.995C282.485 141.995 282.37 141.423 282.142 140.279C282.142 139.935 282.256 139.707 282.599 139.592C282.942 139.478 283.171 139.707 283.286 140.05C283.514 141.079 283.629 141.651 283.629 141.651C283.743 141.995 283.514 142.223 283.171 142.338C283.171 142.452 283.171 142.452 283.057 142.452Z" fill="#F4EFD7"/>
</svg>
