<svg width="363" height="273" viewBox="0 0 363 273" fill="none" xmlns="http://www.w3.org/2000/svg">
<path opacity="0.3" d="M74.0405 59.6804C74.0405 59.6804 182.717 -27.8478 228.665 9.09592C274.612 46.0396 233.634 81.3594 254.327 83.0645C275.019 84.7696 318.441 49.0438 334.735 90.6156C351.028 132.187 273.634 177.575 286.914 180.255C300.193 183.015 323.003 176.763 322.27 192.028C321.537 207.293 254.734 264.779 211.801 258.527C168.868 252.275 233.145 213.87 207.728 216.468C182.31 219.066 136.363 275.09 103.939 238.066C71.515 201.041 138.97 138.845 110.049 146.721C62.5536 159.388 9.19279 116.436 74.0405 59.6804Z" fill="#ACF4E9"/>
<path d="M74.4973 272.979H32.1292C31.3603 272.979 30.7451 272.364 30.7451 271.595V270.826C30.7451 270.057 31.3603 269.441 32.1292 269.441H74.4973C75.2662 269.441 75.8814 270.057 75.8814 270.826V271.595C75.8045 272.364 75.2662 272.979 74.4973 272.979Z" fill="#ADBEC4"/>
<path d="M342.931 272.977H331.321C330.552 272.977 329.937 272.362 329.937 271.593V270.824C329.937 270.055 330.552 269.44 331.321 269.44H342.931C343.7 269.44 344.316 270.055 344.316 270.824V271.593C344.316 272.362 343.7 272.977 342.931 272.977Z" fill="#ADBEC4"/>
<path d="M154.237 272.977H111.868C111.1 272.977 110.484 272.362 110.484 271.593V270.824C110.484 270.055 111.1 269.44 111.868 269.44H154.237C155.005 269.44 155.621 270.055 155.621 270.824V271.593C155.544 272.362 155.005 272.977 154.237 272.977Z" fill="#ADBEC4"/>
<path d="M216.444 272.977H174.075C173.307 272.977 172.691 272.362 172.691 271.593V270.824C172.691 270.055 173.307 269.44 174.075 269.44H216.444C217.213 269.44 217.828 270.055 217.828 270.824V271.593C217.751 272.362 217.213 272.977 216.444 272.977Z" fill="#ADBEC4"/>
<path d="M292.644 272.977H234.898C234.129 272.977 233.514 272.362 233.514 271.593V270.824C233.514 270.055 234.129 269.44 234.898 269.44H292.644C293.413 269.44 294.029 270.055 294.029 270.824V271.593C293.952 272.362 293.337 272.977 292.644 272.977Z" fill="#ADBEC4"/>
<path d="M88.7235 80.5792C88.7235 80.5792 84.2637 77.5033 77.7277 79.8871C71.1918 82.194 69.7309 91.0372 71.3456 98.1887C72.9604 105.34 63.9639 129.794 63.9639 129.794C63.9639 129.794 68.6543 136.407 85.0326 133.869C85.0326 133.869 97.2586 111.723 96.3359 95.728C95.4132 79.7333 88.7235 80.5792 88.7235 80.5792Z" fill="#0E3944"/>
<path d="M93.873 108.032C100.024 106.032 103.792 111.184 107.329 120.72C110.866 130.255 112.02 131.178 112.02 131.178L125.63 139.944L124.477 145.019C124.477 145.019 111.558 139.944 108.406 136.714C105.253 133.485 96.2567 117.182 96.2567 117.182L93.873 108.032Z" fill="#EF6E4B"/>
<path d="M63.8875 169.626C63.8875 169.626 61.1962 183.16 61.6576 203.461C61.6576 203.461 51.1232 218.995 59.8122 263.211H64.3489C64.3489 263.211 68.0397 225.531 70.8848 215.38C73.7298 205.153 84.2642 202.077 84.8024 171.011L63.8875 169.626Z" fill="#FF8B66"/>
<path d="M43.047 209.383C40.4327 200.693 33.5892 186.083 16.1344 166.243C16.1344 166.243 15.0579 165.705 13.6739 166.551C12.2129 167.473 12.2129 168.55 12.2129 168.55C12.2129 168.55 20.9787 187.621 26.515 201.616C28.3604 206.307 32.8971 209.383 37.9721 209.383H43.047Z" fill="#FF8B66"/>
<path d="M74.8054 226.3C74.8054 226.3 74.8823 232.836 70.5762 232.913C64.5786 233.067 64.3479 226.531 57.5044 226.761C50.6609 226.992 36.5895 228.684 32.1297 217.995C29.8229 212.459 32.9755 205.384 25.5169 200.078C18.0582 194.772 21.6722 188.774 25.5169 185.544C29.3615 182.315 23.8252 178.854 27.9006 177.239C28.8233 176.855 29.8229 176.932 30.6687 177.163C31.207 177.316 31.6683 177.624 32.1297 177.932C34.2827 179.316 35.7437 181.776 35.7437 181.776C46.9701 150.71 67.1161 146.634 67.1161 146.634L87.0314 153.478C87.5696 201.693 74.8054 226.3 74.8054 226.3Z" fill="#164353"/>
<path d="M93.8749 108.032C93.8749 108.032 89.2613 109.57 82.6485 108.57C76.0357 107.57 73.8827 103.418 69.2691 106.109C62.2719 110.108 65.5783 123.949 67.3468 131.101C67.962 133.792 68.8078 140.79 67.2699 146.634C67.2699 146.634 76.574 153.863 87.1852 153.478L92.9522 140.867C92.8753 140.867 105.486 125.795 93.8749 108.032Z" fill="#CFD8DC"/>
<path d="M82.0327 96.4969C82.0327 96.4969 82.8017 103.033 80.418 108.954C80.418 108.954 83.8782 114.03 87.1846 110.723C87.1846 110.723 87.4921 104.725 91.183 97.958C93.6436 93.421 82.0327 96.4969 82.0327 96.4969Z" fill="#EF6E4B"/>
<path d="M76.8035 96.7277C76.8035 96.7277 73.8811 94.8821 74.1887 97.7274C74.5732 101.034 77.8033 101.649 78.111 100.496C78.4955 99.3422 76.8035 96.7277 76.8035 96.7277Z" fill="#FF8B66"/>
<path d="M93.4889 93.1135C93.4889 93.1135 95.3347 90.1914 96.2575 92.8828C97.3342 96.0356 94.7194 97.9581 93.8734 97.1122C93.0274 96.2663 93.4889 93.1135 93.4889 93.1135Z" fill="#FF8B66"/>
<path d="M87.4158 106.57C82.1102 107.724 78.4193 104.956 76.1125 94.6514C74.8822 89.3454 76.8814 85.4237 82.8022 84.1164C88.723 82.8091 91.9525 85.5006 93.1059 90.8065C95.6433 101.88 92.8752 105.34 87.4158 106.57Z" fill="#FF8B66"/>
<path d="M92.1825 94.8821C92.4132 95.4204 92.0287 96.0356 91.4134 96.2662C90.7982 96.4969 90.106 96.3431 89.8753 95.8049C89.6446 95.2666 90.0291 94.6514 90.6444 94.4207C91.3365 94.19 92.0287 94.3438 92.1825 94.8821Z" fill="#DB614D"/>
<path d="M81.4176 97.5736C81.4945 98.1119 81.0331 98.6502 80.3409 98.7271C79.6488 98.804 79.0335 98.4964 78.9566 97.9581C78.8797 97.4198 79.3411 96.8816 80.0333 96.8047C80.7255 96.7278 81.3407 97.0354 81.4176 97.5736Z" fill="#DB614D"/>
<path d="M88.5697 90.0374C88.4928 90.0374 88.4928 90.0375 88.4159 89.9606C87.493 89.3454 86.2625 89.653 86.1856 89.653C86.0317 89.7299 85.8779 89.5761 85.8779 89.4223C85.8779 89.2685 85.9548 89.1147 86.1087 89.1147C86.1856 89.1147 87.6468 88.7302 88.7235 89.4992C88.8773 89.5761 88.8773 89.7299 88.8004 89.8837C88.7235 90.0374 88.6466 90.0374 88.5697 90.0374Z" fill="#0E3944"/>
<path d="M78.5722 92.2677C78.4953 92.2677 78.4953 92.2676 78.4184 92.1908C78.2646 92.1139 78.2646 91.9601 78.3415 91.8063C79.0337 90.6528 80.4949 90.3452 80.5718 90.3452C80.7256 90.3452 80.8795 90.4221 80.8795 90.5759C80.8795 90.7297 80.8026 90.8835 80.6487 90.8835C80.6487 90.8835 79.3413 91.1142 78.803 92.037C78.803 92.2677 78.7261 92.2677 78.5722 92.2677Z" fill="#0E3944"/>
<path d="M88.799 92.9594C88.9528 93.6515 88.799 94.1898 88.4144 94.2667C88.0299 94.3436 87.6454 93.8822 87.4916 93.1901C87.3377 92.498 87.4916 91.9598 87.8761 91.8829C88.1837 91.806 88.6452 92.2673 88.799 92.9594Z" fill="#1A4850"/>
<path d="M81.4181 94.4975C81.5719 95.1895 81.4181 95.7278 81.0336 95.8047C80.6491 95.8816 80.2645 95.4202 80.1107 94.7282C79.9569 94.0361 80.1107 93.4978 80.4952 93.4209C80.8798 93.4209 81.2643 93.8823 81.4181 94.4975Z" fill="#1A4850"/>
<path d="M83.8018 100.726C83.8018 100.726 87.1851 100.418 88.646 99.188C88.646 99.188 88.2616 101.803 86.4161 102.033C84.5707 102.187 83.8018 100.726 83.8018 100.726Z" fill="#1A4850"/>
<path d="M86.9534 93.0363C86.9534 93.0363 87.1072 91.3445 87.7224 91.2676C88.4146 91.2676 89.1837 92.498 89.1837 92.498L90.0296 91.8059L89.1068 92.1135C89.1068 92.1135 88.2608 90.8062 87.6455 90.8831C86.7227 91.1907 86.9534 93.0363 86.9534 93.0363Z" fill="#1A4850"/>
<path d="M81.8793 94.3434C81.8793 94.3434 81.0333 92.8054 80.418 93.113C79.8028 93.3437 79.649 94.8817 79.649 94.8817L78.5723 94.5741L79.5721 94.4972C79.5721 94.4972 79.7259 92.9592 80.3411 92.8054C81.1871 92.5747 81.8793 94.3434 81.8793 94.3434Z" fill="#1A4850"/>
<path d="M85.4915 97.6501L85.1839 97.1119C85.6453 96.8812 85.6453 96.5736 85.6453 96.3429C85.5684 96.0353 85.3377 95.8046 85.107 95.8046C85.0301 95.8046 84.8762 95.8815 84.8762 96.1122L84.3379 95.8815C84.5686 95.2663 85.0301 95.1894 85.1839 95.2663C85.6453 95.2663 86.1068 95.7277 86.1837 96.266C86.3375 96.8812 86.1067 97.3425 85.4915 97.6501Z" fill="#DB614D"/>
<path d="M77.188 98.573C77.188 98.573 75.5732 92.575 76.4959 88.3456C76.4959 88.3456 81.1095 81.9632 89.9522 85.116C89.9522 85.116 92.5666 89.3453 93.8738 95.2664C93.8738 95.2664 94.1814 93.1133 93.3355 88.4225C92.4897 83.6549 88.2606 80.7328 82.4936 81.6556C76.7266 82.6552 70.5752 88.3456 77.188 98.573Z" fill="#0E3944"/>
<path d="M86.4912 83.8088C86.4912 83.8088 86.8757 85.3467 85.3378 89.4223C85.3378 89.4223 84.2613 88.2688 82.9541 89.4223C81.647 90.5758 79.1095 90.1913 78.1868 90.8065C77.264 91.4216 77.264 92.8058 77.264 92.8058C77.264 92.8058 76.4951 91.0372 77.264 88.9609C77.264 88.9609 75.5724 91.1909 75.8031 93.8824C75.8031 93.8824 73.4963 93.4979 73.5732 89.653C73.6501 85.8081 79.1864 79.5025 85.3378 79.9639C91.4893 80.3484 92.9502 90.1144 92.9502 90.1144C92.9502 90.1144 92.412 89.653 91.4893 89.8837C91.4893 89.8837 91.3355 87.8075 89.9514 85.1929C89.9514 85.1929 90.5665 87.0385 89.9514 89.1147C89.9514 89.1147 88.2598 88.1919 86.8757 88.4995C86.8757 88.4226 87.7215 86.8078 86.4912 83.8088Z" fill="#0E3944"/>
<path d="M67.6537 107.416C70.6526 105.032 72.9594 108.031 73.5745 112.184C74.1128 116.336 68.7303 140.867 64.5011 140.021C62.8864 139.636 62.1943 133.254 62.1943 133.254C62.1943 133.254 63.8091 126.333 64.8856 115.952C65.4238 111.107 66.039 108.647 67.6537 107.416Z" fill="#FF8B66"/>
<path d="M58.888 136.484C54.8126 132.639 47.5847 119.874 45.7393 113.338L48.815 112.107C48.815 112.107 58.0422 125.334 62.2713 128.64C66.5004 131.947 67.9614 135.715 66.1159 138.868C64.1936 142.097 59.7338 137.33 58.888 136.484Z" fill="#FF8B66"/>
<path d="M47.0474 104.879C46.8168 109.032 50.2769 110.031 48.7391 113.261C48.4315 113.953 47.9701 114.261 47.4319 114.414C46.5092 114.722 45.4327 114.414 44.7406 113.722C43.1259 112.107 40.5884 110.339 39.2812 109.57C37.7434 108.724 38.5892 108.493 38.5892 108.493C38.4354 108.416 38.2816 108.339 38.1278 108.339C37.0513 107.878 36.2055 107.724 36.9744 107.263C37.8203 106.725 40.9729 107.878 40.9729 107.878C36.8975 105.187 35.821 105.802 36.5131 105.264C37.5127 104.495 41.3573 106.263 41.5111 106.34C39.3581 104.341 37.8203 103.879 38.6661 103.572C39.5119 103.264 43.8179 106.34 45.3558 107.494C45.7402 107.724 45.894 107.955 45.894 107.955C45.9709 104.418 47.0474 104.879 47.0474 104.879Z" fill="#FF8B66"/>
<path d="M45.4297 107.417C45.8143 107.647 45.9681 107.878 45.9681 107.878C45.9681 107.878 45.2759 109.108 46.1988 110.723C46.1988 110.646 44.5069 109.493 45.4297 107.417Z" fill="#EF6E4B"/>
<path d="M41.8947 109.8C41.5101 109.57 39.5105 108.416 38.6646 108.493C38.5108 108.416 38.3569 108.339 38.2031 108.339C38.8184 107.57 41.5101 109.493 41.8947 109.8Z" fill="#EF6E4B"/>
<path d="M58.0425 171.78C58.0425 172.241 57.658 172.626 57.1966 172.626C56.7351 172.626 56.3506 172.241 56.3506 171.78C56.3506 171.319 56.7351 170.934 57.1966 170.934C57.658 170.934 58.0425 171.319 58.0425 171.78Z" fill="#6097B2"/>
<path d="M72.6519 177.393C72.6519 177.855 72.2674 178.239 71.8059 178.239C71.3445 178.239 70.96 177.855 70.96 177.393C70.96 176.932 71.3445 176.547 71.8059 176.547C72.2674 176.547 72.6519 176.932 72.6519 177.393Z" fill="#6097B2"/>
<path d="M85.1099 180.469C85.1099 180.93 84.7254 181.315 84.2639 181.315C83.8025 181.315 83.418 180.93 83.418 180.469C83.418 180.008 83.8025 179.623 84.2639 179.623C84.7254 179.623 85.1099 180.008 85.1099 180.469Z" fill="#6097B2"/>
<path d="M65.9615 161.014C65.9615 161.475 65.5769 161.86 65.1155 161.86C64.6541 161.86 64.2695 161.475 64.2695 161.014C64.2695 160.552 64.6541 160.168 65.1155 160.168C65.5769 160.168 65.9615 160.552 65.9615 161.014Z" fill="#6097B2"/>
<path d="M67.885 169.703C68.3523 169.703 68.731 169.325 68.731 168.858C68.731 168.39 68.3523 168.012 67.885 168.012C67.4178 168.012 67.0391 168.39 67.0391 168.858C67.0391 169.325 67.4178 169.703 67.885 169.703Z" fill="#6097B2"/>
<path d="M81.7252 173.318C81.7252 173.779 81.3406 174.163 80.8792 174.163C80.4177 174.163 80.0332 173.779 80.0332 173.318C80.0332 172.856 80.4177 172.472 80.8792 172.472C81.3406 172.472 81.7252 172.856 81.7252 173.318Z" fill="#6097B2"/>
<path d="M83.4927 159.861C83.4927 160.322 83.1082 160.706 82.6468 160.706C82.1853 160.706 81.8008 160.322 81.8008 159.861C81.8008 159.399 82.1853 159.015 82.6468 159.015C83.1082 159.015 83.4927 159.399 83.4927 159.861Z" fill="#6097B2"/>
<path d="M74.1917 157.861C74.6589 157.861 75.0377 157.482 75.0377 157.015C75.0377 156.548 74.6589 156.169 74.1917 156.169C73.7245 156.169 73.3457 156.548 73.3457 157.015C73.3457 157.482 73.7245 157.861 74.1917 157.861Z" fill="#6097B2"/>
<path d="M50.7369 187.775C50.7369 188.236 50.3523 188.62 49.8909 188.62C49.4295 188.62 49.0449 188.236 49.0449 187.775C49.0449 187.313 49.4295 186.929 49.8909 186.929C50.3523 186.929 50.7369 187.313 50.7369 187.775Z" fill="#6097B2"/>
<path d="M39.0494 184.237C39.0494 184.698 38.6648 185.083 38.2034 185.083C37.742 185.083 37.3574 184.698 37.3574 184.237C37.3574 183.776 37.742 183.391 38.2034 183.391C38.6648 183.468 39.0494 183.853 39.0494 184.237Z" fill="#6097B2"/>
<path d="M32.0528 177.855C31.899 178.086 31.6683 178.239 31.3606 178.239C30.8992 178.239 30.5146 177.855 30.5146 177.394C30.5146 177.317 30.5147 177.163 30.5916 177.086C31.1299 177.317 31.5913 177.547 32.0528 177.855Z" fill="#6097B2"/>
<path d="M54.1194 199.309C54.5866 199.309 54.9654 198.93 54.9654 198.463C54.9654 197.996 54.5866 197.617 54.1194 197.617C53.6522 197.617 53.2734 197.996 53.2734 198.463C53.2734 198.93 53.6522 199.309 54.1194 199.309Z" fill="#6097B2"/>
<path d="M33.9742 210.075C33.9742 210.536 33.5896 210.921 33.1282 210.921C32.6668 210.921 32.2822 210.536 32.2822 210.075C32.2822 209.613 32.6668 209.229 33.1282 209.229C33.5896 209.229 33.9742 209.613 33.9742 210.075Z" fill="#6097B2"/>
<path d="M41.7415 203.923C42.2087 203.923 42.5875 203.544 42.5875 203.077C42.5875 202.61 42.2087 202.231 41.7415 202.231C41.2743 202.231 40.8955 202.61 40.8955 203.077C40.8955 203.544 41.2743 203.923 41.7415 203.923Z" fill="#6097B2"/>
<path d="M28.8997 197.694C29.3669 197.694 29.7457 197.315 29.7457 196.848C29.7457 196.381 29.3669 196.002 28.8997 196.002C28.4325 196.002 28.0537 196.381 28.0537 196.848C28.0537 197.315 28.4325 197.694 28.8997 197.694Z" fill="#6097B2"/>
<path d="M40.0504 221.379C40.0504 221.84 39.6658 222.224 39.2044 222.224C38.7429 222.224 38.3584 221.84 38.3584 221.379C38.3584 220.917 38.7429 220.533 39.2044 220.533C39.6658 220.533 40.0504 220.917 40.0504 221.379Z" fill="#6097B2"/>
<path d="M47.8921 178.239C47.8921 178.7 47.5076 179.085 47.0462 179.085C46.5847 179.085 46.2002 178.7 46.2002 178.239C46.2002 177.778 46.5847 177.393 47.0462 177.393C47.5076 177.393 47.8921 177.778 47.8921 178.239Z" fill="#6097B2"/>
<path d="M55.7339 164.398C55.7339 164.859 55.3494 165.244 54.888 165.244C54.4265 165.244 54.042 164.859 54.042 164.398C54.042 163.936 54.4265 163.552 54.888 163.552C55.4263 163.552 55.7339 163.936 55.7339 164.398Z" fill="#6097B2"/>
<path d="M64.6548 152.863C64.6548 153.324 64.2703 153.709 63.8089 153.709C63.3474 153.709 62.9629 153.324 62.9629 152.863C62.9629 152.402 63.3474 152.017 63.8089 152.017C64.3472 152.094 64.6548 152.478 64.6548 152.863Z" fill="#6097B2"/>
<path d="M46.5855 169.627C46.5855 170.088 46.201 170.473 45.7395 170.473C45.2781 170.473 44.8936 170.088 44.8936 169.627C44.8936 169.165 45.2781 168.781 45.7395 168.781C46.201 168.781 46.5855 169.242 46.5855 169.627Z" fill="#6097B2"/>
<path d="M56.5826 156.247C56.5826 156.708 56.198 157.093 55.7366 157.093C55.2752 157.093 54.8906 156.708 54.8906 156.247C54.8906 155.785 55.2752 155.401 55.7366 155.401C56.198 155.401 56.5826 155.785 56.5826 156.247Z" fill="#6097B2"/>
<path d="M40.897 193.157C40.897 193.619 40.5125 194.003 40.0511 194.003C39.5896 194.003 39.2051 193.619 39.2051 193.157C39.2051 192.696 39.5896 192.312 40.0511 192.312C40.5125 192.312 40.897 192.696 40.897 193.157Z" fill="#6097B2"/>
<path d="M30.5923 185.929C30.5923 186.39 30.2078 186.775 29.7464 186.775C29.2849 186.775 28.9004 186.39 28.9004 185.929C28.9004 185.468 29.2849 185.083 29.7464 185.083C30.2078 185.083 30.5923 185.468 30.5923 185.929Z" fill="#6097B2"/>
<path d="M59.6555 184.314C60.1228 184.314 60.5015 183.935 60.5015 183.468C60.5015 183.001 60.1228 182.622 59.6555 182.622C59.1883 182.622 58.8096 183.001 58.8096 183.468C58.8096 183.935 59.1883 184.314 59.6555 184.314Z" fill="#6097B2"/>
<path d="M76.6487 188.62C77.1159 188.62 77.4947 188.242 77.4947 187.775C77.4947 187.307 77.1159 186.929 76.6487 186.929C76.1815 186.929 75.8027 187.307 75.8027 187.775C75.8027 188.242 76.1815 188.62 76.6487 188.62Z" fill="#6097B2"/>
<path d="M76.6529 164.398C76.6529 164.859 76.2684 165.244 75.8069 165.244C75.3455 165.244 74.9609 164.859 74.9609 164.398C74.9609 163.936 75.3455 163.552 75.8069 163.552C76.2684 163.552 76.6529 163.936 76.6529 164.398Z" fill="#6097B2"/>
<path d="M86.4927 166.09C86.4927 166.551 86.1082 166.935 85.6468 166.935C85.1853 166.935 84.8008 166.551 84.8008 166.09C84.8008 165.628 85.1853 165.244 85.6468 165.244C86.1082 165.244 86.4927 165.705 86.4927 166.09Z" fill="#6097B2"/>
<path d="M66.8082 194.003C66.8082 194.464 66.4236 194.849 65.9622 194.849C65.5007 194.849 65.1162 194.464 65.1162 194.003C65.1162 193.542 65.5007 193.157 65.9622 193.157C66.4236 193.157 66.8082 193.542 66.8082 194.003Z" fill="#6097B2"/>
<path d="M58.8118 209.459C59.279 209.459 59.6578 209.081 59.6578 208.613C59.6578 208.146 59.279 207.768 58.8118 207.768C58.3446 207.768 57.9658 208.146 57.9658 208.613C57.9658 209.081 58.3446 209.459 58.8118 209.459Z" fill="#6097B2"/>
<path d="M46.2005 211.766C46.6677 211.766 47.0464 211.388 47.0464 210.921C47.0464 210.453 46.6677 210.075 46.2005 210.075C45.7332 210.075 45.3545 210.453 45.3545 210.921C45.3545 211.388 45.7332 211.766 46.2005 211.766Z" fill="#6097B2"/>
<path d="M80.8792 199.309C81.3464 199.309 81.7252 198.93 81.7252 198.463C81.7252 197.996 81.3464 197.617 80.8792 197.617C80.412 197.617 80.0332 197.996 80.0332 198.463C80.0332 198.93 80.412 199.309 80.8792 199.309Z" fill="#6097B2"/>
<path d="M70.3463 204.692C70.3463 205.153 69.9617 205.537 69.5003 205.537C69.0388 205.537 68.6543 205.153 68.6543 204.692C68.6543 204.23 69.0388 203.846 69.5003 203.846C69.9617 203.846 70.3463 204.23 70.3463 204.692Z" fill="#6097B2"/>
<path d="M53.273 222.993C53.273 223.455 52.8885 223.839 52.427 223.839C51.9656 223.839 51.5811 223.455 51.5811 222.993C51.5811 222.532 51.9656 222.147 52.427 222.147C52.9654 222.224 53.273 222.532 53.273 222.993Z" fill="#6097B2"/>
<path d="M65.1155 219.61C65.5827 219.61 65.9615 219.231 65.9615 218.764C65.9615 218.297 65.5827 217.918 65.1155 217.918C64.6483 217.918 64.2695 218.297 64.2695 218.764C64.2695 219.231 64.6483 219.61 65.1155 219.61Z" fill="#6097B2"/>
<path d="M77.344 214.765C77.8112 214.765 78.19 214.387 78.19 213.92C78.19 213.452 77.8112 213.074 77.344 213.074C76.8768 213.074 76.498 213.452 76.498 213.92C76.498 214.387 76.8768 214.765 77.344 214.765Z" fill="#6097B2"/>
<path d="M72.6519 227.992C72.6519 228.453 72.2674 228.838 71.8059 228.838C71.3445 228.838 70.96 228.453 70.96 227.992C70.96 227.53 71.3445 227.146 71.8059 227.146C72.2674 227.146 72.6519 227.607 72.6519 227.992Z" fill="#6097B2"/>
<path d="M71.7296 271.285H58.2733C57.4275 268.747 59.0423 266.287 58.7347 264.057C58.2733 260.289 60.4263 262.365 60.4263 262.365C60.8108 258.366 66.424 257.597 66.424 259.366C66.3471 261.98 66.8085 263.672 67.5774 264.749C69.1153 266.979 71.5758 266.902 72.0372 268.517C72.1141 268.67 72.1141 268.824 72.1141 268.978C72.5755 270.901 71.7296 271.285 71.7296 271.285Z" fill="#164353"/>
<path d="M72.1143 268.901C69.3462 269.516 62.8872 268.671 62.6565 267.056C62.4258 265.518 65.886 264.749 67.5777 264.672C69.1155 266.902 71.5761 266.825 72.0375 268.44C72.1143 268.594 72.1143 268.747 72.1143 268.901Z" fill="#205260"/>
<path d="M16.3664 166.858C14.9054 165.551 12.5986 167.704 12.5986 167.704C12.5986 167.704 13.8289 169.549 13.06 170.318C12.2142 171.087 11.2914 169.319 9.67668 170.088C9.5229 170.165 9.446 170.241 9.29222 170.318C8.06193 171.087 6.75474 172.625 5.67824 173.779C5.44756 174.009 5.29377 174.24 5.06309 174.471C3.8328 175.778 0.680185 176.47 0.0650399 173.087C-0.550105 169.703 3.29455 165.705 7.52367 162.013C11.7528 158.322 14.4441 160.552 14.4441 160.552C14.4441 160.552 15.3668 162.09 15.3668 163.09C15.3668 164.013 16.2126 164.551 16.674 165.474C17.2891 166.243 16.3664 166.858 16.3664 166.858Z" fill="#164353"/>
<path d="M9.29139 170.318C8.0611 171.087 6.75391 172.625 5.67741 173.779C4.06266 174.163 2.67858 174.01 2.4479 172.549C1.90965 168.934 9.06071 164.397 8.52246 166.935C8.21488 168.242 8.75314 169.396 9.29139 170.318Z" fill="#205260"/>
<path d="M258.885 265.441C258.192 265.057 257.577 264.288 257.039 263.365C257.039 263.365 256.578 260.52 257.039 257.444C257.5 254.445 256.193 251.984 251.964 251.062C247.812 250.139 245.351 252.138 246.274 260.52C245.659 263.98 245.505 267.979 246.966 271.286H259.73C259.73 271.286 261.806 266.902 258.885 265.441Z" fill="#CFD8DC"/>
<path d="M270.111 220.456C270.111 220.456 270.111 228.761 265.421 237.297C260.653 245.986 254.732 257.905 254.732 257.905C254.732 257.905 250.811 261.75 248.273 255.368C248.273 255.368 250.042 233.221 254.117 225.07C258.193 217.073 270.111 220.456 270.111 220.456Z" fill="#FF8B66"/>
<path d="M331.395 193.312C331.395 193.312 339.007 225.301 343.852 233.76C343.852 233.76 342.775 237.297 337.47 238.373C337.47 238.373 320.938 214.074 319.861 203.77C318.785 193.542 331.395 193.312 331.395 193.312Z" fill="#FF8B66"/>
<path d="M335.011 200.847C333.011 205.692 317.325 205.999 317.325 205.999L316.095 204.231L315.787 203.769L313.327 200.155C313.327 200.155 287.414 174.779 282.416 176.855C282.262 176.932 282.108 177.009 281.954 177.086C278.494 179.547 278.187 193.157 274.034 215.919C273.65 218.072 272.804 220.61 272.112 222.302C272.035 222.455 271.958 222.686 271.881 222.84C271.497 223.84 271.266 224.455 271.266 224.455C255.426 230.837 250.274 218.226 250.274 218.226C250.274 218.226 250.428 217.842 250.736 217.303C250.813 217.149 250.89 216.996 250.966 216.842C251.812 214.996 253.119 211.844 253.119 210.152C253.119 208.306 253.119 206.538 253.043 204.846C253.043 204.692 253.043 204.538 253.043 204.385C253.043 198.925 253.043 194.157 253.043 190.005V189.697C253.043 187.928 253.119 186.237 253.119 184.622V184.16C253.273 176.932 253.504 172.164 253.735 168.935C253.735 168.781 253.735 168.627 253.735 168.473C254.196 163.091 254.657 162.552 254.657 162.552L251.505 140.56H286.107C286.107 140.56 291.335 145.789 298.025 152.632C298.179 152.786 298.333 152.94 298.41 153.017C300.87 155.478 303.484 158.169 306.099 160.937C306.176 161.014 306.33 161.168 306.406 161.245C307.483 162.322 308.483 163.398 309.559 164.475C309.713 164.628 309.79 164.705 309.943 164.859C313.404 168.473 316.787 172.011 319.632 175.087C319.709 175.163 319.863 175.317 319.94 175.394C323.861 179.624 326.86 183.084 327.936 184.622C330.705 188.851 332.781 194.234 334.011 197.618C334.088 197.771 334.088 197.925 334.165 198.079C334.703 199.848 335.011 200.847 335.011 200.847Z" fill="#8B383E"/>
<path d="M259.886 165.936C258.502 167.628 256.426 168.628 253.812 169.012C253.812 168.858 253.812 168.704 253.812 168.551C256.272 168.166 258.271 167.243 259.579 165.629C261.962 162.86 261.578 159.015 261.578 159.015L262.039 158.938C262.039 159.092 262.424 162.937 259.886 165.936Z" fill="#662C33"/>
<path d="M298.489 153.094C298.335 153.094 298.258 153.094 298.104 153.094C294.259 153.094 290.261 148.865 290.03 148.711L290.338 148.403C290.415 148.48 294.413 152.633 298.104 152.71C298.181 152.786 298.335 152.94 298.489 153.094Z" fill="#662C33"/>
<path d="M272.268 222.379C272.191 222.533 272.114 222.763 272.037 222.917C269.499 223.84 267.116 224.224 264.963 224.224C258.119 224.224 253.429 220.303 250.814 217.304C250.891 217.15 250.968 216.996 251.045 216.842C254.352 220.764 261.426 226.531 272.268 222.379Z" fill="#662C33"/>
<path d="M281.496 169.012C282.034 171.473 282.419 174.164 282.419 176.933C282.265 177.009 282.111 177.086 281.957 177.163C281.957 164.244 274.499 154.248 274.422 154.094L274.729 153.863C274.806 153.94 279.189 159.938 281.342 168.551C282.188 168.012 282.803 167.167 283.034 166.09C284.11 161.553 279.189 154.171 279.189 154.094L279.574 153.863C279.804 154.171 284.649 161.476 283.495 166.167C283.265 167.397 282.573 168.32 281.496 169.012Z" fill="#662C33"/>
<path d="M320.018 175.471C318.711 176.855 317.558 178.009 317.404 178.163L317.173 178.393L317.097 178.086C315.405 173.702 304.64 164.244 304.563 164.09L304.409 163.936L306.178 160.938C306.255 161.014 306.408 161.168 306.485 161.245L304.947 163.706C307.024 164.398 308.561 164.552 309.561 164.398C309.715 164.552 309.792 164.629 309.945 164.782C309.561 164.859 309.253 164.859 308.792 164.859C307.792 164.859 306.716 164.629 305.486 164.321C307.946 166.551 315.482 173.549 317.25 177.47C317.942 176.778 318.788 175.933 319.634 175.01C319.788 175.24 319.942 175.394 320.018 175.471Z" fill="#662C33"/>
<path d="M260.963 204.846H260.809C260.656 204.923 258.733 205.307 256.503 205.307C255.35 205.307 254.197 205.231 253.12 204.923C253.12 204.769 253.12 204.615 253.12 204.462C255.965 205.307 259.733 204.615 260.579 204.462L259.887 186.698C259.502 187.698 258.656 189.005 257.195 189.774C256.503 190.159 255.658 190.312 254.812 190.312C254.273 190.312 253.735 190.236 253.197 190.159V189.697C254.658 190.005 255.965 189.928 257.042 189.39C258.887 188.467 259.579 186.544 259.81 185.775C258.349 186.006 255.504 185.237 253.351 184.622V184.161C255.734 184.853 258.887 185.699 260.04 185.314L260.348 185.237L260.963 204.846Z" fill="#662C33"/>
<path d="M334.167 198.156C331.706 200.617 326.631 204.385 318.788 204.385C317.942 204.385 317.096 204.308 316.174 204.231L315.866 203.769C325.401 204.846 331.322 200.386 334.013 197.771C334.09 197.925 334.167 198.079 334.167 198.156Z" fill="#662C33"/>
<path d="M292.489 46.9754C292.489 46.9754 291.566 44.8223 287.491 44.8223C284.415 44.8223 283.185 46.514 283.185 46.514C281.339 51.8968 279.34 72.6592 278.648 73.3512C278.264 73.7357 255.35 89.1921 255.35 89.1921C267.806 89.4228 275.572 104.802 275.572 104.802C275.957 99.7271 290.028 79.8106 290.182 77.9651C290.567 74.5816 296.487 59.5866 292.489 46.9754Z" fill="#CE364C"/>
<path d="M252.734 155.247C252.734 155.247 252.657 159.553 254.041 159.861C255.425 160.169 266.806 163.475 279.877 157.554C292.949 151.633 295.256 147.173 291.411 143.943C287.567 140.637 252.734 155.247 252.734 155.247Z" fill="#CE364C"/>
<path d="M247.427 92.191C247.427 92.191 235.509 90.8069 228.665 93.729C228.665 93.729 226.743 102.188 236.124 121.105C245.505 140.021 243.352 151.94 253.886 156.4C263.267 160.399 290.949 148.557 291.795 144.635C293.948 134.792 277.031 117.413 276.032 107.34C275.032 97.2663 265.19 82.1944 247.427 92.191Z" fill="#F24052"/>
<path d="M228.744 93.7291C220.44 96.6512 211.059 106.033 211.059 110.57C211.059 115.107 218.902 116.798 218.902 116.798L231.743 110.57C231.743 110.57 235.434 108.032 233.05 100.573C230.666 93.037 228.744 93.7291 228.744 93.7291Z" fill="#CE364C"/>
<path d="M262.885 102.034C260.424 102.034 257.349 101.111 255.426 99.8038C254.35 99.0349 253.735 98.189 253.581 97.3431C253.119 94.421 255.964 92.883 256.118 92.8062L256.503 93.5751C256.426 93.652 254.042 94.8824 254.427 97.1893C254.504 97.8045 255.042 98.4966 255.888 99.1117C258.041 100.65 261.731 101.572 264.192 101.111C265.269 100.957 265.961 100.496 266.345 99.9576C266.73 99.2655 266.422 98.4197 266.422 98.4197L267.191 98.1121C267.191 98.189 267.652 99.2655 267.114 100.342C266.653 101.188 265.73 101.726 264.423 101.957C263.884 101.957 263.423 102.034 262.885 102.034Z" fill="#CFD8DC"/>
<path d="M252.349 111.031C250.503 111.031 247.428 110.262 247.043 107.263C246.812 105.725 246.966 104.418 247.12 103.341C247.274 101.649 247.428 100.342 246.505 98.8041C244.89 96.1896 242.737 96.0358 242.66 96.0358L242.737 95.1899C242.814 95.1899 245.428 95.3437 247.274 98.3427C248.427 100.188 248.196 101.726 248.043 103.418C247.889 104.571 247.812 105.725 247.966 107.186C248.427 110.416 252.579 110.262 252.733 110.262L252.81 111.108C252.579 111.031 252.502 111.031 252.349 111.031Z" fill="#CFD8DC"/>
<path d="M254.964 95.7284C254.964 95.7284 261.269 91.4222 259.731 86.8083C258.27 82.1945 237.971 82.5021 232.742 88.0387C227.513 93.5753 244.045 97.2664 244.045 97.2664C245.352 94.6519 253.503 94.3443 254.964 95.7284Z" fill="#CE364C"/>
<path d="M243.661 94.9594C240.662 93.9597 238.893 91.8066 239.508 89.269C240.124 86.8082 252.965 86.7313 255.425 88.7307C257.886 90.73 254.426 98.6505 243.661 94.9594Z" fill="#A02E44"/>
<path d="M242.2 87.9621C242.2 87.9621 244.815 92.499 243.584 94.9597C243.584 94.9597 252.658 98.1125 252.658 93.0373C252.658 93.0373 250.966 89.2693 251.581 86.8086L242.2 87.9621Z" fill="#EF6E4B"/>
<path d="M239.199 84.0399C239.199 84.0399 234.74 76.8884 235.124 70.1215C235.355 66.738 237.046 65.3538 237.046 65.3538C237.046 65.3538 235.662 63.3545 237.123 60.3555C237.123 60.3555 239.199 62.8162 246.581 62.0472C253.655 61.2782 254.424 66.3535 254.424 66.3535C259.499 67.1225 256.039 82.502 252.502 84.0399H239.199Z" fill="#FFB878"/>
<path d="M237.278 77.4269C237.278 77.4269 234.74 74.8893 234.433 77.8883C234.048 81.3487 237.201 82.7329 237.817 81.6563C238.432 80.5797 237.278 77.4269 237.278 77.4269Z" fill="#FF8B66"/>
<path d="M255.195 77.6574C255.195 77.6574 257.733 75.1198 258.04 78.1188C258.425 81.5792 255.272 82.9633 254.657 81.8868C254.118 80.7333 255.195 77.6574 255.195 77.6574Z" fill="#FF8B66"/>
<path d="M245.967 89.961C240.277 89.961 237.048 86.2699 237.048 75.1198C237.048 69.3525 239.97 65.8921 246.352 65.8921C252.734 65.8921 255.425 69.4294 255.425 75.1198C255.425 87.1158 251.888 89.961 245.967 89.961Z" fill="#FF8B66"/>
<path d="M253.58 79.1184C253.657 79.6566 253.196 80.2718 252.504 80.3487C251.812 80.5025 251.119 80.118 251.043 79.5028C250.966 78.9646 251.427 78.3494 252.119 78.2725C252.811 78.1956 253.427 78.5801 253.58 79.1184Z" fill="#DB614D"/>
<path d="M241.893 79.4259C241.893 80.0411 241.201 80.4256 240.509 80.4256C239.816 80.3487 239.201 79.8873 239.278 79.2721C239.278 78.6569 239.97 78.2725 240.662 78.2725C241.354 78.3494 241.893 78.8876 241.893 79.4259Z" fill="#DB614D"/>
<path d="M251.045 73.1204C250.968 73.1204 250.891 73.1204 250.814 73.0435C249.891 72.3514 248.584 72.5821 248.507 72.5821C248.353 72.5821 248.199 72.5052 248.199 72.3514C248.199 72.1976 248.276 72.0438 248.43 72.0438C248.507 72.0438 250.045 71.7362 251.199 72.5821C251.352 72.659 251.352 72.8897 251.275 72.9666C251.199 73.1204 251.122 73.1204 251.045 73.1204Z" fill="#FFB878"/>
<path d="M240.2 73.1976C240.124 73.1976 240.047 73.1207 240.047 73.1207C239.97 72.9669 239.97 72.8131 240.124 72.7362C241.2 71.8903 242.738 72.121 242.815 72.121C242.969 72.121 243.046 72.2748 243.046 72.4286C243.046 72.5824 242.892 72.6593 242.738 72.6593C242.738 72.6593 241.354 72.4286 240.508 73.1976C240.354 73.1976 240.277 73.1976 240.2 73.1976Z" fill="#FFB878"/>
<path d="M250.427 76.3502C250.427 77.0423 250.12 77.6575 249.735 77.6575C249.351 77.6575 249.043 77.1192 249.043 76.3502C249.043 75.6582 249.351 75.043 249.735 75.043C250.12 75.1199 250.427 75.6582 250.427 76.3502Z" fill="#1A4850"/>
<path d="M242.891 76.3502C242.891 77.0423 242.584 77.6575 242.199 77.6575C241.814 77.6575 241.507 77.1192 241.507 76.3502C241.507 75.6582 241.814 75.043 242.199 75.043C242.584 75.043 242.891 75.6582 242.891 76.3502Z" fill="#1A4850"/>
<path d="M238.815 67.1223C238.815 67.1223 244.89 69.3524 253.579 68.7372C253.579 68.7372 255.424 71.0441 255.193 79.1952C255.193 79.1952 260.268 64.5078 245.428 64.5078C230.587 64.5078 237.277 78.8108 237.277 78.8108C237.277 78.8108 236.124 69.8906 238.815 67.1223Z" fill="#FFB878"/>
<path d="M246.352 80.1183L245.891 79.6569L247.044 78.5034C245.968 76.9655 245.968 73.4282 245.968 73.2744H246.583C246.583 73.2744 246.583 77.1193 247.659 78.3496L247.89 78.5803L246.352 80.1183Z" fill="#DB614D"/>
<path d="M242.583 82.0407C242.583 82.0407 248.196 82.2714 250.964 81.5024C250.964 81.5024 251.426 85.578 247.12 85.8087C242.583 85.9625 242.583 82.0407 242.583 82.0407Z" fill="#1A4850"/>
<path d="M266.5 97.4201C267.576 97.1894 267.423 100.035 266.5 99.1887C265.5 98.3429 265.423 97.5739 266.5 97.4201Z" fill="#CFD8DC"/>
<path d="M253.581 110.954C253.427 112.031 250.812 111.031 251.889 110.339C253.043 109.724 253.812 109.877 253.581 110.954Z" fill="#CFD8DC"/>
<path d="M242.124 116.722C242.124 116.722 240.432 121.105 240.509 123.489C240.586 125.949 241.431 125.642 241.431 125.642C241.431 125.642 240.124 126.18 239.894 127.564C239.663 128.948 243.2 130.025 243.431 130.025C243.661 130.025 246.199 129.102 246.199 129.102L246.737 121.105L244.507 119.721L242.124 116.722Z" fill="#EF6E4B"/>
<path d="M243.507 116.183C243.507 116.183 246.583 118.106 247.813 119.259C249.044 120.412 248.352 129.486 247.813 129.948C247.275 130.409 243.353 131.255 242.585 130.794C241.816 130.332 242.892 127.641 242.892 127.641C242.892 127.641 244.891 127.179 244.584 127.948C244.276 128.717 244.584 129.333 244.584 129.333L245.43 129.025C245.43 129.025 245.045 127.026 245.43 125.488C245.814 124.027 242.661 122.412 242.277 119.72C241.816 116.952 243.507 116.183 243.507 116.183Z" fill="#FF8B66"/>
<path d="M211.522 111.8C210.522 107.571 214.751 106.033 220.672 106.725C227.515 107.571 241.51 109.339 244.586 116.722C244.586 116.722 245.585 119.644 242.971 121.028C235.82 125.026 213.367 119.797 211.522 111.8Z" fill="#CE364C"/>
<path d="M232.895 108.955C232.895 108.955 224.744 105.572 220.669 105.264C216.67 104.88 226.282 108.417 232.895 108.955Z" fill="#A02E44"/>
<path d="M293.871 35.6715C293.256 36.3636 292.256 39.1319 292.256 39.1319C291.795 41.4388 291.564 42.6691 290.795 43.7457C290.027 44.8223 290.411 46.6678 290.411 46.6678C290.411 46.6678 287.335 48.2827 284.721 46.2833C284.721 46.2833 285.029 44.4378 284.721 43.8995C284.183 42.8229 282.491 42.2847 281.876 40.2084C281.261 38.1322 279.492 35.7484 279.492 35.7484C279.492 35.7484 280.03 34.6718 280.953 35.287C281.876 35.9791 282.491 37.6708 282.952 37.8246C283.029 37.8246 283.183 37.9015 283.26 37.9015C283.644 37.9784 284.029 37.9015 284.26 37.6708C284.26 37.6708 284.336 37.6708 284.336 37.5939C285.182 36.5942 285.413 33.749 285.336 32.4418C285.259 30.6731 285.336 28.1355 286.413 28.5969C287.489 28.9814 286.489 29.9811 287.335 33.9797L287.72 34.0566C287.797 34.3642 288.566 31.6728 288.719 29.1352C288.873 27.3665 289.95 28.0586 290.257 28.5969C290.488 29.1352 290.103 30.9038 290.027 32.1342C289.95 32.9801 289.873 33.8259 289.873 34.3642L290.334 34.5949C292.026 31.5959 291.488 30.3655 292.487 30.2886C293.487 30.2118 293.102 32.7494 292.564 33.749C292.333 34.1335 292.103 35.0563 291.949 35.9022C293.717 33.8259 293.487 32.8263 294.333 32.9032C295.255 32.9032 294.486 34.9794 293.871 35.6715Z" fill="#FF8B66"/>
<path d="M286.259 40.3623C285.644 38.7475 283.49 37.9785 283.26 37.9016C283.644 37.9785 284.029 37.9016 284.26 37.6709C286.413 38.5168 286.259 40.3623 286.259 40.3623Z" fill="#EF6E4B"/>
<path d="M249.198 258.751C249.198 258.751 248.045 256.367 249.044 255.291C250.121 254.291 251.351 256.213 253.12 255.752C254.888 255.291 255.35 254.06 255.811 255.752C256.272 257.521 255.734 262.98 249.198 258.751Z" fill="#CFD8DC"/>
<path d="M255.965 258.597C255.965 258.597 251.121 260.289 248.66 258.597L249.275 260.673C249.275 260.673 254.504 261.212 255.273 259.904L255.965 258.597Z" fill="#ADBEC4"/>
<path d="M255.887 261.212C255.887 261.212 251.428 260.596 249.352 261.673V262.673C249.352 262.673 255.119 261.288 256.964 262.673L255.887 261.212Z" fill="#ADBEC4"/>
<path d="M249.121 264.903C249.121 264.903 249.967 262.827 252.658 262.673C255.349 262.519 257.195 263.98 257.195 263.98C257.195 263.98 252.889 262.212 249.121 264.903Z" fill="#ADBEC4"/>
<path d="M362.999 235.835C354.541 247.139 342.93 249.369 342.93 249.369C339.547 246.678 339.47 243.525 339.47 243.525C339.47 243.525 336.24 240.603 335.779 239.219C335.318 237.835 338.547 233.682 340.469 234.067C341.777 234.374 342.546 235.451 342.93 236.066C341.315 232.452 342.622 231.222 344.852 231.529C347.236 231.837 345.006 232.375 346.698 234.298C346.852 234.451 346.928 234.528 347.082 234.682C347.39 234.913 347.774 235.067 348.159 235.143C348.543 235.22 348.928 235.22 349.389 235.22C349.62 235.22 349.85 235.22 350.081 235.143C350.542 235.067 350.927 234.99 351.388 234.836C352.08 234.605 352.849 234.298 353.541 233.913C356.463 232.298 357.693 231.76 359.923 232.298C362.153 232.836 362.153 234.528 362.153 234.528L362.999 235.835Z" fill="#CFD8DC"/>
<path d="M363 235.836C354.542 247.14 342.931 249.37 342.931 249.37C348.851 246.832 354.234 243.526 357.925 239.45C361.693 235.298 363 235.836 363 235.836Z" fill="#ADBEC4"/>
<path d="M347.161 234.682C347.469 234.913 347.853 235.067 348.238 235.144C346.007 235.605 345.854 237.604 345.854 237.604L344.931 237.297C345.084 234.836 347.007 234.682 347.161 234.682Z" fill="#ADBEC4"/>
<path d="M348.619 237.836H347.619C347.235 236.452 347.696 235.606 348.235 235.067C348.619 235.144 349.004 235.144 349.465 235.144C348.235 236.375 348.619 237.836 348.619 237.836Z" fill="#ADBEC4"/>
<path d="M351.081 237.297L350.082 237.451C349.697 236.451 349.774 235.682 350.082 235.144C350.543 235.067 350.928 234.99 351.389 234.836C350.62 235.99 351.081 237.297 351.081 237.297Z" fill="#ADBEC4"/>
<path d="M256.042 131.947C256.042 131.947 258.272 143.789 253.812 148.48C249.352 153.171 252.274 149.326 253.658 143.251C254.965 137.176 253.966 130.794 256.042 131.947Z" fill="#CE364C"/>
<path d="M276.493 126.718C276.493 126.718 283.49 129.025 287.104 135.485C287.181 135.485 282.26 124.95 276.493 126.718Z" fill="#CE364C"/>
<path d="M95.0297 38.8245C95.9524 38.8245 98.6436 39.9011 98.6436 39.9011C100.643 41.1314 101.719 41.8235 103.027 41.9004C104.334 42.0542 104.872 44.2842 104.872 44.2842C104.872 44.2842 110.024 45.4377 110.331 42.1311C110.331 42.1311 107.409 38.0555 107.256 37.5172C106.871 36.4407 107.563 34.7489 106.41 32.9034C105.256 31.0578 104.718 28.1357 104.718 28.1357C104.718 28.1357 103.565 27.7512 103.411 28.9047C103.257 30.0582 104.103 31.5961 103.949 32.1344C103.872 32.2113 103.872 32.2882 103.795 32.442C103.565 32.7496 103.257 32.9803 102.95 32.9803H102.873C101.566 32.9803 99.3357 31.1347 98.413 30.2889C97.1058 29.0585 95.2603 27.4437 94.799 28.5202C94.3376 29.5968 95.7986 29.5199 98.1823 32.8265L97.9516 33.1341C98.1054 33.3648 95.6448 32.1344 93.6456 30.5965C92.2615 29.5199 91.9539 30.8271 92.2615 31.3654C92.4922 31.9037 94.0301 32.8265 95.0297 33.5955C95.7217 34.1337 96.3368 34.672 96.7982 34.9796L96.6444 35.5179C93.2611 34.7489 92.7229 33.5186 92.0308 34.2106C91.3388 34.9027 93.4149 36.3638 94.4914 36.5945C94.9528 36.6714 95.7217 37.1327 96.4906 37.5941C93.7994 37.5172 93.1073 36.6714 92.646 37.3634C92.1077 37.9786 94.1069 38.7476 95.0297 38.8245Z" fill="#FF8B66"/>
<path d="M103.641 36.2865C102.795 34.7486 103.718 32.6723 103.795 32.3647C103.564 32.6723 103.257 32.903 102.949 32.903C102.18 35.1331 103.641 36.2865 103.641 36.2865Z" fill="#EF6E4B"/>
<path d="M247.122 38.8245C246.199 38.8245 243.508 39.9011 243.508 39.9011C241.509 41.1314 240.432 41.8235 239.125 41.9004C237.818 42.0542 237.28 44.2842 237.28 44.2842C237.28 44.2842 232.128 45.4377 231.82 42.1311C231.82 42.1311 234.742 38.0555 234.896 37.5172C235.281 36.4407 234.588 34.7489 235.742 32.9034C236.895 31.0578 237.434 28.1357 237.434 28.1357C237.434 28.1357 238.587 27.7512 238.741 28.9047C238.894 30.0582 238.049 31.5961 238.202 32.1344C238.279 32.2113 238.279 32.2882 238.356 32.442C238.587 32.7496 238.894 32.9803 239.202 32.9803H239.279C240.586 32.9803 242.816 31.1347 243.739 30.2889C245.046 29.0585 246.891 27.4437 247.353 28.5202C247.814 29.5968 246.353 29.5199 243.969 32.8265L244.2 33.1341C244.046 33.3648 246.507 32.1344 248.506 30.5965C249.89 29.5199 250.198 30.8271 249.89 31.3654C249.66 31.9037 248.122 32.8265 247.122 33.5955C246.43 34.1337 245.815 34.672 245.354 34.9796L245.507 35.5179C248.891 34.7489 249.429 33.5186 250.121 34.2106C250.813 34.9027 248.737 36.3638 247.66 36.5945C247.199 36.6714 246.43 37.1327 245.661 37.5941C248.352 37.5172 249.044 36.6714 249.506 37.3634C250.044 37.9786 248.045 38.7476 247.122 38.8245Z" fill="#FF8B66"/>
<path d="M238.509 36.2865C239.355 34.7486 238.432 32.6723 238.355 32.3647C238.586 32.6723 238.894 32.903 239.201 32.903C239.971 35.1331 238.509 36.2865 238.509 36.2865Z" fill="#EF6E4B"/>
<path d="M201.679 195.541L191.759 134.023L171.844 136.253L151.929 134.023L142.01 195.541L137.242 255.214C137.242 255.214 138.78 260.135 148.699 256.752C148.699 256.752 156.081 201.386 157.234 200.232C158.388 199.002 170.076 162.86 170.076 162.86H173.766C173.766 162.86 185.454 199.002 186.608 200.232C187.761 201.463 195.143 256.752 195.143 256.752C205.062 260.135 206.6 255.214 206.6 255.214L201.679 195.541Z" fill="#0E3944"/>
<path d="M165.617 74.5049C166.847 75.7352 173.075 77.9653 176.305 74.5049L178.535 76.658C178.535 76.658 175.997 82.5791 171.614 82.8098C167.155 83.0405 164.002 77.5039 164.002 77.5039L165.617 74.5049Z" fill="#0C476B"/>
<path d="M183.148 73.8126C190.53 70.6598 214.444 62.1242 214.444 62.1242C214.444 62.1242 230.515 41.977 233.821 38.978C233.821 38.978 237.358 39.5932 238.435 44.0533C238.435 44.0533 228.054 66.1997 222.441 72.5822C216.828 78.8878 188.3 92.6525 188.3 92.6525L183.148 73.8126Z" fill="#0C476B"/>
<path d="M157.234 73.3513C159.464 71.9672 170.459 79.3493 170.459 79.3493C170.459 79.3493 184.838 71.7365 188.222 73.1975C188.222 73.1975 191.297 77.2731 192.451 87.7311C193.681 98.1892 193.758 141.175 193.758 141.175C193.758 141.175 184.069 144.558 170.998 144.558C156.08 144.558 148.083 140.252 148.083 140.252C148.083 140.252 145.469 80.7335 157.234 73.3513Z" fill="#FFB878"/>
<path d="M166.232 72.1978C166.232 72.1978 167.847 77.1961 166.232 79.1185C166.232 79.1185 167.847 82.5789 170.846 82.7327C174.306 82.8865 175.46 79.1185 175.46 79.1185C175.46 79.1185 173.614 74.274 175.46 72.5822L166.232 72.1978Z" fill="#EF6E4B"/>
<path d="M162.233 67.2767C162.233 67.2767 158.85 60.8173 159.542 53.9734C160.234 47.0526 170.614 45.5147 177.611 48.8982C177.611 48.8982 175.535 46.8989 176.381 46.2837C177.227 45.7454 178.611 49.3596 178.611 49.3596C178.611 49.3596 180.841 48.6675 181.149 49.3596C181.456 50.0516 178.919 50.4361 178.919 50.4361C178.919 50.4361 183.455 52.9738 179.226 66.277L162.233 67.2767Z" fill="#8B383E"/>
<path d="M161.695 63.2009C161.695 63.2009 159.234 60.7402 158.927 63.5854C158.542 66.9689 161.618 68.3531 162.234 67.2765C162.849 66.1999 161.695 63.2009 161.695 63.2009Z" fill="#FF8B66"/>
<path d="M179.228 63.4319C179.228 63.4319 181.689 60.9712 181.996 63.8164C182.381 67.1999 179.305 68.584 178.689 67.5075C178.074 66.4309 179.228 63.4319 179.228 63.4319Z" fill="#FF8B66"/>
<path d="M170.232 75.4279C164.696 75.4279 161.543 71.8137 161.543 60.9711C161.543 55.3576 164.388 51.9741 170.616 51.9741C176.845 51.9741 179.459 55.4345 179.459 60.9711C179.382 72.6596 175.922 75.4279 170.232 75.4279Z" fill="#FF8B66"/>
<path d="M177.613 64.8158C177.69 65.3541 177.228 65.8924 176.536 66.0462C175.844 66.2 175.229 65.8155 175.075 65.2772C174.998 64.7389 175.459 64.2006 176.151 64.0468C176.844 63.97 177.459 64.2775 177.613 64.8158Z" fill="#DB614D"/>
<path d="M166.156 65.1231C166.156 65.6613 165.541 66.1227 164.849 66.0458C164.157 65.9689 163.618 65.5076 163.618 64.9693C163.618 64.431 164.233 63.9696 164.926 64.0465C165.695 64.1234 166.233 64.5848 166.156 65.1231Z" fill="#DB614D"/>
<path d="M175.074 59.2024C174.997 59.2024 174.92 59.2024 174.843 59.1255C174.074 58.3565 172.766 58.3565 172.689 58.3565C172.536 58.3565 172.382 58.2796 172.382 58.1258C172.382 57.9721 172.459 57.8183 172.613 57.8183C172.689 57.8183 174.228 57.7414 175.15 58.741C175.227 58.8179 175.227 59.0486 175.15 59.1255C175.15 59.2024 175.074 59.2024 175.074 59.2024Z" fill="#8B383E"/>
<path d="M164.617 59.2024C164.54 59.2024 164.463 59.2024 164.463 59.1255C164.386 59.0486 164.386 58.8179 164.463 58.741C165.386 57.7414 166.924 57.8183 167.001 57.8183C167.155 57.8183 167.309 57.9721 167.232 58.1258C167.232 58.2796 167.078 58.4334 166.924 58.3565C166.924 58.3565 165.54 58.3565 164.771 59.1255C164.771 59.2024 164.694 59.2024 164.617 59.2024Z" fill="#8B383E"/>
<path d="M174.537 62.1244C174.537 62.8165 174.229 63.3548 173.845 63.3548C173.46 63.3548 173.152 62.8165 173.152 62.1244C173.152 61.4323 173.46 60.894 173.845 60.894C174.229 60.894 174.537 61.4323 174.537 62.1244Z" fill="#1A4850"/>
<path d="M167.154 62.1244C167.154 62.8165 166.846 63.3548 166.462 63.3548C166.077 63.3548 165.77 62.8165 165.77 62.1244C165.77 61.4323 166.077 60.894 166.462 60.894C166.846 60.894 167.154 61.4323 167.154 62.1244Z" fill="#1A4850"/>
<path d="M167.156 69.5068C167.156 69.5068 172.077 70.122 174.538 68.8916C174.538 68.8916 173.154 72.1982 170.463 71.8906C167.771 71.6599 167.156 69.5068 167.156 69.5068Z" fill="#1A4850"/>
<path d="M178.843 64.6622C178.843 64.6622 178.689 58.6642 176.306 53.9735C176.306 53.9735 172.153 55.8959 171.231 55.4345C170.308 54.9731 172.076 53.9735 172.076 53.9735C172.076 53.9735 165.233 56.2035 164.849 55.7421C164.464 55.2807 167.078 53.9735 167.078 53.9735L162.849 55.4345C162.849 55.4345 161.542 60.8942 162.08 64.6622C162.08 64.6622 160.235 61.5094 160.004 59.3563C159.774 57.2031 160.773 50.9744 167.155 50.5131C173.537 50.0517 177.151 51.5127 178.766 54.4348C180.381 57.3569 180.227 60.9711 178.843 64.6622Z" fill="#8B383E"/>
<path d="M171.153 67.7379C170.615 67.7379 170.077 67.5841 169.923 67.5841L170.077 67.0458C170.692 67.1996 171.538 67.2765 171.769 67.0458C171.846 66.9689 171.846 66.7382 171.692 66.5075C170.923 64.8158 170.692 60.5095 170.692 60.2788H171.307C171.307 60.3557 171.461 64.662 172.23 66.2768C172.461 66.7382 172.461 67.1227 172.23 67.4303C171.999 67.661 171.615 67.7379 171.153 67.7379Z" fill="#DB614D"/>
<path d="M177.305 76.0427C177.305 76.0427 187.301 107.186 188.3 132.485C188.3 132.485 191.914 133.485 195.99 127.948C200.065 122.412 197.604 78.4265 189.838 71.1212C189.838 71.1212 186.301 70.3523 177.305 76.0427Z" fill="#105E99"/>
<path d="M178.921 81.5024C178.921 81.5024 180.689 77.35 179.92 74.5048C179.151 71.6596 176.306 74.5048 176.306 74.5048C176.306 74.5048 177.459 79.1186 178.921 81.5024Z" fill="#0C476B"/>
<path d="M158.772 73.8128C151.39 70.66 127.476 62.1244 127.476 62.1244C127.476 62.1244 111.329 41.4389 108.099 38.4399C108.099 38.4399 104.024 40.7469 103.793 45.5145C103.793 45.5145 113.943 66.2768 119.556 72.6593C125.169 78.9649 153.697 92.7296 153.697 92.7296L158.772 73.8128Z" fill="#0C476B"/>
<path d="M164.615 76.0427C164.615 76.0427 154.619 107.186 153.62 132.485C153.62 132.485 150.006 133.485 145.93 127.948C141.855 122.412 144.315 78.4265 152.082 71.1212C152.082 71.1212 155.619 70.3523 164.615 76.0427Z" fill="#105E99"/>
<path d="M163.002 81.5024C163.002 81.5024 161.233 77.35 162.002 74.5048C162.771 71.6596 165.617 74.5048 165.617 74.5048C165.617 74.5048 164.463 79.1186 163.002 81.5024Z" fill="#0C476B"/>
<path d="M215.288 271.286H195.373C193.989 263.365 196.219 255.445 196.219 255.445L205.292 253.907C206.138 258.905 207.137 260.904 208.522 261.904C209.521 262.673 210.751 262.904 212.212 263.365C213.904 263.98 214.827 265.057 215.288 266.21C216.211 268.517 215.288 271.286 215.288 271.286Z" fill="#662C33"/>
<path d="M215.368 266.211C210.447 266.826 199.682 267.902 200.297 265.057C200.835 262.673 205.372 262.058 208.524 261.904C209.524 262.673 210.754 262.904 212.215 263.365C213.984 263.904 214.906 265.057 215.368 266.211Z" fill="#8B383E"/>
<path d="M148.622 271.286H128.707C128.707 271.286 128.092 269.44 128.4 267.441C128.63 265.826 129.476 264.134 131.783 263.365C133.475 262.75 134.859 262.519 135.935 261.52C137.089 260.443 138.011 258.367 138.703 253.907L147.777 255.445C147.854 255.445 150.007 263.365 148.622 271.286Z" fill="#662C33"/>
<path d="M128.4 267.441C128.631 265.826 129.477 264.134 131.784 263.365C133.475 262.75 134.859 262.519 135.936 261.52C138.473 262.289 142.01 263.75 143.087 265.903C144.548 268.825 132.937 268.363 128.4 267.441Z" fill="#8B383E"/>
<path d="M291.567 269.824C291.567 270.67 291.49 271.285 291.49 271.285H267.269C267.269 270.824 267.269 270.363 267.269 269.824C267.576 263.519 269.575 257.982 269.575 257.982L275.65 255.368C276.188 258.52 277.495 260.443 279.187 261.75C279.648 262.135 280.11 262.365 280.571 262.673C280.802 262.827 281.032 262.904 281.263 262.981C281.801 263.211 282.263 263.365 282.801 263.519C284.954 264.134 287.107 264.288 288.568 264.518C291.182 265.057 291.567 267.979 291.567 269.824Z" fill="#164353"/>
<path d="M291.568 269.824C291.568 270.67 291.491 271.285 291.491 271.285H267.27C267.27 270.824 267.27 270.363 267.27 269.824H291.568Z" fill="#225866"/>
<path d="M280.571 262.673L277.187 263.749L276.495 262.519L279.187 261.75C279.648 262.134 280.11 262.442 280.571 262.673Z" fill="#225866"/>
<path d="M282.801 263.596L280.571 265.134L279.187 264.596L281.263 263.058C281.724 263.288 282.263 263.442 282.801 263.596Z" fill="#225866"/>
<path d="M199.142 269.824C199.065 270.67 198.835 271.285 198.835 271.285H182.687C182.456 270.824 182.302 270.363 182.226 269.824C180.611 262.135 191.376 252.676 191.376 252.676L194.759 257.213C194.759 257.213 194.375 264.442 197.22 265.98C199.065 266.902 199.296 268.594 199.142 269.824Z" fill="#164353"/>
<path d="M182.302 269.825H199.141C199.064 270.671 198.834 271.286 198.834 271.286H182.686C182.609 270.747 182.456 270.286 182.302 269.825Z" fill="#225866"/>
<path d="M196.603 265.442C196.603 265.442 189.836 263.904 186.684 265.903V264.75C186.684 264.75 192.451 261.981 196.603 265.442Z" fill="#225866"/>
<path d="M195.219 263.673C195.219 263.673 190.913 261.673 186.684 263.673L187.145 262.519C187.222 262.519 192.22 260.674 195.219 263.673Z" fill="#225866"/>
<path d="M284.265 201.309C284.265 207.768 278.498 260.597 278.498 260.597C272.731 261.135 268.117 259.982 268.117 259.982C266.503 233.221 266.349 210.152 266.349 210.152L238.744 189.467L238.667 189.39C238.667 189.39 238.59 189.851 238.36 190.697C236.976 196.772 231.209 222.148 228.825 227.992C226.057 234.606 196.145 262.442 196.145 262.442C190.609 261.673 185.842 257.675 185.842 257.675C196.607 239.835 211.293 221.917 211.293 221.917C212.447 215.458 213.293 201.155 213.754 190.466C213.754 190.313 213.754 190.159 213.754 190.005C214.062 182.777 214.215 177.317 214.215 177.317L209.14 166.936L241.282 155.17L248.51 164.398C248.51 164.398 250.124 165.936 252.739 168.397C252.893 168.474 252.969 168.627 253.123 168.704C262.812 177.855 284.265 198.387 284.265 201.309Z" fill="#8BBDDB"/>
<path d="M213.829 190.62C213.829 190.466 213.829 190.313 213.829 190.159C220.596 186.468 219.442 180.624 219.442 180.547L219.827 180.47C219.904 180.47 221.134 186.775 213.829 190.62Z" fill="#6097B2"/>
<path d="M238.358 185.391C238.588 186.698 238.742 188.082 238.819 189.544L238.742 189.467C238.742 189.467 238.665 189.928 238.434 190.774C238.127 180.7 233.975 174.779 233.975 174.702L234.359 174.472C234.436 174.549 237.05 178.317 238.281 184.853C243.202 180.547 238.358 171.626 238.358 171.55L238.742 171.319C238.742 171.473 243.817 180.931 238.358 185.391Z" fill="#6097B2"/>
<path d="M253.198 168.781C252.967 168.858 252.736 168.935 252.506 168.935C250.122 168.935 246.2 165.628 245.97 165.475L246.277 165.167C247.585 166.244 251.198 168.858 252.89 168.474C252.967 168.55 253.044 168.627 253.198 168.781Z" fill="#6097B2"/>
<path d="M211.522 111.8C211.522 111.8 221.288 110.262 226.209 113.338C231.13 116.491 237.512 124.565 237.512 124.565C237.512 124.565 229.9 125.565 229.054 130.717C229.054 130.794 223.441 117.567 211.522 111.8Z" fill="#ADBEC4"/>
<path d="M196.837 116.875C192.684 119.105 185.764 127.487 185.457 132.639C185.149 137.637 188.84 142.328 191.377 146.25C199.22 158.553 207.448 169.396 210.985 183.776C210.985 183.853 228.901 191.004 249.893 165.705C249.893 165.705 238.051 149.71 233.899 136.099C232.208 130.563 230.516 124.718 227.286 119.797C223.749 114.414 217.675 111.261 211.446 111.8C206.218 112.184 200.912 114.645 196.837 116.875Z" fill="#CFD8DC"/>
<path d="M195.142 111.723C195.142 111.723 197.756 116.26 196.526 118.721C196.526 118.721 205.599 121.874 205.599 116.799C205.599 116.799 203.907 113.031 204.523 110.57L195.142 111.723Z" fill="#EF6E4B"/>
<path d="M215.291 142.636C215.291 142.636 210.217 144.097 208.986 145.865C207.756 147.634 206.603 151.633 206.603 151.633H215.291L216.906 148.634L218.829 144.635L215.291 142.636Z" fill="#EF6E4B"/>
<path d="M206.907 106.648C206.907 106.648 210.444 105.187 208.138 94.4983C206.6 87.4237 204.447 86.4241 202.986 86.3472C202.986 86.3472 201.294 83.7326 195.296 84.963C191.221 85.8089 187.915 88.3465 186.454 92.9603C184.916 97.8049 187.992 108.109 191.913 109.109L206.907 106.648Z" fill="#164353"/>
<path d="M207.753 99.4966C207.753 99.4966 209.983 96.4207 210.829 99.4197C211.829 102.957 208.752 104.956 207.906 103.957C207.137 102.88 207.753 99.4966 207.753 99.4966Z" fill="#FF8B66"/>
<path d="M189.069 102.726C189.069 102.726 185.992 100.496 186.146 103.649C186.377 107.34 189.915 108.263 190.299 106.956C190.761 105.802 189.069 102.726 189.069 102.726Z" fill="#FF8B66"/>
<path d="M200.835 114.03C206.756 113.03 209.447 108.647 207.525 97.0356C206.525 91.0376 202.911 87.8848 196.221 88.9614C189.609 90.038 187.379 94.1904 188.378 100.188C190.531 112.646 194.684 115.03 200.835 114.03Z" fill="#FF8B66"/>
<path d="M191.067 104.033C191.067 104.648 191.683 105.187 192.452 105.187C193.221 105.187 193.836 104.725 193.836 104.11C193.836 103.495 193.221 102.957 192.452 102.957C191.683 102.88 191.067 103.418 191.067 104.033Z" fill="#DB614D"/>
<path d="M203.293 102.342C203.446 102.957 204.139 103.265 204.908 103.111C205.677 102.957 206.138 102.342 205.984 101.727C205.83 101.111 205.138 100.804 204.369 100.958C203.677 101.111 203.216 101.727 203.293 102.342Z" fill="#DB614D"/>
<path d="M192.758 97.5738C192.681 97.5738 192.604 97.5738 192.604 97.4969C192.45 97.42 192.45 97.1893 192.527 97.1124C193.373 95.8821 194.988 95.6514 195.065 95.6514C195.219 95.6514 195.373 95.7283 195.373 95.8821C195.373 96.0359 195.296 96.1896 195.142 96.1896C195.142 96.1896 193.681 96.4203 192.989 97.42C192.912 97.4969 192.835 97.5738 192.758 97.5738Z" fill="#1A4850"/>
<path d="M203.91 95.7285C203.833 95.7285 203.756 95.7285 203.756 95.6516C202.833 94.9595 201.372 95.1902 201.372 95.1902C201.218 95.1902 201.064 95.1133 200.987 94.9595C200.987 94.8057 201.064 94.6519 201.218 94.575C201.295 94.575 202.91 94.2674 204.14 95.1133C204.294 95.1902 204.294 95.4209 204.217 95.4978C204.064 95.6516 203.987 95.7285 203.91 95.7285Z" fill="#1A4850"/>
<path d="M193.836 100.573C193.989 101.342 194.374 101.88 194.758 101.803C195.143 101.726 195.374 101.111 195.297 100.342C195.143 99.5732 194.758 99.0349 194.374 99.1118C193.912 99.1887 193.682 99.8808 193.836 100.573Z" fill="#1A4850"/>
<path d="M201.756 99.2657C201.91 100.035 202.295 100.573 202.679 100.496C203.064 100.419 203.295 99.804 203.218 99.035C203.064 98.2661 202.679 97.7278 202.295 97.8047C201.833 97.8816 201.603 98.5736 201.756 99.2657Z" fill="#1A4850"/>
<path d="M203.984 105.956C203.984 105.956 198.832 107.34 195.987 106.802C195.987 106.802 197.987 109.263 200.755 108.571C203.6 107.878 203.984 105.956 203.984 105.956Z" fill="#1A4850"/>
<path d="M204.217 91.6527C204.217 91.6527 197.527 96.4972 189.146 96.8817L189.377 104.341C189.377 104.341 181.534 89.8841 197.066 87.3464C212.521 84.8088 208.062 100.88 208.062 100.88C208.062 100.88 207.523 93.9596 204.217 91.6527Z" fill="#0E3944"/>
<path d="M198.756 103.956L198.679 103.341C198.679 103.341 199.602 103.264 199.833 102.726C199.91 102.495 199.525 101.803 199.218 101.111C198.756 100.188 198.141 99.1117 197.91 97.8813L198.525 97.7275C198.756 98.881 199.294 99.9576 199.756 100.803C200.217 101.726 200.602 102.418 200.371 102.957C200.064 103.879 198.756 103.956 198.756 103.956Z" fill="#DB614D"/>
<path d="M207.83 91.6528C196.604 86.7314 185.993 96.8819 185.993 96.8819C185.993 96.8819 184.762 88.6538 186.915 86.7314C187.453 86.1931 188.069 85.8086 188.684 85.4241C193.682 82.2713 200.295 82.3482 203.293 83.4248C203.909 83.6555 204.37 83.8862 204.678 84.1938C206.446 86.1162 207.83 91.6528 207.83 91.6528Z" fill="#CE364C"/>
<path d="M206.446 89.8073C206.446 89.8073 196.988 87.9618 188.222 93.806C188.222 93.806 187.684 88.5 188.683 85.4241C193.681 82.2713 200.294 82.3482 203.293 83.4248C205.061 85.501 206.446 89.8073 206.446 89.8073Z" fill="#CFD8DC"/>
<path d="M186.916 95.9592C186.916 95.9592 188.377 89.5767 190.453 87.808C193.836 84.809 203.217 83.8093 208.215 85.578C213.213 87.3466 208.215 92.8063 208.215 92.8063C208.215 92.8063 200.295 87.1159 186.916 95.9592Z" fill="#A02E44"/>
<path d="M201.524 138.252C201.524 138.252 205.368 144.25 211.981 147.788C211.981 147.788 220.209 140.636 230.897 141.251C230.897 141.251 222.054 157.169 214.442 158.938C210.443 159.861 195.987 150.325 195.987 150.325C195.987 150.325 198.832 140.175 201.524 138.252Z" fill="#FF8B66"/>
<path d="M187.301 127.41C190.838 121.643 198.989 130.178 201.757 136.253C204.525 142.328 206.524 143.635 206.524 143.635C206.524 143.635 198.374 147.019 198.451 153.171C198.451 153.094 179.535 139.944 187.301 127.41Z" fill="#ADBEC4"/>
<path d="M211.906 145.096C211.906 145.096 216.904 140.252 233.206 133.869L231.13 127.256C232.975 124.795 236.435 124.795 236.435 124.795C236.435 124.795 244.817 136.638 243.356 140.098C242.433 142.328 224.978 144.635 211.906 145.096Z" fill="#EF6E4B"/>
<path d="M229.82 135.485C229.82 135.485 229.974 134.793 230.589 133.947C231.204 133.101 231.051 131.563 231.281 131.101C231.512 130.64 232.819 128.641 233.665 128.256C234.511 127.872 235.664 127.257 235.895 128.333C236.126 129.41 234.357 129.102 233.588 130.64C233.588 130.64 235.357 130.102 236.664 130.409C238.048 130.717 238.432 132.024 236.741 131.947C235.357 131.947 233.665 132.87 233.665 132.87C233.665 132.87 235.434 133.101 235.126 133.947C234.588 135.1 232.435 134.408 229.82 135.485Z" fill="#FF8B66"/>
<path d="M109.099 157.708C110.56 161.476 116.557 167.859 116.557 167.859C116.557 167.859 131.167 159.092 137.857 162.783C144.623 166.474 149.929 168.704 154.312 167.09C158.695 165.475 139.933 131.409 139.933 131.409L115.635 122.104C115.635 122.104 115.096 128.256 112.328 129.333C109.56 130.409 106.561 140.56 106.792 142.482C107.022 144.482 109.099 157.708 109.099 157.708Z" fill="#3E6575"/>
<path d="M136.395 168.089C136.395 168.089 130.167 180.393 117.172 196.08C117.172 196.08 115.865 214.766 81.6472 244.218L78.0332 241.373C78.0332 241.373 98.4099 209.46 102.485 199.694C106.561 189.928 100.255 180.931 118.94 156.247L136.395 168.089Z" fill="#EF6E4B"/>
<path d="M116.481 146.327C111.099 156.631 109.254 169.858 109.254 169.858L106.793 176.086C106.793 176.086 115.482 180.777 125.555 182.469L129.553 171.78L116.481 146.327Z" fill="#662C33"/>
<path d="M144.623 167.089C144.623 167.089 147.314 180.623 146.853 200.924C146.853 200.924 157.387 216.458 148.698 260.674H144.162C144.162 260.674 140.471 222.994 137.626 212.843C134.781 202.616 124.246 199.54 123.708 168.474L144.623 167.089Z" fill="#FF8B66"/>
<path d="M147.313 181.623C147.313 181.623 138.778 183.161 123.63 182.469L123.4 180.777L123.323 180.316L121.785 169.32C121.785 169.32 120.324 167.551 118.863 164.629C118.709 164.321 118.478 163.937 118.325 163.552C116.325 159.246 114.48 152.941 116.479 146.404L119.632 146.558H120.093L130.781 147.019H131.243L134.78 147.173H135.318L137.625 147.25C137.625 147.25 149.159 157.631 147.083 176.856L147.236 179.547V180.009L147.313 181.623Z" fill="#8B383E"/>
<path d="M120.095 146.481C119.787 147.327 117.788 153.864 118.788 164.552C118.634 164.245 118.403 163.86 118.249 163.476C117.48 153.71 119.249 147.635 119.634 146.405C119.71 146.251 119.71 146.174 119.71 146.174L120.095 146.328C120.172 146.405 120.172 146.481 120.095 146.481Z" fill="#662C33"/>
<path d="M147.239 180.009C144.24 180.778 139.088 181.009 134.167 181.009C129.784 181.009 125.632 180.855 123.402 180.701L123.325 180.24C127.17 180.393 137.243 180.855 143.779 180.086L143.394 173.242C143.471 165.245 141.088 158.401 138.704 153.633C132.783 152.557 131.168 148.173 130.784 146.943C130.707 146.712 130.707 146.635 130.707 146.635L131.091 146.559C131.091 146.559 131.091 146.712 131.168 146.943C131.553 148.25 133.168 152.018 138.396 153.095C136.781 150.019 135.321 147.866 134.705 147.097C134.552 146.866 134.398 146.712 134.398 146.712L134.705 146.405C134.705 146.405 134.936 146.635 135.244 147.097C137.243 149.788 143.933 159.939 143.702 173.165L144.086 180.009C145.24 179.855 146.239 179.701 147.085 179.471L147.239 180.009Z" fill="#662C33"/>
<path d="M125.401 100.035C122.018 98.1892 97.4887 107.801 97.4887 107.801C97.4887 107.801 93.8747 114.261 96.1046 116.798C98.3345 119.336 106.408 118.183 108.792 116.798C111.253 115.414 117.712 114.338 117.712 114.338L125.401 100.035Z" fill="#8BBDDB"/>
<path d="M147.008 79.657C147.008 79.657 152.083 81.5794 153.929 87.4237C155.774 93.2679 150.238 108.032 152.16 114.799C154.083 121.566 153.775 134.408 147.777 137.099C141.78 139.791 129.554 134.946 126.939 127.564C124.325 120.182 125.478 92.1144 130.476 82.5791C135.628 73.0438 145.855 77.8115 147.008 79.657Z" fill="#F24052"/>
<path d="M141.239 104.803C142.546 106.264 146.006 103.649 146.006 103.649C146.006 103.649 145.929 116.337 142.239 117.337C138.548 118.337 129.09 107.34 129.474 104.341C129.859 101.342 138.24 101.573 141.239 104.803Z" fill="#8BBDDB"/>
<path d="M127.018 101.573C127.018 101.573 130.786 104.726 137.245 106.264C143.781 107.801 147.318 104.726 150.624 108.878C155.622 115.184 147.472 126.795 143.242 132.793C141.628 135.023 138.244 141.252 137.629 147.25C137.629 147.25 126.326 150.556 116.56 146.25L115.868 132.409C115.792 132.486 109.64 113.799 127.018 101.573Z" fill="#0E3944"/>
<path d="M138.703 115.107C138.703 115.107 143.855 102.803 145.393 102.034C146.854 101.265 150.698 103.111 151.467 104.802C152.236 106.494 151.467 110.185 151.467 110.185C151.467 110.185 147.315 105.495 138.703 115.107Z" fill="#8BBDDB"/>
<path d="M163.386 167.089C161.002 171.934 155.312 173.241 155.312 173.241C155.312 173.241 154.851 172.549 154.159 171.396C154.082 171.242 154.005 171.165 153.928 171.011C149.391 163.629 135.55 140.175 135.781 127.872C136.089 113.261 145.623 105.264 145.623 105.264C150.468 106.417 152.006 107.724 152.006 107.724C152.006 107.724 153.62 116.029 152.159 126.026C150.698 136.023 147.93 138.637 149.314 139.406C150.698 140.175 149.314 141.636 149.314 141.636C149.314 141.636 157.311 152.863 158.849 156.324C159.849 158.631 161.463 162.475 162.54 164.859C162.617 165.013 162.694 165.167 162.771 165.321C163.078 166.397 163.386 167.089 163.386 167.089Z" fill="#6097B2"/>
<path d="M149.469 107.725C149.469 107.725 143.702 111.954 147.085 118.49L163.002 135.023C154.237 144.328 153.391 148.173 147.085 152.479L149.469 156.17C149.469 156.17 171.614 139.176 171.691 135.023C171.614 133.255 158.081 111.8 149.469 107.725Z" fill="#FF8B66"/>
<path d="M146.699 152.479C146.699 152.479 143.623 152.786 141.778 153.325C139.856 153.786 137.318 154.247 137.241 154.709C137.164 155.093 141.47 154.709 141.47 154.709C141.47 154.709 137.933 156.17 137.856 156.708C137.78 157.246 142.316 156.324 142.316 156.324C142.316 156.324 139.471 158.092 139.625 158.554C139.779 159.015 143.316 157.862 143.316 157.862C143.316 157.862 142.624 159.553 142.009 160.322C142.009 160.322 142.701 160.707 144.085 159.169C145.469 157.631 147.699 158.092 149.467 156.785C151.159 155.324 148.314 152.325 146.699 152.479Z" fill="#FF8B66"/>
<path d="M130.398 103.649C130.398 103.649 126.016 106.495 123.247 113.338C120.479 120.182 111.79 133.024 109.714 136.331C107.638 139.637 109.099 157.708 109.099 157.708C109.099 157.708 106.562 146.789 105.408 142.483C104.255 138.176 109.099 127.641 109.791 127.103C110.483 126.565 114.251 127.564 113.482 123.258C112.713 118.952 122.709 100.497 125.323 100.035C125.4 100.035 129.629 100.804 130.398 103.649Z" fill="#6097B2"/>
<path d="M116.865 104.572C116.789 104.726 116.712 104.879 116.635 105.033C115.635 106.494 113.79 107.571 113.79 107.571C113.79 107.571 110.483 112.262 110.406 112.8C110.406 113.261 104.639 117.414 102.025 117.337C101.641 117.337 101.41 117.26 101.179 117.029C99.6414 115.568 106.331 103.572 107.792 100.958C107.869 100.804 107.946 100.65 108.023 100.573C108.023 100.496 108.1 100.496 108.1 100.496C108.1 100.496 106.946 96.1131 111.867 96.959C115.943 97.651 116.789 100.881 117.173 103.034C117.25 103.572 117.173 104.034 116.865 104.572Z" fill="#6097B2"/>
<path d="M99.7187 109.109C103.102 104.649 115.02 96.0362 121.249 93.4985L122.787 96.4206C122.787 96.4206 110.714 107.032 107.869 111.569C105.024 116.106 101.487 118.029 98.1808 116.491C94.7206 115.03 98.9497 110.032 99.7187 109.109Z" fill="#FF8B66"/>
<path d="M115.711 103.649L115.096 104.418L114.789 104.803L113.712 106.033C113.712 106.033 111.021 109.263 111.175 110.57C111.252 111.493 106.1 115.645 102.101 117.414C100.487 118.106 99.0257 118.413 98.1799 117.952C95.2579 116.26 95.95 111.262 97.5647 107.879C99.0257 104.88 105.331 101.112 106.946 100.112C107.176 99.9581 107.253 99.8812 107.33 99.8812L107.945 97.4974C107.945 97.4974 110.175 96.1901 111.867 96.9591C111.867 96.9591 108.022 97.1129 108.637 98.6508C109.329 100.035 114.635 103.572 115.711 103.649Z" fill="#8BBDDB"/>
<path d="M129.629 91.3455C125.785 92.9604 126.323 96.4208 122.786 96.4208C120.556 96.4208 120.325 93.8831 120.325 93.8831C121.325 91.73 121.94 88.1158 122.094 86.3472C122.248 84.5785 122.786 85.2706 122.786 85.2706C122.786 85.1168 122.786 84.963 122.786 84.8092C122.709 83.6558 122.555 82.8099 123.324 83.2713C124.17 83.8096 124.477 87.1162 124.477 87.1162C125.169 82.2716 124.093 81.5795 124.939 81.964C126.092 82.5792 126.092 86.8086 126.092 86.9624C127.015 84.1172 126.784 82.5792 127.399 83.1944C128.015 83.8096 127.092 88.9617 126.707 90.8841C126.63 91.3455 126.554 91.5762 126.554 91.5762C129.629 90.1921 129.629 91.3455 129.629 91.3455Z" fill="#FF8B66"/>
<path d="M126.712 90.9609C126.635 91.4223 126.558 91.653 126.558 91.653C126.558 91.653 125.173 91.4992 124.097 93.0372C124.097 93.0372 124.404 91.0378 126.712 90.9609Z" fill="#EF6E4B"/>
<path d="M123.018 88.808C123.018 88.4235 123.249 86.0397 122.787 85.3476C122.787 85.1938 122.787 85.04 122.787 84.8862C123.633 85.04 123.095 88.2697 123.018 88.808Z" fill="#EF6E4B"/>
<path d="M125.4 109.109C125.4 109.109 128.015 102.034 128.861 100.42C129.706 98.8048 134.012 99.1124 137.319 99.7275C140.625 100.343 141.24 104.726 141.24 104.726C141.24 104.726 131.244 100.112 125.4 109.109Z" fill="#8BBDDB"/>
<path d="M142.237 95.1904C142.237 95.1904 139.085 100.958 139.162 107.417C139.162 107.417 134.087 110.877 132.241 106.571C132.241 106.571 134.164 100.881 133.241 93.2679C132.626 88.0389 142.237 95.1904 142.237 95.1904Z" fill="#EF6E4B"/>
<path d="M132.245 87.1929C132.245 87.1929 131.322 83.8863 129.63 86.1933C127.707 88.8847 129.63 91.4992 130.707 90.884C131.706 90.2688 132.245 87.1929 132.245 87.1929Z" fill="#FF8B66"/>
<path d="M147.009 95.7283C147.009 95.7283 150.315 94.8055 149.162 97.4201C147.855 100.496 144.625 100.111 144.625 98.958C144.625 97.7276 147.009 95.7283 147.009 95.7283Z" fill="#FF8B66"/>
<path d="M133.63 101.65C128.94 99.0355 128.017 94.4217 133.169 85.194C135.86 80.4263 139.935 78.8884 145.164 81.8105C150.47 84.8095 151.008 88.9619 148.317 93.7296C142.78 103.649 138.474 104.341 133.63 101.65Z" fill="#FF8B66"/>
<path d="M144.934 96.1129C144.78 96.6512 144.088 96.8819 143.396 96.6512C142.78 96.4205 142.396 95.8053 142.55 95.267C142.703 94.7287 143.396 94.498 144.088 94.7287C144.78 95.0363 145.164 95.6515 144.934 96.1129Z" fill="#DB614D"/>
<path d="M135.088 90.9609C134.781 91.4223 134.088 91.4992 133.473 91.1147C132.858 90.7302 132.704 90.0381 132.935 89.5767C133.242 89.1153 133.935 89.0385 134.55 89.4229C135.165 89.8074 135.396 90.4995 135.088 90.9609Z" fill="#DB614D"/>
<path d="M145.625 90.1917C145.471 90.1917 145.394 90.1148 145.394 89.961C145.164 88.8844 143.933 88.2692 143.933 88.2692C143.779 88.1923 143.779 88.0385 143.856 87.8847C143.933 87.7309 144.087 87.7309 144.241 87.8078C144.318 87.8078 145.625 88.5768 145.933 89.8072C145.933 89.961 145.856 90.1148 145.625 90.1917Z" fill="#1A4850"/>
<path d="M139.165 85.5783C139.088 85.5783 139.088 85.5783 139.011 85.5014C139.011 85.5014 137.857 84.8093 136.857 85.1169C136.704 85.1938 136.55 85.1169 136.55 84.9631C136.473 84.8093 136.55 84.6555 136.704 84.6555C137.934 84.271 139.241 85.04 139.318 85.04C139.472 85.1169 139.472 85.2707 139.395 85.4245C139.318 85.5014 139.241 85.5783 139.165 85.5783Z" fill="#1A4850"/>
<path d="M143.701 92.4222C143.393 93.0374 142.855 93.3449 142.547 93.1142C142.239 92.9605 142.239 92.3453 142.547 91.7301C142.855 91.1149 143.393 90.8073 143.701 91.038C144.008 91.1918 144.008 91.807 143.701 92.4222Z" fill="#1A4850"/>
<path d="M137.088 88.8846C136.781 89.4997 136.242 89.8073 135.935 89.5767C135.627 89.4229 135.627 88.8077 135.935 88.1925C136.242 87.5773 136.781 87.2697 137.088 87.5004C137.396 87.6542 137.396 88.2694 137.088 88.8846Z" fill="#1A4850"/>
<path d="M134.783 94.8828C134.783 94.8828 137.474 96.959 139.473 97.0359C139.473 97.0359 137.397 98.7277 135.936 97.6511C134.398 96.4977 134.783 94.8828 134.783 94.8828Z" fill="#1A4850"/>
<path d="M142.239 91.2689C142.239 91.2689 143.47 90.0385 144.008 90.4999C144.546 90.8844 144.239 92.4223 144.239 92.4223H145.316L144.393 92.0378C144.393 92.0378 144.7 90.4999 144.162 90.1923C143.393 89.7309 142.239 91.2689 142.239 91.2689Z" fill="#1A4850"/>
<path d="M137.55 88.8079C137.55 88.8079 137.935 87.1161 137.32 86.8854C136.704 86.6548 135.551 87.6544 135.551 87.6544L134.936 86.7317L135.705 87.3468C135.705 87.3468 136.858 86.2703 137.397 86.6547C138.319 87.1161 137.55 88.8079 137.55 88.8079Z" fill="#1A4850"/>
<path d="M146.471 83.8096C146.471 83.8096 144.779 81.4257 142.473 83.3482C140.166 85.1937 134.86 88.1927 132.323 87.1931C129.708 86.1934 138.013 75.197 145.164 78.4267C152.315 81.6564 151.7 92.1914 148.701 95.498C145.702 98.8046 147.163 95.7287 147.163 95.7287C147.163 95.7287 147.394 90.961 148.393 87.8851C149.239 84.6554 146.471 83.8096 146.471 83.8096Z" fill="#F24052"/>
<path d="M138.47 93.806C138.317 93.806 138.24 93.806 138.086 93.7291L138.24 93.1908C138.701 93.3446 138.932 93.1139 139.086 92.8832C139.24 92.5756 139.24 92.268 139.086 92.1142C139.009 92.0373 138.855 92.0373 138.701 92.1142L138.394 91.5759C139.009 91.2683 139.316 91.499 139.47 91.6528C139.778 91.9604 139.855 92.6525 139.547 93.1139C139.316 93.5753 138.932 93.806 138.47 93.806Z" fill="#DB614D"/>
<path d="M172.998 134.408C172.691 138.561 162.464 152.018 160.772 152.479C160.311 152.633 159.85 152.864 159.465 153.171C159.311 153.325 159.081 153.402 158.927 153.556C157.927 154.325 157.235 155.248 157.235 155.248C154.236 155.017 145.855 151.172 148.546 150.326C148.7 150.249 148.854 150.172 149.085 150.019C149.161 149.942 149.315 149.865 149.469 149.711C152.622 147.02 158.85 136.254 158.85 135.408C158.85 134.485 159.926 134.332 159.926 134.332C159.926 134.332 154.083 125.796 150.699 124.719C147.316 123.72 145.624 119.567 145.624 119.567C142.318 105.418 152.006 107.648 152.006 107.648C159.158 112.031 173.306 130.256 172.998 134.408Z" fill="#8BBDDB"/>
<path d="M159.467 153.171C159.313 153.325 159.082 153.402 158.928 153.556C154.315 153.248 150.47 151.018 149.086 150.019C149.163 149.942 149.317 149.865 149.47 149.711C150.931 150.711 154.853 152.941 159.467 153.171Z" fill="#3E6575"/>
<path d="M116.865 104.572C116.788 104.726 116.711 104.879 116.634 105.033C115.942 105.033 115.327 104.956 114.788 104.803C111.79 104.187 109.406 102.496 107.868 101.035C107.484 100.727 107.176 100.342 106.945 100.035C107.176 99.8811 107.253 99.8042 107.33 99.8042C107.56 100.035 107.791 100.342 108.099 100.573C109.637 102.034 112.02 103.803 115.096 104.341C115.634 104.495 116.249 104.572 116.865 104.572Z" fill="#3E6575"/>
<path d="M162.692 165.398C161.308 167.782 158.693 170.627 154.156 171.396C154.08 171.242 154.003 171.165 153.926 171.011C158.616 170.319 161.154 167.243 162.538 164.937C162.538 165.09 162.615 165.244 162.692 165.398Z" fill="#3E6575"/>
<path d="M84.9534 243.141C84.9534 243.141 83.8769 244.218 82.8004 246.14C81.7239 248.063 82.8773 249.832 77.5717 254.292C77.5717 254.292 66.7298 247.986 61.8086 239.758C61.8086 239.758 61.8855 237.451 64.2692 236.913C65.5764 236.605 69.0365 238.297 72.4198 238.912C72.8812 238.989 73.3426 239.066 73.8808 239.143C74.496 239.22 75.0342 239.22 75.5725 239.143C76.1107 239.066 76.5721 238.989 77.0334 238.758C78.1868 238.297 79.1095 237.374 79.5709 235.759C79.5709 235.759 82.4159 237.374 80.4936 240.142C80.4936 240.066 83.8769 238.604 84.9534 243.141Z" fill="#CFD8DC"/>
<path d="M77.5717 254.291C77.5717 254.291 66.7298 247.986 61.8086 239.758C61.8086 239.758 63.654 239.373 65.115 242.065C66.6529 244.756 78.4175 250.908 77.5717 254.291Z" fill="#ADBEC4"/>
<path d="M77.5738 241.449C76.7278 242.834 76.7278 240.296 75.5742 239.066C76.1126 238.989 76.574 238.912 77.0355 238.681C77.5738 239.296 78.266 240.373 77.5738 241.449Z" fill="#ADBEC4"/>
<path d="M74.1907 241.527C73.2679 242.372 72.9602 240.142 72.4219 238.912C72.8833 238.989 73.3448 239.066 73.8831 239.143C74.3445 239.835 74.8829 240.835 74.1907 241.527Z" fill="#ADBEC4"/>
<path d="M151.622 271.286H136.32C136.32 271.286 135.705 269.133 136.32 266.826C136.628 265.826 138.166 264.826 139.627 263.519C140.011 263.135 140.396 262.75 140.78 262.366C141.088 262.058 141.318 261.674 141.549 261.212C141.857 260.751 142.087 260.213 142.164 259.597C142.395 258.444 142.318 257.06 141.626 255.445C141.626 255.445 146.855 254.368 148.7 257.214C148.7 257.214 148.854 255.906 150.546 256.752C150.546 256.752 150.315 259.367 150.622 261.597C151.007 263.75 153.083 264.442 151.622 271.286Z" fill="#CFD8DC"/>
<path d="M147.621 262.058C147.468 262.212 147.314 262.289 147.083 262.289C146.929 262.289 146.776 262.212 146.622 262.135C145.853 261.52 144.084 260.52 141.547 261.212C141.854 260.751 142.085 260.212 142.162 259.597C143.162 259.213 145.084 258.982 147.468 261.058C147.852 261.289 147.929 261.75 147.621 262.058Z" fill="#ADBEC4"/>
<path d="M146.394 264.595L146.317 264.749C146.086 265.057 145.702 265.134 145.394 264.98C144.318 264.365 142.011 263.211 139.704 263.519C140.089 263.134 140.473 262.75 140.857 262.365C142.011 262.135 144.164 261.981 146.24 263.673C146.471 263.903 146.548 264.288 146.394 264.595Z" fill="#ADBEC4"/>
</svg>
