<svg xmlns="http://www.w3.org/2000/svg" width="51" height="69" viewBox="0 0 51 69">
    <g fill="none" fill-rule="evenodd">
        <path fill="#F4A33E" d="M13.68 20C8.911 14.195 6.03 6.975 1.507 1c-.282.19-.565.363-.829.535 3.428 5.881 6.858 11.743 9.835 16.817M16.68 19.883C15.054 13.916 13.43 7.947 11.803 2c-.36.1-.743.199-1.125.296 1.426 5.91 2.85 11.797 4.274 17.704M19.211 19.764c.822-6.529 1.645-13.079 2.468-19.627-.374-.04-.75-.078-1.122-.137-.954 6.666-1.926 13.334-2.878 20M23.081 19.326A7383.778 7383.778 0 0 1 32.68 1.597c-.267-.193-.55-.405-.818-.597-.516.752-1.088 1.463-1.515 2.272-2.582 4.735-5.039 9.53-7.728 14.188-.623 1.098-1.94 1.712-2.939 2.54"/>
        <path fill="#00C9A8" d="M26.057 43.679c-.037-.038-.055-.097-.093-.135a114.373 114.373 0 0 1-3.3-5.469c-1.291-2.202-2.528-4.425-3.782-6.646a8.07 8.07 0 0 1-.432-.908c-.568-1.376.325-2.93 1.754-3.015.915-.054 1.793-.105 2.736-.155 0 .079 0 .155.018.234.018.076.018.155.018.231.037.598.057 1.198.148 1.758.166 1.158.462 2.163.977 3.013.112.176.223.33.333.503.111.155.24.29.387.446.83.887 2.012 1.507 3.671 1.758.184.018.386.155.609.347.073.077.146.155.22.252 0 .017.019.038.036.058.093.114.186.25.259.385.333.523.59 1.16.645 1.642.165 1.553.158 3.13.132 5.062-.024 1.674-1.814 2.702-3.144 1.773a5.787 5.787 0 0 1-.916-.766 1.766 1.766 0 0 1-.276-.368m-4.076 1.39c-.221-.406-.387-1.004-.572-1.835a20.294 20.294 0 0 1-.11-.58 135.2 135.2 0 0 1-.572-3.4c-.13-.831-.278-1.758-.443-2.8.813 1.447 1.642 2.917 2.47 4.384a593.3 593.3 0 0 0 2.454 4.386c-.941.33-1.622.543-2.12.543-.112 0-.22-.02-.314-.04-.073-.02-.148-.038-.22-.077a.317.317 0 0 1-.149-.096c-.074-.039-.13-.097-.203-.155-.073-.097-.146-.213-.221-.33M5.677 24.667c-.073-.387-.055-.85.11-1.373.297-1.005 1.532-2.357 2.399-2.395 5.256-.213 10.54-.376 15.787.038.985.078 1.531.792 2.066 1.584.073.136.166.27.221.405.055.137.11.252.147.389.037.134.074.269.074.385.259 1.565-.811 2.396-2.546 2.377-2.637-.058-5.256-.02-7.893-.02v.02c-2.637 0-5.274-.058-7.894 0-1.032.038-1.77-.25-2.177-.773a1.45 1.45 0 0 1-.294-.637M4.142 45.675c-1.256.315-2.48-.66-2.526-2.015-.06-1.718-.11-3.144.15-4.502.297-1.47 1.181-3.306 2.326-3.98 3.905-2.283 4.45-2.451 5.094-5.963.183-1.009 1.04-1.727 2.019-1.727h3.842c.018.52.09 1.005.09 1.41v.116c.02.018.02.058.02.078 0 .095 0 .193-.037.288a.866.866 0 0 1-.11.31c-2.71 4.985-5.348 10.008-8.374 14.762-.413.652-1.343.934-2.494 1.223m7.136-.044c-1.57 0-2.548-1.79-1.76-3.214 1.466-2.66 2.86-5.182 4.238-7.704.257.078.497.134.736.194-.385 2.889-.782 5.776-1.193 8.867-.14 1.058-1.003 1.857-2.02 1.857m9.135-.04h-3.567c-1.236 0-2.187-1.154-2.021-2.437.502-3.885 1.004-7.668 1.492-11.475h.813c.277 1.142.533 2.281.811 3.44.202.85.405 1.72.608 2.57.407 1.72.831 3.459 1.236 5.237.203.869.424 1.778.628 2.666M6.04 20.752c-.657.437-1.316 1.433-1.416 2.03-.386 2.28-.202 2.95 1.936 4.758.733.622 1.429 1.312 1.336 2.295-.193 2.027-1.029 3.4-3.731 3.873C2.837 33.92.993 36.49.938 38.075.743 42.995.684 47.93.679 64.854.68 66.03 1.6 67 2.723 67h26.23c1.094 0 1.993-.916 2.038-2.061.594-14.657.335-11.65.636-17.608 0-2.782.129-5.544-.018-8.29-.185-2.82-1.2-5.023-4.279-5.68-2.112-.45-2.967-1.823-3.09-3.709-.06-.982.521-1.916 1.422-2.19 1.896-.58 1.975-.763 2.073-2.965.05-1.116.3-3.068-1.215-3.746-1.271-.569-3.38-1.155-4.749-1.349-4.26-.606-12.532-.783-15.731 1.35"/>
        <path stroke="#00C9A8" stroke-width=".25" d="M26.057 43.679c-.037-.038-.055-.097-.093-.135a114.373 114.373 0 0 1-3.3-5.469c-1.291-2.202-2.528-4.425-3.782-6.646a8.07 8.07 0 0 1-.432-.908c-.568-1.376.325-2.93 1.754-3.015.915-.054 1.793-.105 2.736-.155 0 .079 0 .155.018.234.018.076.018.155.018.231.037.598.057 1.198.148 1.758.166 1.158.462 2.163.977 3.013.112.176.223.33.333.503.111.155.24.29.387.446.83.887 2.012 1.507 3.671 1.758.184.018.386.155.609.347.073.077.146.155.22.252 0 .017.019.038.036.058.093.114.186.25.259.385.333.523.59 1.16.645 1.642.165 1.553.158 3.13.132 5.062-.024 1.674-1.814 2.702-3.144 1.773a5.787 5.787 0 0 1-.916-.766 1.766 1.766 0 0 1-.276-.368zm-4.076 1.39c-.221-.406-.387-1.004-.572-1.835a20.294 20.294 0 0 1-.11-.58 135.2 135.2 0 0 1-.572-3.4c-.13-.831-.278-1.758-.443-2.8.813 1.447 1.642 2.917 2.47 4.384a593.3 593.3 0 0 0 2.454 4.386c-.941.33-1.622.543-2.12.543-.112 0-.22-.02-.314-.04-.073-.02-.148-.038-.22-.077a.317.317 0 0 1-.149-.096c-.074-.039-.13-.097-.203-.155-.073-.097-.146-.213-.221-.33zM5.677 24.667c-.073-.387-.055-.85.11-1.373.297-1.005 1.532-2.357 2.399-2.395 5.256-.213 10.54-.376 15.787.038.985.078 1.531.792 2.066 1.584.073.136.166.27.221.405.055.137.11.252.147.389.037.134.074.269.074.385.259 1.565-.811 2.396-2.546 2.377-2.637-.058-5.256-.02-7.893-.02v.02c-2.637 0-5.274-.058-7.894 0-1.032.038-1.77-.25-2.177-.773a1.45 1.45 0 0 1-.294-.637zM4.142 45.675c-1.256.315-2.48-.66-2.526-2.015-.06-1.718-.11-3.144.15-4.502.297-1.47 1.181-3.306 2.326-3.98 3.905-2.283 4.45-2.451 5.094-5.963.183-1.009 1.04-1.727 2.019-1.727h3.842c.018.52.09 1.005.09 1.41v.116c.02.018.02.058.02.078 0 .095 0 .193-.037.288a.866.866 0 0 1-.11.31c-2.71 4.985-5.348 10.008-8.374 14.762-.413.652-1.343.934-2.494 1.223zm7.136-.044c-1.57 0-2.548-1.79-1.76-3.214 1.466-2.66 2.86-5.182 4.238-7.704.257.078.497.134.736.194-.385 2.889-.782 5.776-1.193 8.867-.14 1.058-1.003 1.857-2.02 1.857zm9.136-.04h-3.567c-1.236 0-2.187-1.154-2.021-2.437.502-3.885 1.004-7.668 1.492-11.475h.813c.277 1.142.533 2.281.811 3.44.202.85.405 1.72.608 2.57.407 1.72.831 3.459 1.236 5.237.203.869.424 1.778.628 2.666zM6.04 20.752c-.657.438-1.316 1.434-1.416 2.03-.386 2.281-.202 2.95 1.936 4.76.733.621 1.429 1.31 1.336 2.294-.193 2.027-1.029 3.4-3.731 3.873C2.837 33.92.993 36.49.938 38.075.743 42.995.684 47.93.679 64.854.68 66.03 1.6 67 2.723 67h26.23c1.094 0 1.993-.916 2.038-2.061.594-14.657.335-11.65.636-17.608 0-2.782.129-5.544-.018-8.29-.185-2.82-1.2-5.023-4.279-5.68-2.112-.45-2.967-1.823-3.09-3.709-.06-.982.521-1.916 1.422-2.19 1.896-.58 1.975-.763 2.073-2.965.05-1.116.3-3.068-1.215-3.746-1.271-.569-3.38-1.155-4.749-1.349-4.26-.606-12.532-.783-15.731 1.35z"/>
        <path fill="#E86A7C" d="M42.445 61.606c.976.39 1.955.778 2.99 1.19-.551-1.727-.69-3.566 1.336-4.796 2.404 1.971 2.283 4.481-.291 5.606 1.41 1.309 2.805 2.6 4.2 3.893l-.448.501-4.047-3.46c-.388 2.72-2.506 3.873-5.506 3.12.408-2.518 2.268-3.279 4.7-3.545l-2.961-2.46.027-.05z"/>
        <path stroke="#FFF" stroke-width=".149" d="M42.445 61.606c.976.39 1.955.778 2.99 1.19-.551-1.727-.69-3.566 1.336-4.796 2.404 1.971 2.283 4.481-.291 5.606 1.41 1.309 2.805 2.6 4.2 3.893l-.448.501-4.047-3.46c-.388 2.72-2.506 3.873-5.506 3.12.408-2.518 2.268-3.279 4.7-3.545l-2.961-2.46.027-.05z"/>
        <path fill="#E86A7C" d="M41.243 62c-1.188-.588-2.375-1.18-3.564-1.768l.204-.477 2.74 1.286c-.845-2.396-.929-4.486 1.188-6.041 2.681 2.43 2.455 4.865-.54 6.943l-.028.057z"/>
        <path stroke="#FFF" stroke-width=".149" d="M41.243 62c-1.188-.588-2.375-1.18-3.564-1.768l.204-.477 2.74 1.286c-.845-2.396-.929-4.486 1.188-6.041 2.681 2.43 2.455 4.865-.54 6.943l-.028.057z"/>
        <path fill="#E86A7C" d="M32.68 62.654c.678-2.44 2.237-3.803 4.267-3.641.605.048 1.367.43 1.685.91.187.279-.219 1.213-.61 1.58-1.524 1.434-3.31 1.883-5.343 1.15"/>
        <path stroke="#FFF" stroke-width=".149" d="M32.68 62.654c.678-2.44 2.237-3.803 4.267-3.641.605.048 1.367.43 1.685.91.187.279-.219 1.213-.61 1.58-1.524 1.434-3.31 1.883-5.343 1.15z"/>
        <path fill="#F4A33E" d="M24.68 57.245c1.1-1.796 3.592-2.73 5.278-1.991.317.14.735.563.72.834-.021.393-.303.94-.634 1.118-1.755.932-3.552 1.164-5.365.04"/>
        <path stroke="#FFF" stroke-width=".149" d="M24.68 57.245c1.1-1.796 3.592-2.73 5.278-1.991.317.14.735.563.72.834-.021.393-.303.94-.634 1.118-1.755.932-3.552 1.164-5.365.04z"/>
        <path fill="#E86A7C" d="M34.13 57c-.49-1.483-1.094-2.927-1.42-4.465-.147-.683.268-1.556.468-2.535 1.745 1.035 2.554 2.643 2.499 4.573-.024.82-1.046 1.594-1.614 2.389l.068.038z"/>
        <path stroke="#FFF" stroke-width=".149" d="M34.13 57c-.49-1.483-1.094-2.927-1.42-4.465-.147-.683.268-1.556.468-2.535 1.745 1.035 2.554 2.643 2.499 4.573-.024.82-1.046 1.594-1.614 2.389l.068.038z"/>
        <path fill="#F4A33E" d="M34.086 56c1.165 1.73.51 2.952-1.063 3.455-1.339.428-2.802.372-4.344.545.628-2.961 1.114-3.274 5.487-3.96l-.08-.04"/>
        <path stroke="#FFF" stroke-width=".149" d="M34.086 56c1.165 1.73.51 2.952-1.063 3.455-1.339.428-2.802.372-4.344.545.628-2.961 1.114-3.274 5.487-3.96l-.08-.04z"/>
        <path fill="#E86A7C" d="M36.68 64.24c.202-1.844 1.37-2.93 3.307-3.227.514-.08 1.39.206 1.605.578.216.369.005 1.345-.35 1.549-1.286.736-2.712 1.258-4.085 1.86l-.478-.76"/>
        <path stroke="#FFF" stroke-width=".149" d="M36.68 64.24c.202-1.844 1.37-2.93 3.307-3.227.514-.08 1.39.206 1.605.578.216.369.005 1.345-.35 1.549-1.286.736-2.712 1.258-4.085 1.86l-.478-.76z"/>
        <path fill="#F4A33E" d="M20.047 51.278c2.309-.507 4.547-.371 6.543.83.508.305.733.905 1.09 1.372-.665.18-1.433.63-1.974.495-2.048-.506-4.025-1.201-6.027-1.828l.368-.87"/>
        <path stroke="#FFF" stroke-width=".149" d="M20.047 51.278c2.309-.507 4.547-.371 6.543.83.508.305.733.905 1.09 1.372-.665.18-1.433.63-1.974.495-2.048-.506-4.025-1.201-6.027-1.828l.368-.87z"/>
        <path fill="#F4A33E" d="M28.11 49c1.914.798 3.131 2.177 3.532 4.225.109.552-.03 1.596-.297 1.689-.537.188-1.35.055-1.852-.266-1.77-1.137-2.274-3.267-1.383-5.648"/>
        <path stroke="#FFF" stroke-width=".149" d="M28.11 49c1.914.798 3.131 2.177 3.532 4.225.109.552-.03 1.596-.297 1.689-.537.188-1.35.055-1.852-.266-1.77-1.137-2.274-3.267-1.383-5.648z"/>
        <path fill="#E86A7C" d="M37.823 52c.627 1.386 1.353 2.726 1.826 4.187.147.454-.267 1.548-.652 1.765-.346.196-1.157-.24-1.497-.688-1.165-1.545-1.118-3.253.323-5.264"/>
        <path stroke="#FFF" stroke-width=".149" d="M37.823 52c.627 1.386 1.353 2.726 1.826 4.187.147.454-.267 1.548-.652 1.765-.346.196-1.157-.24-1.497-.688-1.165-1.545-1.118-3.253.323-5.264z"/>
    </g>
</svg>
