<svg xmlns="http://www.w3.org/2000/svg" viewBox="0 0 50.27293 57.02196">
	<defs>
		<style>.b{fill:currentcolor;stroke:#fff;stroke-miterlimit:10;stroke-width:3.5px;}.c{fill:#fff;}</style>
	</defs>
	<title>SheildSVG-ExperiencePage</title>
	<path class="a" d="M24.88137.86663l22.8524,10.23788V26.33944a31.60465,31.60465,0,0,1-2.986,13.40675,33.05655,33.05655,0,0,1-8.105,10.84727,27.75068,27.75068,0,0,1-11.76137,6.21585A27.75073,27.75073,0,0,1,13.12,50.59346,33.05666,33.05666,0,0,1,5.015,39.74619,31.60451,31.60451,0,0,1,2.029,26.33944V11.10451Z"/><path class="b" d="M24.88137,2.48022,46.41548,12.1275V26.48358a29.78145,29.78145,0,0,1-2.81379,12.63334,31.14953,31.14953,0,0,1-7.63743,10.22152,26.14976,26.14976,0,0,1-11.08289,5.85728,26.14976,26.14976,0,0,1-11.08289-5.85728A31.1498,31.1498,0,0,1,6.16105,39.11692,29.7813,29.7813,0,0,1,3.34726,26.48358V12.1275Z"/>
	<polygon class="c" points="19.762 40.813 40.116 20.459 36.521 16.863 19.762 33.561 13.242 26.979 9.646 30.575 19.762 40.813"/>
</svg>