<svg xmlns="http://www.w3.org/2000/svg" xmlns:xlink="http://www.w3.org/1999/xlink" width="61" height="46" viewBox="0 0 61 46">
    <defs>
        <path id="a" d="M0 44.118h59.118V0H0z"/>
    </defs>
    <g fill="none" fill-rule="evenodd" transform="translate(0 1)">
        <path fill="#00C9A8" d="M33.193 28.166c.015 6.115-4.856 11.092-10.877 11.11-6.078.015-10.911-4.826-10.974-10.999-.064-6.062 4.85-11.1 10.87-11.143 5.978-.043 10.963 4.967 10.98 11.032zm20.63-15.813H7.06v4.21h9.247c-4.53 3.138-6.78 6.808-6.803 11.674-.022 4.89 2.377 8.522 6.852 11.756H7.069v4.125h46.724V39.86H28.967c3.933-3.18 6.1-6.95 6.066-11.776-.035-4.767-2.315-8.47-6.017-11.653h24.808v-4.08z"/>
        <path stroke="#00C9A8" stroke-width=".25" d="M33.193 28.166c.015 6.115-4.856 11.092-10.877 11.11-6.078.015-10.911-4.826-10.974-10.999-.064-6.062 4.85-11.1 10.87-11.143 5.978-.043 10.963 4.967 10.98 11.032zm20.63-15.813H7.06v4.21h9.247c-4.53 3.138-6.78 6.808-6.803 11.674-.022 4.89 2.377 8.522 6.852 11.756H7.069v4.125h46.724V39.86H28.967c3.933-3.18 6.1-6.95 6.066-11.776-.035-4.767-2.315-8.47-6.017-11.653h24.808v-4.08z"/>
        <path fill="#E86A7C" d="M54.706 11.6c4.913-.407 5.3-.073 5.294 4.302-.01 7.902-.009 15.804-.01 23.705 0 4.512-.318 4.79-5.284 4.37V11.6z"/>
        <path stroke="#E86A7C" stroke-width=".25" d="M54.706 11.6c4.913-.407 5.3-.073 5.294 4.302-.01 7.902-.009 15.804-.01 23.705 0 4.512-.318 4.79-5.284 4.37V11.6z"/>
        <path fill="#E86A7C" d="M6.176 11.644v32.151c-4.505.836-5.29.227-5.292-3.972C.883 31.84.88 23.856.89 15.872c.005-4.38.43-4.728 5.287-4.228"/>
        <path stroke="#E86A7C" stroke-width=".25" d="M6.176 11.644v32.151c-4.505.836-5.29.227-5.292-3.972C.883 31.84.88 23.856.89 15.872c.005-4.38.43-4.728 5.287-4.228z"/>
        <path fill="#E86A7C" d="M30.681 8.09H13.642V1.592c5.297 0 10.48-.04 15.664.07.469.01 1.236.97 1.31 1.56.192 1.487.065 3.016.065 4.866m1.852-6.301c-.04-.623-1.127-1.67-1.75-1.685A397.811 397.811 0 0 0 13.34.088c-.625.015-1.717 1.045-1.757 1.66-.19 2.862-.085 5.741-.085 8.84h21.119c0-3.064.106-5.941-.085-8.8"/>
        <path stroke="#E86A7C" stroke-width=".25" d="M30.681 8.09H13.642V1.592c5.297 0 10.48-.04 15.664.07.469.01 1.236.97 1.31 1.56.192 1.487.065 3.016.065 4.866zm1.852-6.302c-.04-.623-1.127-1.67-1.75-1.685A397.811 397.811 0 0 0 13.34.088c-.625.015-1.717 1.045-1.757 1.66-.19 2.862-.085 5.741-.085 8.84h21.119c0-3.064.106-5.941-.085-8.8z"/>
        <mask id="b" fill="#fff">
            <use xlink:href="#a"/>
        </mask>
        <path fill="#E86A7C" d="M39.706 24.706h9.706v-4.412h-9.706z" mask="url(#b)"/>
        <path stroke="#E86A7C" stroke-width=".25" d="M39.706 24.706h9.706v-4.412h-9.706z" mask="url(#b)"/>
        <path fill="#E86A7C" d="M52.941 10.588h-6.658l-.4-.625c.621-.355 1.325-1.088 1.85-.998 1.651.286 4.04-1.203 5.208 1.623" mask="url(#b)"/>
        <path stroke="#E86A7C" stroke-width=".25" d="M52.941 10.588h-6.658l-.4-.625c.621-.355 1.325-1.088 1.85-.998 1.651.286 4.04-1.203 5.208 1.623z" mask="url(#b)"/>
        <path fill="#F4A33E" d="M21.958 32.166c-2.044-.039-3.935-2.033-3.869-4.083.074-2.299 3.488-4.946 6.3-4.476.89.15 2.192 1.613 2.212 2.498.07 3.43-2.187 6.104-4.643 6.06m.046-12.753c-4.95.007-8.781 3.875-8.769 8.854.011 4.972 3.863 8.805 8.835 8.793a8.786 8.786 0 0 0 8.812-8.861c-.02-4.919-3.935-8.793-8.878-8.786" mask="url(#b)"/>
        <path stroke="#00C9A8" stroke-width=".25" d="M21.958 32.166c-2.044-.039-3.935-2.033-3.869-4.083.074-2.299 3.488-4.946 6.3-4.476.89.15 2.192 1.613 2.212 2.498.07 3.43-2.187 6.104-4.643 6.06zm.046-12.754c-4.95.007-8.781 3.875-8.769 8.854.011 4.972 3.863 8.805 8.835 8.793a8.786 8.786 0 0 0 8.812-8.861c-.02-4.919-3.935-8.793-8.878-8.786z" mask="url(#b)"/>
    </g>
</svg>
